<svg id="Layer_1" enable-background="new 0 0 512 512" viewBox="0 0 512 512" xmlns="http://www.w3.org/2000/svg"><path clip-rule="evenodd" d="m403.205 59.239h72.912v73.958h-72.912zm-146.018 436.761h242.813v-80.367h-242.813zm57.357-228.755v132.388h185.456v-132.388zm62.327 95.993c0 3.855-3.145 7-7 7h-14.799c-3.855 0-7-3.145-7-7v-14.799c0-3.855 3.145-7 7-7h14.799c3.855 0 7 3.144 7 7zm0-44.799c0 3.855-3.145 7-7 7h-14.799c-3.855 0-7-3.145-7-7v-14.799c0-3.855 3.145-7 7-7h14.799c3.855 0 7 3.145 7 7zm44.798 44.799c0 3.855-3.145 7-7 7h-14.799c-3.855 0-7-3.145-7-7v-14.799c0-3.855 3.144-7 7-7h14.799c3.855 0 7 3.144 7 7zm0-44.799c0 3.855-3.145 7-7 7h-14.799c-3.855 0-7-3.145-7-7v-14.799c0-3.855 3.144-7 7-7h14.799c3.855 0 7 3.145 7 7zm44.8 44.799c0 3.855-3.145 7-7 7h-14.8c-3.855 0-7-3.145-7-7v-14.799c0-3.855 3.145-7 7-7h14.8c3.855 0 7 3.144 7 7zm0-44.799c0 3.855-3.145 7-7 7h-14.8c-3.855 0-7-3.145-7-7v-14.799c0-3.855 3.145-7 7-7h14.8c3.855 0 7 3.145 7 7zm-87.147-169.243v102.048h120.678v-102.048zm52.339 56.752c0 3.855-3.145 7-7 7h-11.455c-3.855 0-7-3.144-7-7v-11.456c0-3.855 3.145-7 7-7h11.455c3.855 0 7 3.144 7 7zm41.455 0c0 3.855-3.145 7-7 7h-11.456c-3.855 0-7-3.144-7-7v-11.456c0-3.855 3.145-7 7-7h11.456c3.855 0 7 3.144 7 7zm-95.119-81.221-39.522-33.056c-1.432-1.344-3.357-2.168-5.476-2.168h-12.478l-145.904-70.2v-3.303c0-4.418-3.582-8-8-8l-27.294.009c-3.532-.002-6.764 2.355-7.719 5.928l-2.122 7.85-69.483 56.009h-39.999c-4.418 0-8 3.582-8 8v56.764c0 4.418 3.582 8 8 8h56.764c4.418 0 8-3.582 8-8v-3.708h19.265v311.528h-27.015c-4.418 0-8 3.582-8 8v37.62c0 4.418 3.582 8 8 8h124.618c4.418 0 8-3.582 8-8v-37.621c0-4.418-3.582-8-8-8h-27.015v-311.527h148.851v34.874h-14.282c-4.418 0-8 3.582-8 8v44.564c0 4.418 3.582 8 8 8h44.564c4.418 0 8-3.582 8-8v-44.564c0-4.418-3.582-8-8-8h-14.282v-34.874l33.406-.014c2.281-.001 4.546-.974 6.125-2.861 2.828-3.383 2.381-8.42-1.002-11.25zm-232.56-100.727h13.18v65.503h-30.888zm-62.972 56.184 39.932-32.187-11.221 41.506h-26.412v-3.707c0-2.187-.877-4.168-2.299-5.612zm18.243 38.204-8.807-12.885h21.692zm32.198-9.573 14.036 14.036h-28.072zm-12.878 41.349 35.276 35.275-35.276 35.275zm35.276 144.451-35.276 35.276v-70.551zm-35.276 73.901 35.276 35.276-35.276 35.275zm38.589 81.863h-27.276l27.276-27.276zm0-65.9-35.275-35.275 35.275-35.276zm0-109.176-35.275-35.275 35.275-35.275zm0-109.176-27.276-27.276h27.276zm7.638-46.588-14.036-14.036h28.072zm19.312 3.313 14.036-14.036 14.037 14.036zm47.385-3.313-14.036-14.036h28.073zm19.313 3.313 14.037-14.036 14.036 14.036zm-77.649-33.349v-52.517l109.152 52.517zm125.034 30.036-14.037-14.036h28.073zm31.817 3.313h-12.504l14.527-14.527 17.369 14.527z" fill-rule="evenodd"/></svg>