<svg height="512pt" viewBox="0 -10 512.00445 512" width="512pt" xmlns="http://www.w3.org/2000/svg"><path d="m297.261719 16.726562-1.378907-1.429687c-19.726562-20.394531-52.425781-20.394531-72.152343 0l-1.378907 1.429687-201.679687 208.46875c8.605469 8.191407 20.394531 184.570313 33.414063 184.570313h416.605468c11.667969 0 22.335938-175.378906 30.625-182.117187zm0 0" fill="#71a58a"/><path d="m443.863281 74.769531h-7.542969c-4.824218 0-9.148437 2.164063-11.007812 5.46875-5.261719 9.355469-17.695312 15.929688-32.210938 15.929688-14.519531 0-26.949218-6.582031-32.210937-15.929688-1.863281-3.304687-6.1875-5.46875-11.011719-5.46875h-4.921875c-4.824219 0-9.148437 2.164063-11.007812 5.46875-5.261719 9.355469-17.695313 15.929688-32.210938 15.929688-14.519531 0-26.949219-6.582031-32.210937-15.929688-1.863282-3.304687-6.1875-5.46875-11.011719-5.46875h-4.917969c-4.828125 0-9.152344 2.164063-11.011718 5.46875-5.261719 9.355469-17.691407 15.929688-32.210938 15.929688-14.523438 0-26.949219-6.582031-32.210938-15.929688-1.863281-3.304687-6.183593-5.46875-11.011718-5.46875h-4.914063c-4.828125 0-9.148437 2.164063-11.011719 5.46875-5.261718 9.355469-17.691406 15.929688-32.210937 15.929688-14.523437 0-26.949219-6.582031-32.210937-15.929688-1.863282-3.304687-6.183594-5.46875-11.011719-5.46875h-7.542969c-6.605469 0-11.960938 3.972657-11.960938 8.871094v328.390625h399.546876v-328.390625c-.007813-4.898437-5.363282-8.871094-11.972657-8.871094zm0 0" fill="#ffeead"/><path d="m328.132812 324.296875-37.257812-31.546875-1.382812-1.171875c-19.726563-16.703125-52.421876-16.703125-72.152344 0l-1.378906 1.171875-31.703126 26.839844-127.976562-99.773438v203.21875h399.546875v-202.550781zm0 0" fill="#c9b77d"/><path d="m151.296875 273.515625c-10.242187-7.800781-15.289063-11.621094-15.289063-15.289063 0-1.066406.613282-2.292968 1.992188-2.292968 1.222656 0 3.976562 5.8125 5.042969 5.8125l20.949219-1.070313c1.066406-.152343 1.675781-.765625 1.675781-1.679687 0-13.453125-8.558594-25.074219-22.625-27.980469 0-9.019531 0-9.9375-1.222657-9.9375h-11.164062c-.609375 0-1.066406.609375-1.066406 1.375v8.40625c-14.21875 2.90625-21.863282 15.136719-21.863282 26.757813 0 .832031.089844 1.625.152344 2.429687l57.414063 44.757813c.324219-1.925782.523437-3.933594.523437-6.0625.003906-9.480469-5.039062-18.039063-14.519531-25.226563zm0 0" fill="#71a58a"/><path d="m392.886719 222.921875h-187.601563c-3.03125 0-5.515625 2.480469-5.515625 5.515625v.957031c0 3.03125 2.480469 5.511719 5.515625 5.511719h187.601563c3.03125 0 5.511719-2.480469 5.511719-5.511719v-.957031c.003906-3.035156-2.480469-5.515625-5.511719-5.515625zm0 0" fill="#71a58a"/><path d="m392.886719 258.46875h-187.601563c-3.03125 0-5.515625 2.480469-5.515625 5.515625v.957031c0 3.03125 2.480469 5.511719 5.515625 5.511719h187.601563c.699219 0 1.351562-.160156 1.972656-.402344l2.4375-1.984375c.648437-.902344 1.105469-1.945312 1.105469-3.128906v-.957031c0-3.03125-2.484375-5.511719-5.515625-5.511719zm0 0" fill="#71a58a"/><path d="m205.285156 294.007812c-3.03125 0-5.515625 2.480469-5.515625 5.519532v.957031c0 1.710937.839844 3.191406 2.082031 4.207031l12.613282-10.683594zm0 0" fill="#71a58a"/><path d="m292.371094 294.007812 14.152344 11.992188h44.121093l14.742188-11.992188zm0 0" fill="#71a58a"/><g fill="#99734a"><path d="m113.3125 135.601562c-1.171875-.980468-2.929688-1.855468-5.570312-1.855468-1.851563 0-3.804688.488281-5.269532 1.566406-3.324218 2.433594-3.324218 6.34375-3.324218 9.371094v47.949218c0 3.023438 0 6.34375 2.539062 8.980469.980469.980469 2.832031 2.25 5.957031 2.25 3.21875 0 5.078125-1.269531 6.050781-2.34375 2.640626-2.636719 2.640626-5.957031 2.640626-9.082031v-47.460938c.003906-2.832031.003906-6.832031-3.023438-9.375zm0 0"/><path d="m170.144531 134.234375c-.878906-.292969-1.855469-.488281-2.832031-.488281-2.929688 0-4.398438 1.273437-4.785156 1.660156-2.738282 2.246094-2.738282 5.761719-2.738282 8.496094v15.335937c.101563 9.664063.394532 13.085938 2.148438 24.316407l-12.886719-37.988282c-3.230469-9.472656-4.199219-11.234375-12.699219-11.234375-4 0-8.203124.195313-9.957031 4.980469-.785156 2.246094-.878906 5.175781-.878906 9.472656v44.4375c0 3.414063.097656 8.589844 5.171875 10.25.589844.191406 1.957031.390625 2.929688.390625 1.078124 0 5.277343 0 6.9375-4.683593.679687-1.957032.679687-4.011719.679687-6.0625v-17.96875c0-10.9375-.585937-13.378907-1.953125-22.75 2.152344 8.496093 2.738281 10.449218 5.175781 17.871093l7.425781 21.96875c2.726563 7.714844 3.898438 11.035157 11.714844 11.035157 3.515625 0 5.46875 0 7.8125-1.367188 3.707032-2.144531 3.90625-5.957031 3.90625-10.160156v-47.75c-.09375-3.21875-.195312-8.101563-5.171875-9.761719zm0 0"/><path d="m218.574219 133.746094c-7.324219 0-8.59375 6.738281-9.277344 10.152344-2.539063 13.378906-4.296875 27.929687-5.761719 39.84375-1.660156-13.183594-3.515625-26.464844-6.34375-39.546876-1.175781-5.375-2.539062-10.449218-8.695312-10.449218-5.570313 0-8.496094 4-8.496094 8.496094 0 1.460937.296875 3.121093.683594 4.691406l11.722656 47.648437c1.558594 6.351563 3.21875 8.695313 10.738281 8.695313 7.324219 0 9.664063-1.078125 11.429688-8.398438l11.328125-48.136718c.386718-1.664063.777344-3.222657.777344-4.882813 0-4.207031-2.832032-8.113281-8.105469-8.113281zm0 0"/><path d="m274.328125 142.636719c-4.78125-8.109375-13.960937-9.378907-20.210937-9.378907-5.375 0-10.835938.882813-15.332032 3.902344-7.914062 5.371094-8.300781 14.160156-8.300781 28.320313 0 18.949219 0 26.261719 5.171875 32.125 5.859375 6.542969 15.726562 6.542969 18.363281 6.542969 4.492188 0 14.550781-.390626 19.917969-8.101563 3.027344-4.398437 3.910156-9.183594 3.910156-24.804687 0-19.535157-.980468-24.21875-3.519531-28.605469zm-14.15625 40.523437c-.101563 1.855469-.488281 6.832032-5.957031 6.832032-5.765625 0-5.957032-5.558594-6.152344-11.328126-.09375-3.128906-.09375-6.253906-.09375-9.378906 0-3.898437 0-12.300781.386719-15.71875.195312-1.660156.679687-6.050781 5.570312-6.050781 3.707031 0 5.363281 2.242187 5.957031 6.148437.386719 2.832032.484376 11.230469.484376 14.941407-.003907.292969-.097657 12.304687-.195313 14.554687zm0 0"/><path d="m300.402344 135.601562c-1.171875-.980468-2.929688-1.855468-5.570313-1.855468-1.851562 0-3.808593.488281-5.273437 1.566406-3.320313 2.433594-3.320313 6.34375-3.320313 9.371094v47.949218c0 3.023438 0 6.34375 2.539063 8.980469.980468.980469 2.832031 2.25 5.957031 2.25 3.21875 0 5.078125-1.269531 6.050781-2.34375 2.640625-2.636719 2.640625-5.957031 2.640625-9.082031v-47.460938c.007813-2.832031.007813-6.832031-3.023437-9.375zm0 0"/><path d="m349.03125 176.320312c-4.683594 0-6.929688 2.636719-7.808594 4.878907-.394531 1.171875-.488281 2.445312-.589844 3.714843-.191406 1.761719-.488281 5.273438-5.175781 5.273438-4.589843 0-5.367187-3.710938-5.558593-4.785156-.6875-3.125-.6875-11.226563-.6875-15.039063 0-2.144531 0-13.28125.492187-16.992187.292969-1.664063.875-5.855469 6.046875-5.855469 4.789062 0 4.984375 3.316406 5.277344 6.929687.09375 1.859376.292968 3.714844 1.757812 5.277344.976563 1.070313 2.832032 2.046875 5.761719 2.046875 8.402344 0 8.496094-7.8125 8.496094-10.546875 0-5.171875-1.078125-10.742187-7.324219-14.449218-3.511719-2.054688-7.710938-3.328126-14.742188-3.328126-3.027343 0-9.664062.195313-15.140624 4.105469-7.808594 5.761719-8.003907 14.550781-8.003907 31.441407 0 20.703124 1.464844 26.855468 8.398438 31.445312 1.757812 1.171875 5.957031 3.710938 15.230469 3.710938 6.355468 0 12.792968-1.367188 17.191406-5.859376 3.125-3.21875 4.683594-7.613281 4.683594-12.105468-.003907-5.953125-2.734376-9.863282-8.304688-9.863282zm0 0"/><path d="m401.464844 191.554688c-2.148438-2.34375-4.980469-2.34375-7.523438-2.34375h-13.28125v-14.84375h11.328125c2.738281 0 7.035157-.09375 8.492188-4.390626.296875-.980468.390625-1.855468.390625-2.445312 0-1.757812-.589844-3.320312-1.558594-4.492188-1.957031-2.144531-4.984375-2.242187-7.324219-2.339843h-11.328125v-12.300781h12.496094c2.347656 0 5.570312 0 7.71875-2.050782 1.273438-1.078125 2.054688-2.738281 2.054688-4.886718 0-7.128907-7.035157-7.128907-9.863282-7.128907h-17.964844c-2.832031 0-5.863281 0-8.402343 2.058594-3.21875 2.53125-3.21875 6.441406-3.21875 9.46875v46.183594c0 3.417969 0 6.640625 2.4375 8.890625 2.445312 2.339844 5.765625 2.339844 9.085937 2.339844h18.746094c2.539062 0 5.472656 0 7.617188-2.246094 1.273437-1.171875 1.855468-2.925782 1.855468-4.683594 0-.980469-.101562-3.027344-1.757812-4.789062zm0 0"/></g><path d="m107.878906 260.046875c.777344 9.898437 6.160156 18.074219 14.21875 23.871094 12.078125 8.710937 15.746094 12.074219 15.746094 16.046875 0 1.988281-1.375 3.367187-3.363281 3.367187-3.515625 0-5.960938-3.210937-7.03125-8.5625-.308594-1.375-.765625-1.675781-1.683594-1.675781l-19.417969 1.066406c-.765625.152344-1.21875.609375-1.21875 1.371094 0 18.046875 8.410156 28.589844 24.460938 31.496094 0 9.171875 0 10.242187 1.21875 10.242187h11.011718c.609376 0 1.222657-.609375 1.222657-1.222656v-8.867187c12.238281-2.371094 20.25-10.433594 22.253906-22.375zm0 0" fill="#639376"/><path d="m394.859375 270.050781c1.015625-.390625 1.816406-1.105469 2.4375-1.984375zm0 0" fill="#c9b77d"/><path d="m392.886719 294.007812h-27.5l-14.742188 11.988282h42.242188c3.03125 0 5.511719-2.480469 5.511719-5.511719v-.957031c.003906-3.035156-2.480469-5.519532-5.511719-5.519532zm0 0" fill="#639376"/><path d="m292.371094 294.007812h-77.90625l-12.613282 10.683594c.953126.773438 2.117188 1.308594 3.433594 1.308594h101.238282zm0 0" fill="#639376"/><path d="m392.886719 329.554688h-187.601563c-3.03125 0-5.515625 2.480468-5.515625 5.511718v.957032c0 3.03125 2.480469 5.511718 5.515625 5.511718h187.601563c3.03125 0 5.511719-2.480468 5.511719-5.511718v-.957032c.003906-3.027344-2.480469-5.511718-5.511719-5.511718zm0 0" fill="#639376"/><path d="m482.082031 218.792969-190.15625 154.601562 203.003907 109.832031c10.433593-8.476562 17.074218-21.1875 17.074218-35.40625v-207.222656c-.003906-15.101562-14.945312-25.992187-29.921875-21.804687zm0 0" fill="#ff6f69"/><path d="m30.0625 219.039062c-15.007812-4.300781-30.0625 6.597657-30.0625 21.757813v207.015625c0 12.910156 5.476562 24.570312 14.28125 32.957031l213.777344-107.378906zm0 0" fill="#ff6f69"/><path d="m290.875 310.375-1.382812-1.171875c-19.726563-16.703125-52.421876-16.703125-72.152344 0l-1.378906 1.171875-201.679688 170.394531c8.605469 6.710938 20.398438 11.226563 33.414062 11.226563h416.609376c11.664062 0 22.335937-3.328125 30.621093-8.847656zm0 0" fill="#96ceb4"/><path d="m341.636719 332.980469-12.277344 9.980469 165.566406 140.1875zm0 0" fill="#e05858"/><path d="m170.222656 328.308594-155.941406 152.460937 168.683594-142.574219zm0 0" fill="#e05858"/></svg>