<svg id="Layer_1" height="512" viewBox="0 0 512 512" width="512" xmlns="http://www.w3.org/2000/svg" data-name="Layer 1"><g fill-rule="evenodd"><path d="m438.718 118.429 65.5 37.817v75.633l-65.5 37.816-65.5-37.816v-75.633z" fill="#e3a76f"/><path d="m438.718 194.062v-75.633l65.5 37.817z" fill="#c48958"/><path d="m438.718 269.695v-75.633l-65.5-37.816v75.633z" fill="#f2d1a5"/><path d="m438.718 194.062v75.633l65.5-37.816v-75.633z" fill="#e3a76f"/><path d="m256 8 65.5 37.817v75.632l-65.5 37.817-65.5-37.817v-75.632z" fill="#e3a76f"/><path d="m256 83.633v-75.633l65.5 37.817z" fill="#c48958"/><path d="m256 159.266v-75.633l-65.5-37.816v75.632z" fill="#f2d1a5"/><path d="m256 83.633v75.633l65.5-37.817v-75.632z" fill="#e3a76f"/><path d="m73.282 118.429 65.5 37.817v75.633l-65.5 37.816-65.5-37.816v-75.633z" fill="#e3a76f"/><path d="m73.282 194.062v-75.633l65.5 37.817z" fill="#c48958"/><path d="m73.282 269.695v-75.633l-65.5-37.816v75.633z" fill="#f2d1a5"/><path d="m73.282 194.062v75.633l65.5-37.816v-75.633z" fill="#e3a76f"/><path d="m273.675 307.009a90.7 90.7 0 0 1 33.094 13.718l3.981-1.768 13.667-6.07 7.6 7.6 7.6 7.6-6.071 13.667-1.766 3.976a90.686 90.686 0 0 1 13.721 33.1l4.049 1.558 13.956 5.371v21.486l-13.956 5.373-4.053 1.56a90.693 90.693 0 0 1 -13.719 33.094l1.768 3.981 6.071 13.667-7.6 7.6-7.6 7.6-13.668-6.07-3.975-1.766a90.686 90.686 0 0 1 -33.101 13.714l-1.558 4.049-5.372 13.951h-21.486l-5.372-13.956-1.56-4.053a90.7 90.7 0 0 1 -33.094-13.719l-3.982 1.768-13.667 6.07-7.6-7.6-7.6-7.6 6.07-13.668 1.766-3.976a90.672 90.672 0 0 1 -13.72-33.1l-4.049-1.558-13.949-5.365v-21.486l13.956-5.372 4.052-1.56a90.654 90.654 0 0 1 13.719-33.1l-1.768-3.98-6.07-13.667 7.6-7.6 7.6-7.6 13.667 6.07 3.981 1.768a90.706 90.706 0 0 1 33.1-13.718l1.56-4.053 5.36-13.945h21.486l5.372 13.956zm-17.675 140.123a50.431 50.431 0 1 0 -50.432-50.432 50.485 50.485 0 0 0 50.432 50.432z" fill="#eceff1"/><path d="m273.675 307.009a90.7 90.7 0 0 1 33.094 13.718l3.981-1.768 13.667-6.07 7.6 7.6 7.6 7.6-6.071 13.667-1.766 3.976a90.686 90.686 0 0 1 13.721 33.1l4.049 1.558 13.956 5.371v21.486l-13.956 5.373-4.053 1.56a90.693 90.693 0 0 1 -13.719 33.094l1.768 3.981 6.071 13.667-7.6 7.6-7.6 7.6-13.668-6.07-3.975-1.766a90.686 90.686 0 0 1 -33.101 13.714l-1.558 4.049-5.372 13.951h-10.743v-56.868a50.431 50.431 0 1 0 0-100.861v-57.271h10.743l5.372 13.956z" fill="#c4cccf"/><path d="m298.432 396.7a42.432 42.432 0 1 0 -42.432 42.432 42.475 42.475 0 0 0 42.432-42.432zm16 0a58.43 58.43 0 1 1 -58.432-58.429 58.5 58.5 0 0 1 58.43 58.43zm40.87-5.23v10.46l-12.851 4.941a8 8 0 0 0 -4.968 5.929 82.4 82.4 0 0 1 -12.493 30.111 8.043 8.043 0 0 0 -.67 7.71l5.6 12.6-7.4 7.39-12.592-5.591a8.033 8.033 0 0 0 -7.709.67 82.185 82.185 0 0 1 -30.118 12.49 7.977 7.977 0 0 0 -5.921 4.97l-4.953 12.85h-10.459l-4.949-12.85a7.965 7.965 0 0 0 -5.921-4.979 82.329 82.329 0 0 1 -30.118-12.481 8.014 8.014 0 0 0 -7.7-.67l-12.6 5.591-7.4-7.39 5.6-12.59a8.028 8.028 0 0 0 -.675-7.711 82.186 82.186 0 0 1 -12.488-30.12 8.007 8.007 0 0 0 -4.977-5.929l-12.84-4.94v-10.46l12.851-4.95a8 8 0 0 0 4.968-5.919 82.429 82.429 0 0 1 12.488-30.12 8.009 8.009 0 0 0 .675-7.7l-5.6-12.6 7.4-7.4 12.6 5.6a8.014 8.014 0 0 0 7.7-.671 82.435 82.435 0 0 1 30.118-12.489 7.979 7.979 0 0 0 5.921-4.971l4.949-12.85h10.459l4.954 12.85a7.994 7.994 0 0 0 5.921 4.971 82.371 82.371 0 0 1 30.118 12.489 8.014 8.014 0 0 0 7.7.671l12.6-5.6 7.4 7.4-5.6 12.591a8.046 8.046 0 0 0 .67 7.711 81.964 81.964 0 0 1 12.493 30.12 7.965 7.965 0 0 0 4.977 5.919l12.842 4.95zm16-5.49v21.44a8.009 8.009 0 0 1 -5.119 7.47l-13.969 5.37a97.723 97.723 0 0 1 -11.521 27.8l.019.04 6.062 13.639a8.016 8.016 0 0 1 -1.66 8.911l-15.159 15.161a8.022 8.022 0 0 1 -8.912 1.659l-13.677-6.08a97.889 97.889 0 0 1 -27.8 11.531l-.01.019-5.359 13.93a8.014 8.014 0 0 1 -7.478 5.13h-21.438a8.014 8.014 0 0 1 -7.473-5.131l-5.369-13.96a97.772 97.772 0 0 1 -27.8-11.52l-.038.021-13.639 6.059a8.022 8.022 0 0 1 -8.912-1.659l-15.16-15.159a8.016 8.016 0 0 1 -1.66-8.911l6.081-13.679a97.753 97.753 0 0 1 -11.53-27.8l-.033-.01-13.918-5.36a8.009 8.009 0 0 1 -5.133-7.47v-21.44a8.011 8.011 0 0 1 5.124-7.469l13.969-5.37a97.462 97.462 0 0 1 11.521-27.8l-6.081-13.691a8 8 0 0 1 1.66-8.9l15.159-15.16a8.019 8.019 0 0 1 8.912-1.66l13.677 6.079a97.8 97.8 0 0 1 27.8-11.519l.01-.041 5.359-13.931a8.019 8.019 0 0 1 7.473-5.119h21.438a8.019 8.019 0 0 1 7.473 5.119l5.369 13.972a97.857 97.857 0 0 1 27.8 11.519l13.677-6.079a8.019 8.019 0 0 1 8.912 1.66l15.159 15.16a8 8 0 0 1 1.66 8.9l-6.081 13.68a97.938 97.938 0 0 1 11.53 27.811l.029.009 13.931 5.361a8.007 8.007 0 0 1 5.119 7.469zm-355.302-159.099 49.278 28.46v-56.91l-49.278-28.449v56.9zm8-70.76 49.282-28.45 49.277 28.45-49.279 28.451zm106.561 70.76v-56.9l-49.28 28.45v56.91l49.278-28.46zm-61.28 49.24-65.281-37.691a8.016 8.016 0 0 1 -4-6.93v-75.38a8.021 8.021 0 0 1 4-6.93l65.279-37.69a8 8 0 0 1 8 0l65.28 37.689a8 8 0 0 1 4 6.93v75.381a8 8 0 0 1 -4 6.929l-65.28 37.691a8.009 8.009 0 0 1 -8 0zm12 59.161v-26.09a8 8 0 0 0 -16 0v29.4a8 8 0 0 0 2.349 5.659l41.7 41.7a8 8 0 1 0 11.309-11.309l-39.356-39.36zm414.719-108.401v-56.9l-49.278 28.449v56.91zm-114.562 0 49.282 28.46v-56.91l-49.282-28.449v56.9zm8-70.76 49.282-28.45 49.28 28.45-49.28 28.451zm122.564 0v75.379a8 8 0 0 1 -4 6.929l-65.28 37.691a8.009 8.009 0 0 1 -8 0l-65.28-37.691a7.986 7.986 0 0 1 -4-6.929v-75.38a7.991 7.991 0 0 1 4-6.93l65.28-37.689a8 8 0 0 1 8 0l65.278 37.69a8 8 0 0 1 4 6.93zm-73.282 145.071a8 8 0 0 0 -8 8v26.09l-39.361 39.36a8 8 0 0 0 11.309 11.309l41.71-41.7a7.992 7.992 0 0 0 2.344-5.659v-29.4a8 8 0 0 0 -8-8zm-232-255.5 49.28 28.449 49.282-28.449-49.282-28.45-49.282 28.45zm106.561 70.759-49.281 28.46v-56.911l49.277-28.45v56.9zm-114.558 0v-56.9l49.277 28.449v56.91l-49.277-28.46zm-16 4.621v-75.38a7.993 7.993 0 0 1 4-6.932l65.277-37.686a7.98 7.98 0 0 1 8 0l65.28 37.686a8 8 0 0 1 4 6.932v75.38a8 8 0 0 1 -4 6.929l-65.28 37.691a8.022 8.022 0 0 1 -8 0l-65.281-37.692a7.988 7.988 0 0 1 -4-6.929zm73.277 66.628a8 8 0 0 1 8 8v52.88a8 8 0 0 1 -16 0v-52.88a8 8 0 0 1 8-8z"/></g></svg>