<svg id="Capa_1" enable-background="new 0 0 512 512" height="512" viewBox="0 0 512 512" width="512" xmlns="http://www.w3.org/2000/svg"><g><g><g><path d="m100.028 47.072c0-20.507 17.004-37.132 37.98-37.132h235.984c20.976 0 37.98 16.624 37.98 37.132v417.855c0 20.507-17.004 37.132-37.98 37.132h-235.984c-20.976 0-37.98-16.624-37.98-37.132z" fill="#eaf6ff"/><path d="m378.213 10.772h-15.183c7.483 7.029 12.14 16.913 12.14 27.86v121.974l-10.001 99.018 10.001 118.435v95.31c0 12.175-5.761 23.035-14.763 30.115h15.552c19.057 0 34.534-15.395 34.635-34.451l2.254-423.441c.103-19.2-15.434-34.82-34.635-34.82z" fill="#d8ecfe"/><g><path d="m337.792 415.545h-196.016c-1.687 0-3.054-1.367-3.054-3.054v-258.549c0-1.687 1.367-3.054 3.054-3.054h159.276c.81 0 1.587.322 2.159.894l36.74 36.74c.573.573.894 1.349.894 2.159v221.809c0 1.688-1.367 3.055-3.053 3.055z" fill="#c4e2ff"/><path d="m314.128 116.456h-137.92c-1.687 0-3.054 1.367-3.054 3.054v258.549c0 1.687 1.367 3.054 3.054 3.054h176.015 1l17.001-2c1.687 0 3.054-1.367 3.054-3.054v-214.21c0-.434-.102-.855-.279-1.243z" fill="#d8ecfe"/><path d="m374.999 160.606-43.871-43.871c-.388-.177-.808-.279-1.243-.279h-15.758v42.15c0 10.493 8.507 19 19 19h18.149c2.209 0 4 1.791 4 4v196.453c0 1.687-1.367 3.054-3.054 3.054h20.001c1.687 0 3.054-1.367 3.054-3.054v-200.453-15.757c.001-.435-.101-.856-.278-1.243z" fill="#c4e2ff"/><path d="m374.999 160.606c-.147-.323-.344-.623-.6-.879l-42.393-42.393c-.256-.256-.556-.453-.879-.6v41.871c0 1.105.895 2 2 2h41.872z" fill="#d8ecfe"/><path d="m476.312 336.361-17.001 2h-1-424.623c-2.761 0-5-2.239-5-5v-138.722c0-2.761 2.239-5 5-5h424.623 1l17.001 2c2.761 0 5 2.239 5 5v134.723c0 2.761-2.239 4.999-5 4.999z" fill="#fe99a0"/><path d="m478.312 189.638h-20.001c2.761 0 5 2.239 5 5v138.723c0 2.761-2.239 5-5 5h20.001c2.761 0 5-2.239 5-5v-138.723c0-2.761-2.239-5-5-5z" fill="#fd8087"/></g></g></g><g><path d="m210.75 37.5c0 4.142 3.358 7.5 7.5 7.5h50c4.142 0 7.5-3.358 7.5-7.5s-3.358-7.5-7.5-7.5h-50c-4.142 0-7.5 3.358-7.5 7.5z"/><path d="m478.31 182.14h-60.81v-137.14c0-24.813-20.187-45-45-45h-111.75c-4.142 0-7.5 3.358-7.5 7.5s3.358 7.5 7.5 7.5h111.75c16.542 0 30 13.458 30 30v137.14h-19.722v-20.292c0-2.803-1.091-5.439-3.076-7.425l-42.393-42.393c-1.983-1.983-4.62-3.075-7.424-3.075h-153.677c-5.819 0-10.554 4.734-10.554 10.554v23.879h-23.879c-5.819 0-10.554 4.734-10.554 10.554v28.198h-21.721v-137.14c0-16.542 13.458-30 30-30h86.25c4.142 0 7.5-3.358 7.5-7.5s-3.358-7.5-7.5-7.5h-86.25c-24.813 0-45 20.187-45 45v137.14h-60.81c-6.893 0-12.5 5.607-12.5 12.5v138.72c0 6.893 5.607 12.5 12.5 12.5h60.81v121.14c0 24.813 20.187 45 45 45h32.11c4.142 0 7.5-3.358 7.5-7.5s-3.358-7.5-7.5-7.5h-32.11c-16.542 0-30-13.458-30-30v-121.14h21.722v66.632c0 5.819 4.734 10.554 10.554 10.554h196.016c5.819 0 10.554-4.734 10.554-10.554v-23.879h23.879c5.82 0 10.554-4.734 10.554-10.554v-32.199h19.721v121.14c0 16.542-13.458 30-30 30h-165.89c-4.142 0-7.5 3.358-7.5 7.5s3.358 7.5 7.5 7.5h165.89c24.813 0 45-20.187 45-45v-121.14h60.81c6.893 0 12.5-5.607 12.5-12.5v-138.72c0-6.892-5.607-12.5-12.5-12.5zm-139.682-47.578 18.543 18.543h-18.543zm-192.406 23.827h19.433v23.751h-19.433zm187.123 249.656h-187.123v-62.185h19.433v32.199c0 5.82 4.734 10.554 10.554 10.554h157.137v19.432zm142.465-77.185h-164.56c-4.142 0-7.5 3.358-7.5 7.5s3.358 7.5 7.5 7.5h56.528v27.753h-187.123v-27.753h95.595c4.142 0 7.5-3.358 7.5-7.5s-3.358-7.5-7.5-7.5h-240.06v-133.72h172.06c4.142 0 7.5-3.358 7.5-7.5s-3.358-7.5-7.5-7.5h-27.595v-58.184h142.974v36.65c0 4.142 3.358 7.5 7.5 7.5h36.65v14.034h-124.529c-4.142 0-7.5 3.358-7.5 7.5s3.358 7.5 7.5 7.5h232.56z"/><path d="m163.713 235.763c4.142 0 7.5-3.358 7.5-7.5s-3.358-7.5-7.5-7.5h-30.116c-4.142 0-7.5 3.358-7.5 7.5v71.474c0 4.142 3.358 7.5 7.5 7.5h30.116c4.142 0 7.5-3.358 7.5-7.5s-3.358-7.5-7.5-7.5h-22.616v-20.737h19.249c4.142 0 7.5-3.358 7.5-7.5s-3.358-7.5-7.5-7.5h-19.249v-20.737z"/><path d="m405.352 235.765h12.155v63.97c0 4.142 3.358 7.5 7.5 7.5s7.5-3.358 7.5-7.5v-63.97h12.314c4.142 0 7.5-3.358 7.5-7.5s-3.358-7.5-7.5-7.5h-39.469c-4.142 0-7.5 3.358-7.5 7.5s3.357 7.5 7.5 7.5z"/><path d="m347.443 307.237c4.142 0 7.5-3.358 7.5-7.5v-24.082l25.46 29.027c1.482 1.69 3.557 2.555 5.641 2.555 1.756 0 3.519-.613 4.942-1.862 3.114-2.731 3.424-7.47.693-10.583l-19.612-22.36c12.253-2.516 21.474-13.034 21.474-25.594 0-14.378-12.169-26.075-27.126-26.075h-18.972c-4.142 0-7.5 3.358-7.5 7.5v71.474c0 4.142 3.358 7.5 7.5 7.5zm7.5-71.474h11.472c6.573 0 12.126 5.072 12.126 11.075 0 6.054-5.553 11.169-12.126 11.169h-11.472z"/><path d="m115.277 246.838c0-14.378-12.169-26.075-27.126-26.075h-18.972c-4.142 0-7.5 3.358-7.5 7.5v71.474c0 4.142 3.358 7.5 7.5 7.5s7.5-3.358 7.5-7.5v-24.081l25.46 29.027c1.482 1.69 3.557 2.554 5.641 2.554 1.756 0 3.519-.613 4.942-1.862 3.114-2.731 3.424-7.47.693-10.583l-19.612-22.36c12.253-2.516 21.474-13.034 21.474-25.594zm-27.126 11.169h-11.472v-22.244h11.472c6.573 0 12.126 5.072 12.126 11.075 0 6.055-5.553 11.169-12.126 11.169z"/><path d="m208.974 220.763h-19.864c-4.142 0-7.5 3.358-7.5 7.5v71.474c0 4.142 3.358 7.5 7.5 7.5s7.5-3.358 7.5-7.5v-23.575h12.364c15.475 0 28.065-12.439 28.065-27.729 0-15.257-12.59-27.67-28.065-27.67zm0 40.4h-12.364v-25.399h12.364c7.082 0 13.065 5.802 13.065 12.67 0 6.899-5.983 12.729-13.065 12.729z"/><path d="m287.153 307.237c23.841 0 43.237-19.396 43.237-43.237s-19.396-43.237-43.237-43.237-43.237 19.396-43.237 43.237 19.396 43.237 43.237 43.237zm0-71.474c15.57 0 28.237 12.667 28.237 28.237s-12.667 28.237-28.237 28.237-28.237-12.667-28.237-28.237 12.667-28.237 28.237-28.237z"/><circle cx="293.75" cy="37.5" r="7.5"/></g></g></svg>