<svg id="Layer_1" enable-background="new 0 0 68 68" height="512" viewBox="0 0 68 68" width="512" xmlns="http://www.w3.org/2000/svg"><g id="_x33_1"><g><g><g><g><g><path d="m61.9 35c0-.1-.1-.1-.1-.2-.9-1.6-2.9-1.6-4.4-.6-2.1 1.4-6.5 3.3-10.5 4.7v10.5l14-10.4c1.3-.9 1.7-2.6 1-4z" fill="#f2a496"/></g><g><path d="m65.7 36.5c-.8-1.6-2.8-1.8-4.3-.9-2.2 1.3-6.8 3-10.9 4.1 0 0 .3-1.6-.5-2.7-1.1-1.5-3-2-4.6-1.4l-13.5 3c-1 .4-4.6-.1-5.8-.4-4.1-1.1-8.4-.8-12.1.9v19.1c3.8-2.6 13.7-2 19.7-1.4 3.3.4 6.6-.4 9.4-2.2l21.5-13.9c1.3-.9 1.8-2.6 1.1-4.2z" fill="#fabdab"/></g><g><path d="m64.2 35.2c.6 1.5 0 3.1-1.2 3.9l-18 11.7c-2.3 1.5-5 2.3-7.7 2.4-22.1.9-23.3 5-23.3 5 3.8-2.6 13.7-2 19.7-1.4 3.3.4 6.6-.4 9.4-2.2l21.5-13.9c2.1-1.4 1.8-4.8-.4-5.5z" fill="#f2a496"/></g><g><g><path d="m48.8 37.4c-.6-.9-1.8-1.2-2.8-.9l-2.3.8c-.4 2.1 0 3.8 1.4 4.9l2.8-1.3c1.4-.5 1.8-2.3.9-3.5z" fill="#f8f9fe"/></g></g><g><g><path d="m48.8 37.4c-.5-.7-1.5-1.2-2.5-.9 1.3.3 2.1 1.5 1.8 2.9-.4 1.6-3.2 2.8-3 2.9l2.8-1.3c1.4-.6 1.8-2.4.9-3.6z" fill="#f3f1fc"/></g></g><g><path d="m50.4 39.7c-.7 2.8-4 3.4-6.3 4.5-4.3 1.6-8.8 2.9-13.3 4 2.9-1 5.9-2 8.8-3l4.4-1.5c2.3-.9 5.4-1.4 6.4-4z" fill="#f2a496"/></g></g><g><path d="m16.1 34.5h-7.4c-.8 0-1.4.6-1.4 1.4v22.5c0 .8.6 1.4 1.4 1.4h7.4c.8 0 1.4-.6 1.4-1.4v-22.5c-.1-.8-.7-1.4-1.4-1.4z" fill="#e9e7fc"/></g><g><path d="m12.6 32.2h-9.2c-.8 0-1.4.6-1.4 1.4v27.1c0 .7.6 1.3 1.4 1.3h9.2c.8 0 1.4-.6 1.4-1.4v-27c0-.8-.6-1.4-1.4-1.4z" fill="#4c5c75"/></g></g><g><g><path d="m3.4 62h9.2c.8 0 1.4-.6 1.4-1.4v-27c0-.3-.1-.5-.2-.7-.8 5.2-4.2 24.2-11.7 28.3.2.5.7.8 1.3.8z" fill="#1d2943"/></g></g><g><path d="m12.4 60.5c-.2-1.7-.3-3.3-.3-5 0-1.6.1-3.4.3-5 .2 1.6.3 3.5.3 5 0 1.7-.1 3.3-.3 5z" fill="#fff"/></g><g><circle cx="8" cy="37.5" fill="#e9e7fc" r="2.5"/></g><g><g><path d="m8.5 35.1c.5.4.8 1.1.8 1.8 0 1.4-1.1 2.5-2.5 2.5-.1 0-.3 0-.4 0 .4.3 1 .6 1.6.6 1.4 0 2.5-1.1 2.5-2.5 0-1.2-.9-2.2-2-2.4z" fill="#dedffb"/></g></g></g><g><g><g><g><g><g><g><path d="m28 18.5v-7.1c0-1.5-.6-2.8-1.6-3.8s-2.3-1.6-3.8-1.6c-3 0-5.4 2.4-5.4 5.4v7.1c3.9.9 7.5.9 10.8 0z" fill="#1d2943"/></g><g><g><g><g><path d="m31.3 25.6c0 4-17.5 4-17.5 0 0-2.8 2.3-5 5-5h.5c0 1.8 1.5 3.3 3.3 3.3s3.3-1.5 3.3-3.3h.3c2.8 0 5.1 2.2 5.1 5z" fill="#78e75a"/></g><g><g><path d="m31.3 25.6c0-1.8-.9-3.4-2.4-4.3-.7 1.1-3.9 4.8-14.2 5.7 3.7 2.5 16.6 2.1 16.6-1.4z" fill="#72d561"/></g></g><g><path d="m25.9 20.6c0 1.8-1.5 3.3-3.3 3.3s-3.3-1.5-3.3-3.3z" fill="#fff"/></g><g><path d="m24.8 18.4v2.2c0 1.2-1 2.2-2.2 2.2s-2.2-1-2.2-2.2v-2.2z" fill="#fabdab"/></g><g><path d="m24.8 18.9v1.3c-3.6.2-4.4-1.1-4.4-1.1v-.2z" fill="#ea8b82"/></g><g><path d="m26.7 12.5v3.1c0 2.1-1.6 4-3.7 4.2-2.4.2-4.4-1.7-4.4-4v-3.2c0-2.4 8.1-2.4 8.1-.1z" fill="#fabdab"/></g></g><g><path d="m21.4 17.2c-.1 0-.2.2-.2.3.2.5.7.8 1.3.8s1.1-.3 1.3-.8c.1-.1 0-.3-.2-.3z" fill="#fff"/></g><g><path d="m23.1 15.9c-.1.2-.3.4-.5.4-.3 0-.5-.2-.5-.4z" fill="#ea8b82"/></g><g><g><path d="m21.1 14.4c0 .2-.2.5-.5.5-.2 0-.4-.2-.4-.5 0-.2.2-.4.4-.4.3 0 .5.2.5.4z" fill="#1d2943"/></g><g><path d="m24.9 14.4c0 .2-.2.5-.5.5-.2 0-.4-.2-.4-.5 0-.2.2-.4.4-.4.3 0 .5.2.5.4z" fill="#1d2943"/></g></g><g><path d="m21.7 13.4c0 .1-.1.2-.2.2h-1.7c-.1 0-.2-.1-.2-.2s.1-.2.2-.2h1.7c.1 0 .2.1.2.2z" fill="#1d2943"/></g><g><path d="m25.5 13.4c0 .1-.1.2-.2.2h-1.7c-.1 0-.2-.1-.2-.2s.1-.2.2-.2h1.7c.1 0 .2.1.2.2z" fill="#1d2943"/></g></g></g></g></g></g><g><g><g><path d="m28.2 14c0 .8-.7 1.5-1.5 1.5v-3c.8 0 1.5.7 1.5 1.5z" fill="#fabdab"/></g></g><g><g><path d="m27 12.5v2.9c-.1 0-.2 0-.3 0v-3c.1.1.2.1.3.1z" fill="#ea8b82"/></g></g></g><g><g><g><path d="m17.1 14c0 .8.7 1.5 1.5 1.5v-3c-.8 0-1.5.7-1.5 1.5z" fill="#fabdab"/></g></g><g><g><path d="m18.3 12.5v2.9h.3v-3c-.1.1-.2.1-.3.1z" fill="#ea8b82"/></g></g></g></g><g><path d="m19 9.7c.2-.8.7-1.4 1.4-1.8s1.5-.6 2.3-.4c-.7.2-1.4.4-2 .8-.7.3-1.2.8-1.7 1.4z" fill="#fff"/></g></g><g><g><g><g><g><g><path d="m58.1 11.4v10.8h-10.7v-10.8c0-3 2.4-5.4 5.4-5.4 1.5 0 2.8.6 3.8 1.6.9 1 1.5 2.4 1.5 3.8z" fill="#1d2943"/></g><g><g><g><g><path d="m61.4 25.6c0 4-17.5 4-17.5 0 0-2.8 2.3-5 5-5h.5c0 1.8 1.5 3.3 3.3 3.3s3.3-1.5 3.3-3.3h.3c2.9 0 5.1 2.2 5.1 5z" fill="#57b3fe"/></g><g><g><path d="m61.4 25.6c0-1.8-.9-3.4-2.4-4.3-.7 1.1-3.9 4.8-14.2 5.7 3.7 2.5 16.6 2.1 16.6-1.4z" fill="#5094ff"/></g></g><g><path d="m56.1 20.6c0 1.8-1.5 3.3-3.3 3.3s-3.3-1.5-3.3-3.3z" fill="#fff"/></g><g><path d="m55 18.4v2.2c0 1.2-1 2.2-2.2 2.2s-2.2-1-2.2-2.2v-2.2z" fill="#fabdab"/></g><g><path d="m55 18.9v1.3c-3.6.2-4.4-1.1-4.4-1.1v-.2z" fill="#ea8b82"/></g><g><path d="m56.8 12.5v3.1c0 2.1-1.6 4-3.7 4.2-2.4.2-4.4-1.7-4.4-4v-3.2c0-2.4 8.1-2.4 8.1-.1z" fill="#fabdab"/></g></g><g><path d="m51.6 17.2c-.1 0-.2.2-.2.3.2.5.7.8 1.3.8s1.1-.3 1.3-.8c.1-.1 0-.3-.2-.3z" fill="#fff"/></g><g><path d="m53.2 15.9c-.1.2-.3.4-.5.4-.3 0-.5-.2-.5-.4z" fill="#ea8b82"/></g><g><g><path d="m51.3 14.4c0 .2-.2.5-.5.5-.2 0-.4-.2-.4-.5 0-.2.2-.4.4-.4.3 0 .5.2.5.4z" fill="#1d2943"/></g><g><path d="m55 14.4c0 .2-.2.5-.5.5-.2 0-.4-.2-.4-.5 0-.2.2-.4.4-.4.3 0 .5.2.5.4z" fill="#1d2943"/></g></g><g><path d="m51.8 13.4c0 .1-.1.2-.2.2h-1.6c-.1 0-.2-.1-.2-.2s.1-.2.2-.2h1.7c.1 0 .1.1.1.2z" fill="#1d2943"/></g><g><path d="m55.6 13.4c0 .1-.1.2-.2.2h-1.7c-.1 0-.2-.1-.2-.2s.1-.2.2-.2h1.7c.1 0 .2.1.2.2z" fill="#1d2943"/></g></g></g></g></g></g><g><g><g><path d="m58.3 14c0 .8-.7 1.5-1.5 1.5v-3c.8 0 1.5.7 1.5 1.5z" fill="#fabdab"/></g></g><g><g><path d="m57.1 12.5v2.9c-.1 0-.2 0-.3 0v-3c.1.1.2.1.3.1z" fill="#ea8b82"/></g></g></g><g><g><g><path d="m47.2 14c0 .8.7 1.5 1.5 1.5v-3c-.8 0-1.5.7-1.5 1.5z" fill="#fabdab"/></g></g><g><g><path d="m48.4 12.5v2.9h.3v-3c-.1.1-.2.1-.3.1z" fill="#ea8b82"/></g></g></g></g><g><path d="m49.2 9.7c.2-.8.7-1.4 1.4-1.8s1.5-.6 2.3-.4c-.7.2-1.4.4-2 .8-.7.3-1.3.8-1.7 1.4z" fill="#fff"/></g></g><g><g><g><g><g><g><g><g><g><path d="m48.5 30.4c0 2.8-5.9 3.7-8.6 3.9-3.9.4-14.7 0-14.7-3.9 0-1.9.8-3.5 2-4.8.5-.5 1-.9 1.6-1.2.9-.5 2-.8 3.2-.8h.6 8.8.4c.4 0 .9 0 1.3.1.2 0 .4.1.6.2 2.8.9 4.8 3.5 4.8 6.5z" fill="#f34b58"/></g><g><g><path d="m32.5 23.7 1.1 4.4c.2.8 1 1 1.4.6l2-1.9-2.8-3.4z" fill="#e9e7fc"/></g><g><path d="m41.5 23.7-1.2 4.7c-.1.6-.9.8-1.3.4l-2-1.9 2.8-3.4z" fill="#e9e7fc"/></g></g></g></g></g></g></g><g><g><g><g><g><g><path d="m39.8 21.2v2.8c0 1.5-1.3 2.8-2.8 2.8s-2.8-1.3-2.8-2.8v-2.8z" fill="#fabdab"/></g><g><path d="m39.8 21.9v1.6c-4.5.2-5.6-1.4-5.6-1.4v-.3h5.6z" fill="#ea8b82"/></g><g><path d="m42.1 11.6v6.3c0 2.8-2.3 5.1-5.1 5.1s-5.1-2.3-5.1-5.1v-6.3z" fill="#fabdab"/></g><g><path d="m43.8 16.2c0 .9-.7 1.7-1.7 1.7v-3.3c.9-.1 1.7.6 1.7 1.6z" fill="#fabdab"/></g><g><path d="m42.5 14.5v3.3c-.1 0-.2 0-.4 0v-3.3z" fill="#ea8b82"/></g><g><path d="m30.2 16.2c0 .9.7 1.7 1.7 1.7v-3.3c-1-.1-1.7.6-1.7 1.6z" fill="#fabdab"/></g><g><path d="m31.5 14.5v3.3h.4v-3.3c-.2 0-.3 0-.4 0z" fill="#ea8b82"/></g></g><g><path d="m35.5 19.7c-.2 0-.3.2-.2.4.3.6.9 1 1.6 1s1.4-.4 1.6-1c.1-.2 0-.4-.2-.4z" fill="#fff"/></g><g><path d="m37.6 18c-.1.3-.4.5-.7.5s-.6-.2-.7-.5z" fill="#ea8b82"/></g><g><g><path d="m35.1 16.2c0 .3-.3.6-.6.6s-.6-.3-.6-.6.3-.6.6-.6c.3.1.6.3.6.6z" fill="#1d2943"/></g><g><path d="m39.8 16.2c0 .3-.3.6-.6.6s-.6-.3-.6-.6.3-.6.6-.6c.4.1.6.3.6.6z" fill="#1d2943"/></g></g><g><path d="m35.8 14.9c0 .1-.1.2-.2.2h-2.1c-.1 0-.2-.1-.2-.2s.1-.2.2-.2h2.1c.1 0 .2.1.2.2z" fill="#1d2943"/></g><g><path d="m40.6 14.9c0 .1-.1.2-.2.2h-2.1c-.1 0-.2-.1-.2-.2s.1-.2.2-.2h2.1c.1 0 .2.1.2.2z" fill="#1d2943"/></g></g></g><g><g><path d="m42.3 16.6c-.4-1.1-.8-2.9-1.2-4.9-3.3 1.3-7.1 1-9.2-.4-1.9-1.3-1.6-3.3-.1-4.3 1.9-1.4 5.5-1.6 8.1.5 0 0 3.4-1.3 2.2 2 2.2-.7 1.5 2.8.2 7.1z" fill="#1d2943"/></g><g><path d="m31.6 9.5c2.1-.7 1.4 2.8.1 7.1-.4-1.1-.8-2.9-1.2-4.9 0 0-.3-2.3 1.1-2.2z" fill="#1d2943"/></g></g></g></g></g></g><g><g><path d="m48.5 30.4c0-2.6-1.4-4.8-3.5-5.9-.8 2.7-4.2 8.9-19.6 6.6 1.9 4.7 23.1 4.4 23.1-.7z" fill="#e11226"/></g></g></g></g></g><g><path d="m47.4 29.5c.1 1-.5 1.9-1.3 2.5-1 .6-2.1.6-2.9.2 1-.1 1.8-.4 2.5-.8.6-.5 1.2-1.1 1.7-1.9z" fill="#fff"/></g><g><path d="m60.7 24c.1 1-.5 1.9-1.3 2.5-.4.3-.9.5-1.4.5s-1 0-1.5-.3c1-.1 1.8-.4 2.5-.8s1.2-1.1 1.7-1.9z" fill="#fff"/></g><g><path d="m15.3 24.7c-.1-.7.4-1.4 1-1.8.3-.2.7-.3 1.1-.4.4 0 .8 0 1.1.2-.7.1-1.3.3-1.8.6-.7.3-1.1.7-1.4 1.4z" fill="#fff"/></g></g></svg>