<svg id="Layer_3" height="512" viewBox="0 0 64 64" width="512" xmlns="http://www.w3.org/2000/svg" data-name="Layer 3"><path d="m6 54h42v9h-42z" fill="#f2b9a1"/><path d="m39 54h10v-5.761a12.2 12.2 0 0 0 -1.607-6.051 12.2 12.2 0 0 0 -5.679-5.114l-3.914-1.288-5.8-1.786v-3.339h-10v3.339l-5.8 1.786-3.91 1.288a12.2 12.2 0 0 0 -5.679 5.114 12.2 12.2 0 0 0 -1.611 6.051v5.761h10v9h24z" fill="#004c9d"/><path d="m47.393 42.188a12.2 12.2 0 0 0 -5.679-5.114l-3.914-1.288-5.8-1.786v-3.339h-7v3.339l-5.8 1.786-3.91 1.288a12.2 12.2 0 0 0 -5.679 5.114 12.2 12.2 0 0 0 -1.611 6.051v5.761h7v9h24v-9h10v-5.761a12.2 12.2 0 0 0 -1.607-6.051z" fill="#0059be"/><path d="m27 39a18.031 18.031 0 0 0 5-5v-3.339h-10v3.339a18.031 18.031 0 0 0 5 5z" fill="#d08d78"/><path d="m14.094 15a6.98 6.98 0 0 0 .115 2.837l.6 2.409h24.379l.124-.493a23.043 23.043 0 0 0 .662-4.753z" fill="#383838"/><path d="m17.094 15a6.98 6.98 0 0 0 .115 2.837l.6 2.409h21.379l.124-.493a23.043 23.043 0 0 0 .662-4.753z" fill="#4c4c4c"/><path d="m17.109 20h-1.109a3 3 0 0 0 -3 3 3 3 0 0 0 3 3h1.833" fill="#d08d78"/><path d="m30.664 13.891a5.3 5.3 0 0 1 2.942-.891 1.935 1.935 0 0 1 1.835 1.323l.61 1.831a18.468 18.468 0 0 1 .949 5.846 10 10 0 0 1 -10 10 10 10 0 0 1 -10-10 18.468 18.468 0 0 1 .949-5.846l.61-1.831a1.935 1.935 0 0 1 1.835-1.323 5.3 5.3 0 0 1 2.942.891 6.608 6.608 0 0 0 3.664 1.109 6.608 6.608 0 0 0 3.664-1.109z" fill="#d08d78"/><path d="m28 31.95a10 10 0 0 0 9-9.95 18.468 18.468 0 0 0 -.949-5.846l-.61-1.831a1.935 1.935 0 0 0 -1.835-1.323 5.3 5.3 0 0 0 -2.942.891 6.607 6.607 0 0 1 -7.328 0 5.277 5.277 0 0 0 -1.68-.725 1.917 1.917 0 0 0 -1.1 1.157l-.61 1.831a18.468 18.468 0 0 0 -.946 5.846 10 10 0 0 0 9 9.95z" fill="#f2b9a1"/><path d="m14 15 1.859 1.859a3.9 3.9 0 0 0 2.755 1.141 3.837 3.837 0 0 0 .764-.076l1.68-.336a30.326 30.326 0 0 1 5.942-.588 30.3 30.3 0 0 1 5.939.588l1.683.336a3.837 3.837 0 0 0 .764.076 3.9 3.9 0 0 0 2.755-1.141l1.859-1.859-.784-5.1a9.323 9.323 0 0 0 -9.216-7.9h-6a9.325 9.325 0 0 0 -9.216 7.906z" fill="#a5badb"/><path d="m17.784 9.906-.384 2.494a5.185 5.185 0 0 0 1.459 4.457 3.882 3.882 0 0 0 1.407.888l.792-.159a30.3 30.3 0 0 1 11.881 0l1.683.336a3.837 3.837 0 0 0 .764.076 3.9 3.9 0 0 0 2.755-1.141l1.859-1.857-.784-5.1a9.323 9.323 0 0 0 -9.216-7.9h-3a9.323 9.323 0 0 0 -9.216 7.906z" fill="#c1cfe8"/><path d="m36.891 20h1.109a3 3 0 0 1 3 3 3 3 0 0 1 -3 3h-1.833" fill="#d08d78"/><path d="m41 63-1.286-7.714-3.714-4.286h-21l-2 12z" fill="#c1cfe8"/><path d="m17.3 57.191-.967 5.809h24.667l-1.286-7.714-1.981-2.286h-15.484a5.017 5.017 0 0 0 -4.949 4.191z" fill="#d7e0ef"/><path d="m16 51-4-15 4-1 4 16" fill="#95afd1"/><path d="m31 13.034v-5.034h-8v5.034" fill="#0059be"/><path d="m26 39h2v12h-2z" fill="#004c9d"/><path d="m29.615 13h-5.23a27.968 27.968 0 0 0 -10.385 2l1.859 1.859a3.9 3.9 0 0 0 2.755 1.141 3.837 3.837 0 0 0 .764-.076l1.68-.336a30.3 30.3 0 0 1 11.881 0l1.683.336a3.837 3.837 0 0 0 .764.076 3.9 3.9 0 0 0 2.755-1.141l1.859-1.859a27.968 27.968 0 0 0 -10.385-2z" fill="#d7e0ef"/><path d="m32 34v-2.349a9.95 9.95 0 0 1 -7.633 1 1.065 1.065 0 0 0 -1.367 1.009 1.088 1.088 0 0 0 .192.622 18.06 18.06 0 0 0 4.308 4.348 18.025 18.025 0 0 0 4.5-4.63z" fill="#f2b9a1"/><path d="m32 34a18.031 18.031 0 0 1 -5 5l4 5 4.814-8.826" fill="#a5badb"/><path d="m22 34a18.031 18.031 0 0 0 5 5l-4 5-4.814-8.826" fill="#a5badb"/><path d="m38 51 4-15-4-1-4 16" fill="#95afd1"/><path d="m59 39a7 7 0 0 1 -7 7 6.807 6.807 0 0 1 -2.52-.48l-15.65 15.65a2.828 2.828 0 1 1 -4-4l15.65-15.65a6.807 6.807 0 0 1 -.48-2.52 7 7 0 0 1 7-7 6.871 6.871 0 0 1 1.77.23l-3.77 3.77 1 4 4 1 3.77-3.77a6.871 6.871 0 0 1 .23 1.77z" fill="#595959"/><path d="m55 41-4-1-21.17 21.17a2.825 2.825 0 0 0 4 0l15.65-15.65a6.807 6.807 0 0 0 2.52.48 7 7 0 0 0 7-7 6.871 6.871 0 0 0 -.23-1.77z" fill="#4c4c4c"/></svg>