<svg id="Capa_1" enable-background="new 0 0 512 512" height="512" viewBox="0 0 512 512" width="512" xmlns="http://www.w3.org/2000/svg"><g><path d="m462.54 128.15v63.92l-222.78 7.5-192.8 6.5c-17.65 0-31.96-28.31-31.96-45.96 0-8.83 3.58-16.81 9.36-22.6 5.78-5.78 13.78-9.36 22.6-9.36z" fill="#365c89"/><path d="m462.54 128.15v63.92l-222.78 7.5v-71.42z" fill="#1e486b"/><path d="m286.125 31.963h112.494v174.972h-112.494z" fill="#00cb70"/><path d="m302.66 0v206.93h-223.73v-206.93h55.43l15 15 15-15z" fill="#ffb900"/><path d="m239.76 0h62.9v206.93h-62.9z" fill="#fe8d00"/><path d="m224.76 59.95h30v30h-30z" fill="#4f72af"/><path d="m224.76 120.2h30v30h-30z" fill="#4f72af"/><path d="m239.76 59.95h15v30h-15z" fill="#365c89"/><path d="m239.76 120.2h15v30h-15z" fill="#365c89"/><path d="m134.356 0h30v206.934h-30z" fill="#4f72af"/><path d="m462.54 192.07v319.93h-415.58c-17.65 0-31.96-14.31-31.96-31.96v-319.93c0 17.65 14.31 31.96 31.96 31.96z" fill="#4f72af"/><path d="m239.76 192.07h222.78v319.93h-222.78z" fill="#365c89"/><path d="m497 287.963h-130.41l-31.897 63.925 31.897 63.925h130.41z" fill="#1e486b"/><path d="m375.419 331.375h30v30h-30z" fill="#365c89"/></g></svg>