<svg id="Layer_1" enable-background="new 0 0 511.995 511.995" height="512" viewBox="0 0 511.995 511.995" width="512" xmlns="http://www.w3.org/2000/svg"><g><g><g><g><path d="m461.533 451.546h-411.066c-23.73 0-42.967-19.237-42.967-42.967v-.03c0-23.73 19.237-42.967 42.967-42.967h411.067c23.73 0 42.967 19.237 42.967 42.967v.03c-.001 23.73-19.238 42.967-42.968 42.967z" fill="#ffe177"/></g><path d="m461.533 365.582h-40c23.73 0 42.967 19.237 42.967 42.967v.03c0 23.73-19.237 42.967-42.967 42.967h40c23.73 0 42.967-19.237 42.967-42.967v-.03c0-23.73-19.237-42.967-42.967-42.967z" fill="#ffd15b"/><g><g fill="#fea713"><path d="m100.82 365.582-48.36 85.964h71.744l48.36-85.964z"/><path d="m244.308 365.582-48.36 85.964h71.744l48.36-85.964z"/><path d="m387.796 365.582-48.36 85.964h71.744l48.36-85.964z"/></g><g><path d="m421.552 365.583c12.035.005 22.913 4.959 30.71 12.936l7.277-12.936z" fill="#fe9901"/></g></g></g></g><g><path d="m461.533 358.082h-411.066c-27.828 0-50.467 22.64-50.467 50.497 0 28.781 24.357 50.813 52.542 50.467h408.294c9.882-.292 9.939-14.688 0-15h-36.832l39.878-70.886c28.278 1.558 43.433 35.951 25.128 57.84-2.621 3.207-2.146 7.932 1.062 10.553 3.209 2.622 7.934 2.146 10.554-1.062 26.859-32.363 3.028-82.725-39.093-82.409zm-181.017 85.964 39.922-70.964h54.533l-39.922 70.964zm-71.744 0 39.922-70.964h54.533l-39.922 70.964zm-71.743 0 39.922-70.964h54.533l-39.922 70.964zm-122.029-35.497c0-19.557 15.91-35.467 35.467-35.467h37.529l-4.462 7.931c-2.031 3.61-.75 8.183 2.859 10.214 3.432 1.931 8.279.579 10.214-2.859l8.599-15.286h54.533l-39.922 70.964h-54.532l8.434-14.991c2.031-3.61.751-8.183-2.859-10.214-3.608-2.031-8.182-.75-10.214 2.859l-12.528 22.268c-18.466-1.213-33.118-16.622-33.118-35.419zm337.261 35.497 39.922-70.964h54.533l-39.922 70.964z"/><path d="m258.531 150.122c-4.076-5.95-13.688-2.975-13.688 4.238v57.462c0 9.385 15 9.813 15 0v-33.238l24.848 36.28c4.876 7.098 15.161 3.231 15.161-5.054l-.533-55.629c-.095-9.8-15.092-9.658-15 .144l.326 33.926z"/><path d="m219.648 219.322c4.142 0 7.5-3.358 7.5-7.5v-57.57c0-9.385-15-9.813-15 0v57.57c0 4.142 3.358 7.5 7.5 7.5z"/><path d="m357.05 125.515c4.143 0 7.5-3.358 7.5-7.5v-14.09l20.01 19.466c3.555 2.88 7.09 2.831 10.605-.146 2.889-2.969 2.822-7.717-.146-10.605l-25.25-24.563 23.093-21.403c3.037-2.816 3.218-7.561.402-10.599s-7.561-3.217-10.6-.403l-18.114 16.787v-12.014c-.302-9.904-14.693-9.92-15 0v57.57c0 4.142 3.357 7.5 7.5 7.5z"/><path d="m125.975 118.594c.07.356.166.707.287 1.05 1.246 3.537 4.606 5.898 8.349 5.87 3.746-.025 7.068-2.431 8.266-5.984.022-.065.043-.13.063-.195l10.199-33.224 10.153 33.231c.031.102.064.202.1.302 1.246 3.537 4.605 5.896 8.347 5.871 3.746-.025 7.068-2.429 8.267-5.982.104-.31.189-.625.252-.946l11.168-56.583c1.818-9.208-12.816-12.53-14.716-2.904l-6.334 32.091-10.063-32.937c-2.174-7.116-12.989-6.639-14.516.662l-9.909 32.28-6.315-32.195c-1.807-9.208-16.609-6.743-14.72 2.888z"/><path d="m295.571 125.515c4.143 0 7.5-3.358 7.5-7.5v-15.367l17.718 20.299c3.429 3.165 6.956 3.404 10.582.718 3.121-2.724 3.442-7.462.719-10.583l-14.222-16.294c24.861-8.236 19.302-43.349-7.106-43.843h-15.172c-4.149-.011-7.519 3.351-7.519 7.5v57.57c0 4.142 3.358 7.5 7.5 7.5zm15.191-57.57c10.809.462 10.803 14.464 0 14.923-1.787 0-4.766.012-7.608.026-.024-4.983-.026-9.966-.041-14.949z"/><path d="m237.549 125.515c19.877 0 36.048-16.277 36.048-36.285-1.816-48.071-70.287-48.059-72.095 0-.001 20.007 16.17 36.285 36.047 36.285zm0-57.57c11.606 0 21.048 9.548 21.048 21.285-1.061 28.2-41.038 28.193-42.095 0-.001-11.737 9.441-21.285 21.047-21.285z"/><path d="m374.081 256.085c9.916-.307 9.909-14.696 0-15h-23.838c-4.143 0-7.5 3.358-7.5 7.5v57.044c0 4.142 3.357 7.5 7.5 7.5h23.838c9.916-.307 9.909-14.696 0-15h-16.338v-13.522h14.58c9.916-.307 9.909-14.696 0-15h-14.58v-13.522z"/><path d="m238.465 313.129c18.926 0 32.144-14.921 32.144-36.285 0-4.142-3.357-7.5-7.5-7.5h-17.08c-9.916.307-9.909 14.696 0 15h8.673c-5.341 23.24-37.495 14.558-37.284-7.5-.309-16.658 19.213-27.256 32.786-17.67 3.422 2.332 8.089 1.447 10.421-1.977 2.332-3.423 1.447-8.089-1.977-10.421-23.403-16.371-56.6 1.466-56.23 30.068 0 20.008 16.171 36.285 36.047 36.285z"/><path d="m422.11 298.129c-5.562 0-10.915-2.261-14.318-6.047-2.769-3.08-7.51-3.335-10.592-.564-3.081 2.769-3.333 7.511-.564 10.591 6.203 6.9 15.727 11.02 25.475 11.02 27.169 0 32.762-33.492 7.572-42.861-6.948-2.584-13.421-5.396-15.476-6.303-3.29-2.737.032-6.909 3.05-7.825 7.827-2.375 15.124 3.419 15.339 3.593 3.16 2.641 7.863 2.24 10.53-.907 2.678-3.16 2.287-7.892-.872-10.57-.546-.462-13.542-11.272-29.356-6.469-14.58 4.428-21.961 28.157-5.517 35.559.331.149 8.205 3.683 17.073 6.981 9.071 3.375 9.023 13.802-2.344 13.802z"/><path d="m471.549 276.774c.331.218.68.41 1.042.573.331.149 8.205 3.683 17.072 6.981 9.07 3.374 9.024 13.801-2.343 13.801-5.562 0-10.915-2.261-14.318-6.047-2.769-3.08-7.508-3.335-10.592-.565-3.08 2.769-3.333 7.511-.564 10.591 6.201 6.901 15.725 11.021 25.475 11.021 27.169 0 32.76-33.492 7.571-42.861-6.948-2.584-13.421-5.397-15.476-6.303-3.289-2.738.032-6.909 3.051-7.825 7.822-2.375 15.104 3.406 15.337 3.592 3.16 2.642 7.864 2.241 10.531-.906 2.678-3.16 2.287-7.892-.872-10.57-.546-.463-13.542-11.273-29.355-6.469-15.281 4.641-20.878 25.577-6.559 34.987z"/><path d="m329.61 263.021c0-12.386-10.397-22.462-23.178-22.462h-15.172c-4.149-.011-7.519 3.351-7.519 7.5v57.57c.298 9.893 14.69 9.93 15 0v-15.366l17.718 20.298c3.429 3.165 6.956 3.404 10.582.718 3.121-2.724 3.442-7.462.719-10.583l-14.222-16.294c9.316-2.913 16.072-11.396 16.072-21.381zm-23.177 7.462c-1.804 0-4.823.012-7.69.026v-14.95h7.69c10.81.462 10.801 14.466 0 14.924z"/><path d="m106.327 263.021c0-12.386-10.398-22.462-23.178-22.462h-15.172c-4.148-.011-7.519 3.351-7.519 7.5v57.57c.298 9.893 14.689 9.93 15 0v-15.366l17.718 20.299c3.429 3.165 6.956 3.404 10.583.718 3.121-2.724 3.442-7.462.718-10.583l-14.223-16.294c9.316-2.914 16.073-11.397 16.073-21.382zm-23.178 7.462c-1.787 0-4.766.012-7.608.025-.024-4.983-.028-9.966-.041-14.949h7.649c10.808.461 10.804 14.466 0 14.924z"/><path d="m7.5 313.129c4.142 0 7.5-3.358 7.5-7.5v-17.547c3.099-.016 6.437-.03 8.397-.03 31.704-1.197 31.689-46.303 0-47.493h-15.897c-4.142 0-7.5 3.358-7.5 7.5v57.57c0 4.142 3.358 7.5 7.5 7.5zm24.825-48.823c0 4.741-4.088 8.746-8.928 8.746-1.962 0-5.294.014-8.397.03v-17.522h8.397c4.84-.001 8.928 4.005 8.928 8.746z"/><path d="m153.238 240.559c-19.876 0-36.047 16.277-36.047 36.285 1.816 48.072 70.286 48.059 72.095 0-.001-20.007-16.172-36.285-36.048-36.285zm0 57.57c-11.605 0-21.047-9.548-21.047-21.285 1.062-28.2 41.037-28.193 42.095 0-.001 11.737-9.443 21.285-21.048 21.285z"/><path d="m321.77 183.037c0 4.142 3.357 7.5 7.5 7.5h131.334c9.916-.307 9.909-14.696 0-15h-131.334c-4.143 0-7.5 3.358-7.5 7.5z"/><path d="m51.396 190.537h131.334c9.916-.307 9.909-14.696 0-15h-131.334c-9.916.307-9.909 14.696 0 15z"/></g></g></svg>