<svg id="Layer_1" enable-background="new 0 0 511.995 511.995" height="512" viewBox="0 0 511.995 511.995" width="512" xmlns="http://www.w3.org/2000/svg"><g><g><g><path d="m461.533 455.301h-411.066c-23.73 0-42.967-19.237-42.967-42.967v-.03c0-23.73 19.237-42.967 42.967-42.967h411.067c23.73 0 42.967 19.237 42.967 42.967v.03c-.001 23.73-19.238 42.967-42.968 42.967z" fill="#ffe177"/></g><path d="m461.533 369.336h-40c23.73 0 42.967 19.237 42.967 42.967v.03c0 23.73-19.237 42.967-42.967 42.967h40c23.73 0 42.967-19.237 42.967-42.967v-.03c0-23.729-19.237-42.967-42.967-42.967z" fill="#ffd15b"/><g><g fill="#fea713"><path d="m100.82 369.337-48.36 85.964h71.744l48.36-85.964z"/><path d="m244.308 369.337-48.36 85.964h71.744l48.36-85.964z"/><path d="m387.796 369.337-48.36 85.964h71.744l48.36-85.964z"/></g><g><path d="m421.552 369.337c12.035.005 22.913 4.959 30.71 12.936l7.277-12.936z" fill="#fe9901"/></g></g></g><g><g fill="#fea713"><path d="m258.531 153.874c-1.858-2.712-5.264-3.897-8.406-2.927-3.141.973-5.282 3.877-5.282 7.165v57.463c0 4.142 3.358 7.5 7.5 7.5s7.5-3.358 7.5-7.5v-33.239l24.848 36.28c2.183 3.177 5.84 4.533 9.319 3.453 3.549-1.102 5.842-4.413 5.842-8.507l-.533-55.63c-.04-4.118-3.39-7.428-7.499-7.428-.023 0-.049 0-.073 0-4.142.04-7.467 3.43-7.428 7.571l.326 33.926z"/><path d="m212.148 158.004v57.57c0 4.142 3.358 7.5 7.5 7.5s7.5-3.358 7.5-7.5v-57.57c0-4.142-3.358-7.5-7.5-7.5s-7.5 3.358-7.5 7.5z"/><path d="m395.165 126.996c2.889-2.969 2.822-7.717-.146-10.606l-25.25-24.564 23.093-21.403c3.037-2.816 3.218-7.561.402-10.599s-7.561-3.217-10.6-.403l-18.114 16.789v-12.014c0-4.142-3.357-7.5-7.5-7.5s-7.5 3.358-7.5 7.5v57.57c0 4.142 3.357 7.5 7.5 7.5s7.5-3.358 7.5-7.5v-14.09l20.01 19.466c1.457 1.418 3.344 2.124 5.229 2.124 1.953 0 3.905-.759 5.376-2.27z"/><path d="m185.518 56.944c-4.058-.801-8.008 1.841-8.81 5.906l-6.334 32.092-10.063-32.937c-1.21-3.961-5.402-6.191-9.364-4.981-2.711.828-4.61 3.053-5.152 5.644l-9.909 32.281-6.315-32.195c-.797-4.064-4.739-6.709-8.804-5.916-4.064.797-6.713 4.739-5.916 8.804l11.124 56.706c.07.356.166.707.287 1.05 1.24 3.518 4.565 5.871 8.288 5.871h.061c3.746-.025 7.068-2.431 8.266-5.984.022-.065.043-.13.063-.195l10.199-33.224 10.153 33.231c.031.102.064.202.1.302 1.24 3.518 4.565 5.871 8.287 5.871h.06c3.746-.025 7.068-2.429 8.267-5.982.104-.31.189-.625.252-.946l11.168-56.584c.8-4.068-1.844-8.012-5.908-8.814z"/><path d="m317.867 100.54c9.315-2.914 16.072-11.398 16.072-21.382 0-12.386-10.397-22.462-23.178-22.462h-15.171c-.003 0-.006 0-.009 0s-.006 0-.009 0c-4.143 0-7.5 3.358-7.5 7.5v57.57c0 4.142 3.357 7.5 7.5 7.5s7.5-3.358 7.5-7.5v-15.367l17.718 20.299c1.483 1.699 3.562 2.568 5.653 2.568 1.75 0 3.508-.609 4.929-1.85 3.121-2.724 3.442-7.462.719-10.583zm-7.105-28.844c4.433 0 8.178 3.417 8.178 7.462 0 4.044-3.745 7.461-8.178 7.461-1.787 0-4.766.012-7.608.026-.014-2.809-.025-5.739-.025-7.487 0-1.489-.007-4.516-.016-7.462z"/><path d="m237.549 129.266c19.877 0 36.048-16.278 36.048-36.286s-16.171-36.285-36.048-36.285c-19.876 0-36.047 16.278-36.047 36.285-.001 20.009 16.17 36.286 36.047 36.286zm0-57.57c11.606 0 21.048 9.548 21.048 21.285s-9.442 21.285-21.048 21.285c-11.605 0-21.047-9.548-21.047-21.285-.001-11.737 9.441-21.285 21.047-21.285z"/><path d="m374.081 259.838c4.143 0 7.5-3.358 7.5-7.5s-3.357-7.5-7.5-7.5h-23.838c-4.143 0-7.5 3.358-7.5 7.5v57.045c0 4.142 3.357 7.5 7.5 7.5h23.838c4.143 0 7.5-3.358 7.5-7.5s-3.357-7.5-7.5-7.5h-16.338v-13.522h14.58c4.143 0 7.5-3.358 7.5-7.5s-3.357-7.5-7.5-7.5h-14.58v-13.522h16.338z"/><path d="m263.109 273.098h-17.08c-4.142 0-7.5 3.358-7.5 7.5s3.358 7.5 7.5 7.5h8.673c-1.862 7.354-6.76 13.785-16.237 13.785-11.605 0-21.047-9.548-21.047-21.285s9.442-21.285 21.047-21.285c4.208 0 8.267 1.25 11.739 3.615 3.422 2.332 8.089 1.447 10.421-1.977 2.332-3.423 1.447-8.089-1.977-10.421-5.971-4.067-12.951-6.217-20.183-6.217-19.876 0-36.047 16.277-36.047 36.286 0 20.008 16.171 36.285 36.047 36.285 18.926 0 32.144-14.921 32.144-36.285 0-4.143-3.357-7.501-7.5-7.501z"/><path d="m429.683 274.022c-6.948-2.584-13.421-5.397-15.476-6.303-1.403-1.167-1.349-2.792-1.251-3.473.139-.958.835-3.3 4.301-4.353 7.827-2.375 15.124 3.419 15.339 3.593 3.16 2.641 7.863 2.24 10.53-.907 2.678-3.16 2.287-7.892-.872-10.57-.546-.462-13.542-11.273-29.356-6.469-7.997 2.429-13.663 8.775-14.787 16.563-1.059 7.332 2.095 14.392 8.228 18.424.332.218.681.41 1.043.573.331.149 8.205 3.683 17.073 6.981 2.43.904 8.003 3.447 7.269 7.529-.555 3.083-4.302 6.273-9.612 6.273-5.562 0-10.915-2.261-14.318-6.047-2.769-3.08-7.51-3.335-10.592-.564-3.081 2.769-3.333 7.511-.564 10.591 6.203 6.9 15.727 11.02 25.475 11.02 12.183 0 22.435-7.829 24.375-18.616 1.465-8.154-2.178-18.805-16.805-24.245z"/><path d="m494.892 274.022c-6.948-2.584-13.421-5.397-15.476-6.303-1.402-1.167-1.349-2.792-1.25-3.473.138-.958.834-3.3 4.301-4.353 7.822-2.375 15.104 3.406 15.337 3.592 3.16 2.642 7.864 2.241 10.531-.906 2.678-3.16 2.287-7.892-.872-10.57-.546-.463-13.542-11.274-29.355-6.469-7.998 2.429-13.664 8.775-14.788 16.563-1.058 7.333 2.095 14.392 8.229 18.424.331.218.68.41 1.042.573.331.149 8.205 3.683 17.072 6.981 2.43.904 8.003 3.447 7.269 7.529-.555 3.084-4.302 6.273-9.611 6.273-5.562 0-10.915-2.261-14.318-6.047-2.769-3.08-7.508-3.335-10.592-.565-3.08 2.769-3.333 7.511-.564 10.591 6.201 6.901 15.725 11.021 25.475 11.021 12.183 0 22.434-7.829 24.374-18.616 1.466-8.154-2.177-18.805-16.804-24.245z"/><path d="m313.539 288.157c9.315-2.914 16.072-11.398 16.072-21.382 0-12.386-10.397-22.462-23.178-22.462h-15.172c-.003 0-.006 0-.009 0s-.006 0-.009 0c-4.143 0-7.5 3.358-7.5 7.5v57.57c0 4.142 3.357 7.5 7.5 7.5s7.5-3.358 7.5-7.5v-15.366l17.718 20.299c1.483 1.699 3.562 2.568 5.653 2.568 1.75 0 3.508-.609 4.929-1.85 3.121-2.724 3.442-7.462.719-10.583zm1.071-21.383c0 4.045-3.745 7.462-8.178 7.462-1.804 0-4.823.012-7.69.026v-14.95h7.69c4.433 0 8.178 3.417 8.178 7.462z"/><path d="m90.255 288.157c9.315-2.914 16.072-11.398 16.072-21.382 0-12.386-10.398-22.462-23.178-22.462h-15.172c-.003 0-.006 0-.009 0s-.006 0-.009 0c-4.142 0-7.5 3.358-7.5 7.5v57.57c0 4.142 3.358 7.5 7.5 7.5s7.5-3.358 7.5-7.5v-15.367l17.718 20.299c1.483 1.699 3.562 2.568 5.653 2.568 1.75 0 3.507-.609 4.929-1.85 3.121-2.724 3.442-7.462.718-10.583zm-7.106-28.845c4.433 0 8.178 3.417 8.178 7.462s-3.745 7.462-8.178 7.462c-1.787 0-4.766.012-7.608.025-.014-2.808-.026-5.739-.026-7.487 0-1.489-.007-4.516-.015-7.462z"/><path d="m23.397 244.312h-15.897c-4.142 0-7.5 3.358-7.5 7.5v57.57c0 4.142 3.358 7.5 7.5 7.5s7.5-3.358 7.5-7.5v-17.547c3.099-.016 6.437-.03 8.397-.03 13.194 0 23.928-10.652 23.928-23.746s-10.734-23.747-23.928-23.747zm0 32.493c-1.962 0-5.294.014-8.397.03v-17.523h8.397c4.839 0 8.928 4.005 8.928 8.747 0 4.741-4.088 8.746-8.928 8.746z"/><path d="m153.238 244.312c-19.876 0-36.047 16.277-36.047 36.286 0 20.008 16.171 36.285 36.047 36.285s36.047-16.277 36.047-36.285-16.171-36.286-36.047-36.286zm0 57.571c-11.605 0-21.047-9.548-21.047-21.285s9.442-21.285 21.047-21.285 21.047 9.548 21.047 21.285c0 11.736-9.442 21.285-21.047 21.285z"/></g><g fill="#ffe177"><path d="m460.604 194.289h-131.334c-4.143 0-7.5-3.358-7.5-7.5s3.357-7.5 7.5-7.5h131.334c4.143 0 7.5 3.358 7.5 7.5s-3.358 7.5-7.5 7.5z"/><path d="m182.73 194.289h-131.334c-4.142 0-7.5-3.358-7.5-7.5s3.358-7.5 7.5-7.5h131.334c4.142 0 7.5 3.358 7.5 7.5s-3.358 7.5-7.5 7.5z"/></g></g></g></svg>