<svg id="Layer_1" enable-background="new 0 0 51 51" height="512" viewBox="0 0 51 51" width="512" xmlns="http://www.w3.org/2000/svg"><g id="_x32_"><g><g><g><g><path d="m20.6573296 6.1982789-.0300293 12.5100098c0 .0999756-.0700073.1999512-.2000122.2799683l-1.7199707 1c-.2700195.1500244-.7000122.1500244-.9699707 0l-1.7300415-1c-.1300058-.0800171-.2000132-.1799927-.2000132-.289978l.0400391-12.5c0-.1000366.0599976-.210022.2000132-.2800293l1.7199707-1c.2600098-.1599731.7000122-.1599731.9700317 0l1.7199707 1c.1400146.0700072.2100219.1799926.2000122.2800292z" fill="#febc1f"/><g enable-background="new"><g><g><path d="m20.6618214 6.1937742-.0384102 12.5126524c0 .1008625-.0672626.2017555-.1969776.2786045l-1.7198048.9992199c-.2690163.1537285-.7013512.1537285-.9703674 0l-1.7246132-.9992199c-.1393032-.076849-.2065639-.177742-.2065639-.2834148l.0432472-12.5078421c0 .1008925.0672331.2065644.2017555.2834435l1.729393.994411c.2642078.153728.6965714.153728.9655895 0l1.7198048-.9992199c.129713-.0768495.1969471-.177742.1969471-.2786346z" fill="#febc1f"/></g></g><g><g><path d="m20.4616489 5.913403c.2668362.154058.2682629.4055114.0031509.5595779l-1.7186127.9987488c-.2681503.1558318-.7022629.155828-.969099.0017695l-1.7267876-.9969611c-.2699145-.1558351-.2713298-.4072827-.0031795-.5631146l1.7186127-.9987488c.2651119-.1540666.699213-.1540685.9691277.0017672z" fill="#ffd06c"/></g></g></g><path d="m16.3672905 4.8482423v.0100097l-.0499878 16.3500366c0 .0999756-.0599976.1999512-.1900024.2799683l-1.7199717.9899902c-.2700195.1600342-.7000122.1600342-.9700317 0l-1.7299805-.9899902c-.1300049-.0800171-.2000122-.1799927-.2000122-.2799683l.0400391-16.3600464c0-.0999756.0699463-.1999512.1999512-.2799683l1.7200317-.9999998c.2600098-.1500244.7000122-.1500244.9699707 0l1.7200327.9999998c.1400146.0800172.2099609.1799928.2099609.2799684z" fill="#df3260"/><g enable-background="new"><g><g><path d="m16.3646221 4.8491406-.0432472 16.3557434c0 .100893-.0672321.2017841-.1969471.278635l-1.7198048.999218c-.2690172.1537285-.7013512.1537285-.9655886 0l-1.729393-.9944096c-.1345234-.0816593-.2017555-.1825504-.2017555-.2834435l.0384102-16.3557434c0 .1008921.0672617.2065639.2017851.283443l1.7293921.994411c.2642088.1585073.7013807.1585073.9703979 0l1.7149954-.9992199c.1344948-.0768784.2017555-.1777419.2017555-.278634z" fill="#df3260"/></g></g><g><g><path d="m16.1615429 4.5692315c.2668362.154058.268261.4055119.003149.5595784l-1.7186127.9987483c-.2681503.1558318-.7022619.155828-.9690981.00177l-1.7267876-.9969616c-.2699145-.1558351-.2713298-.4072828-.0031795-.5631146l1.7186127-.9987485c.2651119-.1540666.699213-.1540685.9691277.0017669z" fill="#f45170"/></g></g></g><g><path d="m11.6010427 12.4205647-.0392981 11.5531311c0 .0982304-.0687637.2013741-.2013741.2799397l-1.7189074.9969501c-.265192.1522751-.6973763.1522751-.9674845 0l-1.7238221-.992033c-.1424131-.0834827-.2062607-.1866264-.2062607-.2848568l.0392978-11.5432988c0 .0048857.0048862.0048857.0048862.0098019-.0098019-.1080313.0540457-.2160921.1964583-.2995739l1.7189064-.9969501c.265192-.1571608.6973772-.1571608.967515 0l1.7287083.9969501c.1326113.0785952.201375.1817102.1964588.2848558z" fill="#9bd899"/></g><path d="m12.0673018 12.1482916-.039978 11.5599966c0 .0999756-.0700073.1999512-.2000122.2699585l-1.7199707 1c-.2700195.1600342-.7000122.1600342-.9700317 0l-1.7199702-.9899902c-.1400146-.0800171-.210022-.1799927-.210022-.2799683l.039978-11.5500479c0 .0100098.0100098.0100098.0100098.0100098-.0100098-.0999756.0499878-.2099609.1900024-.2999878l1.7200313-.9899902c.2599487-.1600342.6999512-.1600342.9699707 0l1.7200317.9899902c.1399535.0800171.1999511.1799927.2099609.2800293z" fill="#72d561"/><g enable-background="new"><g><g><path d="m12.0626163 12.1515284-.0384398 11.5518408c0 .100893-.0672617.201786-.2017555.278635l-1.7149963.9992199c-.2690172.1537285-.7013798.1537285-.970397 0l-1.7245841-.9944115c-.1393318-.0816574-.2065639-.1825504-.2065639-.2834435l.0432186-11.5422239c0 .096055.0720701.2017555.2017555.273797l1.7246137.9992189c.2690172.1537285.7013798.1537285.970397-.0048084l1.7197752-.9991903c.129715-.0768785.1969766-.1777715.1969766-.278634z" fill="#72d561"/></g></g><g><g><path d="m11.8614349 11.8720818c.2668362.1540585.2682619.4055119.00315.5595779l-1.7186127.9987488c-.2681503.1558313-.7022829.1558399-.9691191.0017815l-1.7267876-.9969606c-.2699146-.1558361-.2713094-.4072952-.003159-.5631275l1.7186122-.9987478c.2651129-.154067.699214-.1540689.9691286.0017662z" fill="#78e75a"/></g></g></g><g enable-background="new"><g><g><path d="m7.7605104 9.8471203-.039298 16.3562317c0 .0982304-.0638475.201376-.2013445.2750244l-1.7140203 1.0018959c-.2701082.1522446-.7022929.1522446-.9724007 0l-1.7238226-.9969788c-.132581-.0785656-.2013445-.1817112-.2013445-.2799416l.0392977-16.3562316c0-.0982285.0638175-.2013741.2013445-.2799397l1.7139907-.9969797c.2652221-.1571312.7022924-.1571312.9724007 0l1.7238226.9969797c.1375269.07368.2013744.176795.2013744.2799397z" fill="#638dff"/></g></g></g><path d="m7.7573047 9.8482428-.039978 16.3500366c0 .0999756-.0599976.2099609-.2000122.2799683l-1.710022 1c-.2699585.1600342-.6999512.1600342-.9699707 0l-1.7299807-.9899902c-.1300049-.0800171-.2000122-.1900024-.2000122-.289978l.039978-16.3500366c0-.0999756.0700073-.1999512.2000122-.2799683l1.7199709-1c.2600098-.1500244.7000122-.1500244.9700317 0l1.7199707 1c.1400147.080017.210022.1799926.2000123.2799682z" fill="#dedffb"/><g enable-background="new"><g><g><path d="m7.7606096 9.8461142-.0384392 16.3557424c0 .100893-.0672617.2017555-.2017555.278635l-1.7149964.9991894c-.2690172.1537285-.7013798.1537285-.9703975 0l-1.7245839-.994381c-.1345232-.0816879-.2017848-.1825504-.2017848-.2834435l.0384395-16.3557423c0 .1008625.0672615.2065639.2017555.2834139l1.7294219.9992189c.2642088.1537285.7013507.1537285.9655595-.0048084l1.7198048-.9944105c.1297144-.07685.1969761-.1777421.1969761-.2834139z" fill="#dedffb"/></g></g><g><g><path d="m7.5613279 9.5671301c.2668362.1540585.2682619.4055119.0001116.5613432l-1.7155747.9969835c-.2681503.1558313-.7022824.1558399-.9691186.0017815l-1.7267876-.9969606c-.2699149-.1558362-.2713096-.4072953-.0031593-.5631276l1.715575-.9969826c.2681503-.1558323.702251-.1558342.9721661.000001z" fill="#f3f1fc"/></g></g></g></g></g><g><g><g><g><path d="m46.2745323 34.2775841v2.2778664l-19.1323376 11.1121177-19.1322822-11.0428657-3.3518314-6.3745385c-.0866423-.1558933-.034678-.3550816.1212149-.4417248l1.3771343-.8054733 2.7368755 5.8548946 18.2575607 10.5318413z" fill="#dedffb"/></g></g><g><g><g><path d="m6.1538496 28.9989319-1.3715105.8132076c-.1550865.0861168-.2095013.2826195-.1208048.436245l3.3455629 6.3724194 19.1389027 11.0498505.0028553-2.2773018c1.1333313-7.8015213-6.8443298-10.1890793-18.2525368-10.5380821z" fill="#e9e7fc"/></g></g><g><g><path d="m28.022789 23.741787-19.1267309 11.1142883-2.9953785-5.1911907c-.1290207-.2192516-.0548282-.4997673.164444-.6287289l18.2819566-10.6241837c.2482796-.1418705.5642567-.0580349.70611.1902256z" fill="#dedffb"/></g><g><path d="m27.6326561 23.9674931-18.3431988 10.6596469-2.6768436-4.6311932c-.1778722-.3077354-.0731945-.7013779.2340417-.8801117l17.2250023-10.0206699c.3085327-.1794891.7041798-.0742054.8826962.2348919z" fill="#1d2943"/></g><g><path d="m7.5175471 30.589407c-.0440826-.0766735-.0179477-.1753864.058567-.2199421l17.2249952-10.0209389c.0251904-.0144844.052269-.021883.0806084-.021883.058567 0 .110836.0302277.1401196.0807648l2.0026875 3.4704437-17.507125 10.1738109z" fill="#57b3fe"/></g><g><path d="m10.6018276 28.212038-3.4085188 1.9315911-.3452973-.6256523 3.4085183-1.9315892z" fill="#fff"/></g></g><g><g><path d="m27.1488552 45.3933525c6.8607197-1.8588219 13.3184109-5.2493515 19.1249371-11.1141815l-18.2524968-10.5381146-19.1249504 11.1142064z" fill="#f3f1fc"/></g></g><g><g><path d="m27.1459999 47.6706543 19.1249504-11.1142082.0028458-2.2773018-19.1249485 11.1142044z" fill="#dedffb"/></g></g><g><g><g><path d="m18.6917534 30.5287304 1.8959103-1.0995083c.1548004-.090271.4062691-.090271.5642586 0l1.5541115.8963737c.1547604.090271.1579876.2353706 0 .3256607l-1.8958721 1.1027164c-.1547604.090271-.4062691.090271-.5610294 0l-1.5541515-.8963737c-.1579897-.0902709-.1579897-.2385978-.0032274-.3288688z" fill="#9ea9c9"/></g><g><path d="m29.7576885 30.5448475-1.8991776 1.1027164c-.1515331.090292-.4030418.090292-.5610294 0l-1.5541115-.8995819c-.1579895-.0902901-.1612167-.2353897-.0064163-.3256607l1.8990974-1.1027164c.1547623-.0902901.4062691-.0870628.5642586.0032082l1.5541515.8963737c.1579896.090292.1579896.2353706.0032273.3256607z" fill="#9ea9c9"/></g><g><path d="m29.2708111 42.7940865-1.8991375 1.1027184c-.1548004.0902901-.4062691.0902901-.5642586 0l-4.9977169-2.8857841c-.1548004-.090271-.1580296-.2353668-.0032272-.3256378l1.8991375-1.1059456c.1547604-.0870628.4062691-.0870628.5610294.0032082l4.9977188 2.8857803c.1579876.0902937.1579876.2353705.0064545.3256606z" fill="#f45170"/></g><g><path d="m36.4804153 38.6024551-1.8959084 1.1027145c-.1579895.0902939-.4062691.0902939-.5642586 0l-1.5541496-.8963547c-.1547623-.0902901-.1612167-.2385941-.0064583-.3288879l1.8959503-1.1027145c.1579895-.0902901.4127235-.0870628.5642586.0032272l1.5541115.8963547c.1612168.0902901.1612168.2353707.0064545.3256607z" fill="#9ea9c9"/></g><g><path d="m30.741087 33.6337662-1.5573387-.8963737c-.1547623-.090271-.1579895-.2353706-.0032291-.3256607l1.8991375-1.1027184c.1547623-.0902901.4062309-.0902901.5610313 0l1.5573406.8995819c.1547585.0902901.1579895.2353897 0 .3256607l-1.8958721 1.1027184c-.1548005.0870628-.4062691.0870628-.5610695-.0032082z" fill="#9ea9c9"/></g><g><path d="m20.9874763 33.5112381 1.5541115.8995819c.1579895.0902901.1579895.2353706.0032291.3256607l-1.8958702 1.1027184c-.1547623.0902901-.406271.0902901-.5642586-.0032272l-1.5541515-.8963547c-.1547623-.0902901-.1579895-.2353897-.0032272-.3256607l1.8959103-1.1027184c.1548004-.0902901.4062691-.0902901.5642566 0z" fill="#9ea9c9"/></g><g><path d="m34.1814651 35.6231728-1.5541496-.899601c-.1547623-.090271-.1579895-.2353706-.003231-.3256416l1.8959503-1.1027374c.1547623-.090271.4094963-.0870438.5642586.0032272l1.5541115.8963776c.1579895.090271.1612167.2353668.0032272.3256607l-1.8959084 1.1027145c-.1547622.090271-.4030418.090271-.5642586 0z" fill="#9ea9c9"/></g><g><path d="m24.5923004 31.4154224 1.5541115.89958c.1580276.0902939.1612167.2353706.0032272.3256607l-1.8959103 1.1027184c-.1547623.0902901-.4030418.0902901-.5642586-.0032272l-1.5541515-.8963547c-.1547604-.0902901-.1579876-.2353897-.0031872-.3256607l1.8959103-1.1027164c.1547604-.090292.4094963-.090292.5642586-.0000001z" fill="#9ea9c9"/></g><g><path d="m32.8723679 40.6982727-1.8958721 1.1027145c-.1548004.0902901-.4030418.0902901-.5642586 0l-1.5541496-.8995819c-.1547623-.0870628-.1579895-.2353706-.0032291-.3256607l1.8959103-1.1027145c.1547623-.0902939.4094963-.0870667.5642586.0032272l1.5541134.8963547c.1579855.0902901.1612127.2353668.0032271.3256607z" fill="#9ea9c9"/></g><g><path d="m30.5766811 37.7157631-1.5541496-.8963737c-.1547623-.090271-.1579895-.2353706-.0032291-.3256416l1.8959103-1.1027374c.1547623-.090271.4062691-.090271.5642586 0l1.5541134.899601c.1579857.090271.1579857.2353706.0032272.3256607l-1.8958721 1.1027184c-.1548005.0902708-.4062692.0902708-.5642587-.0032274z" fill="#9ea9c9"/></g><g><path d="m40.0852394 36.5098648-1.8991776 1.1027184c-.151535.0870628-.4030418.0870628-.5610313-.0032272l-1.5541115-.8963547c-.1547623-.0902939-.1579895-.2385979-.0064545-.3256607l1.8991356-1.1027184c.1547623-.0902901.4094963-.0902901.5642586 0l1.5541534.8963547c.1579896.0935173.1579896.2385978.0032273.3288879z" fill="#9ea9c9"/></g><g><path d="m25.4145203 38.5895653 1.8958702-1.1027374c.1547623-.090271.4062691-.090271.5642586 0l1.5541515.899601c.1579895.090271.1579895.2353706.0032272.3256607l-1.8959503 1.1027184c-.1547604.090271-.406229.090271-.5642567-.0032272l-1.5540733-.8963737c-.1580277-.0902712-.1612167-.2353708-.0032272-.3256418z" fill="#9ea9c9"/></g><g><path d="m18.940033 36.8322983-1.8959103 1.1027184c-.1547604.0902901-.4062691.0902901-.5642567-.0032272l-1.5541124-.8963547c-.1579895-.0902939-.1612167-.2353897-.0032272-.3256607l1.8958693-1.1027184c.1548023-.0902901.406271-.0902901.5642586 0l1.5541515.8995819c.1579894.09029.1579894.2353706.0032272.3256607z" fill="#9ea9c9"/></g><g><path d="m32.7853012 30.3159142 1.8991776-1.1027184c.1547623-.0902901.4062691-.0902901.5610313 0l1.5573387.8995819c.1579895.090292.1579895.2353897.0031891.3256626l-1.8990974 1.1027164c-.1547623.0870628-.4030418.0870628-.5610313-.0032082l-1.5541496-.8963737c-.1547624-.0902709-.1579896-.2353706-.0064584-.3256606z" fill="#9ea9c9"/></g><g><path d="m21.9709148 36.6001358 1.8959103-1.0994873c.1547604-.0902939.4094963-.0902939.5610294 0l1.5573406.8963547c.1580276.0902901.1580276.2353897.0032272.3256607l-1.8959103 1.1027336c-.1579895.090271-.4062691.090271-.5642586 0l-1.5541515-.899601c-.1547602-.0870438-.1579875-.2353706-.0031871-.3256607z" fill="#9ea9c9"/></g><g><path d="m29.3417358 28.3265057 1.8991375-1.1027164c.1547623-.090292.4062309-.0870647.5642586.0032063l1.5541134.8963757c.1579895.0902901.1579895.2353687.0032272.3256607l-1.8990993 1.1027164c-.1515732.0902901-.4030418.0902901-.5610695 0l-1.5541115-.8995819c-.1547623-.0902921-.1579895-.2353898-.0064564-.3256608z" fill="#9ea9c9"/></g><g><path d="m43.6900215 34.4140472-1.8959084 1.1027184c-.1547623.0870628-.4062691.0870628-.5642586-.0032272l-1.5541115-.8963547c-.1547623-.0902901-.1579895-.2385979-.0064583-.3256607l1.8991013-1.1027184c.1547585-.0902901.4094963-.0902901.5642586 0l1.5541496.8963547c.1579896.0935173.1579896.2385979.0032273.3288879z" fill="#9ea9c9"/></g><g><path d="m22.3803711 38.8184776-1.8958702 1.1027374c-.1547604.090271-.4030418.090271-.5610294 0l-1.5573788-.899601c-.1547623-.0870438-.1547623-.2353706 0-.3256607l1.8959103-1.0994911c.1548004-.0902901.4062691-.0902901.5610695 0l1.5572987.8963547c.1548022.0902939.1579894.2353897-.0000001.3256607z" fill="#9ea9c9"/></g><g><path d="m29.5900173 34.3011856c.1579876.0902901.1579876.2353897.0032272.3256607l-1.8959503 1.1027374c-.1547604.090271-.406229.090271-.5610294 0l-1.5573006-.8996048c-.1548004-.0870438-.1580276-.2353706-.0032272-.3256607l1.8958702-1.0994873c.1579895-.0902901.4094963-.0902901.5642586 0z" fill="#9ea9c9"/></g><g><path d="m15.0837431 32.6245461 1.8958693-1.0995083c.1579895-.090271.4094982-.090271.5642586 0l1.5541515.8963757c.1579895.090271.1579895.2353706.0032272.3256607l-1.8959103 1.1027145c-.1547604.090271-.4062691.090271-.5610294 0l-1.5541124-.8963737c-.1579886-.0902711-.1612168-.238598-.0064545-.3288689z" fill="#b28afd"/></g><g><path d="m25.9013977 26.3403034 1.8958702-1.1027164c.1579895-.090271.4094963-.090271.5642586 0l1.5541515.8996029c.1579895.090271.1579895.2353687.0032272.3256416l-1.8991776 1.1027355c-.1515331.0870438-.4030418.0870438-.5578022-.0032272l-1.5541114-.8963738c-.1579895-.090271-.1612167-.2353706-.0064163-.3256626z" fill="#9ea9c9"/></g><g><path d="m36.2289085 32.3021126 1.8991356-1.1027355c.1547623-.090271.4062691-.0870438.5642586.0032272l1.5541534.8963757c.1579895.090271.1579895.2353706.0032272.3256607l-1.8991776 1.1027145c-.151535.090271-.4030418.090271-.5610313 0l-1.5541115-.899601c-.1579894-.090271-.1612166-.2353706-.0064544-.3256416z" fill="#9ea9c9"/></g><g><path d="m15.4964666 34.8428917-1.8959484 1.1027145c-.1547623.090271-.4062691.090271-.5642586 0l-1.5541115-.8963737c-.1547623-.090271-.1579895-.2385979-.0032272-.3288689l1.8959093-1.1027374c.1547613-.090271.4094963-.0870438.5642586.0032272l1.5541506.8963776c.1579895.090271.1579895.2353668.0032272.3256607z" fill="#72d561"/></g><g><path d="m22.2933483 28.436121 1.8991375-1.1027164c.1547604-.090271.4094963-.090271.5642586 0l1.5541115.899601c.1579876.090271.1579876.2353706.0032272.3256416l-1.8991375 1.1027374c-.1547623.0870419-.4030418.0870419-.5610313-.0032291l-1.5541496-.8963737c-.1547623-.0902711-.1579896-.2353707-.0064164-.3256608z" fill="#9ea9c9"/></g></g></g></g></g><path d="m49.4873466 24.7782345.0099488 1.7600097-6.8999634 3.9899903-5.6000366-3.25-.2199707-.1299439-1.2200318-.7100219-.3499755-.2000122-.169983-.0999756-5.5700073-3.2300415v-1.7699585l.8900147-.5200196-.8900147-.5200195v-1.7599487l6.8999634-3.9900503 7.5400391 4.3800039 5.580017 3.2399902.0099488 1.7700196-.8899536.5200195z" fill="#50b069"/><g><g><g><g><g><g><g><g><g><g><g enable-background="new"><g><g><path d="m29.4629002 21.1374855.0081234 1.7669582 13.1215095 7.6254349-.0101585-1.7669716-5.5671959-3.2366905-.2194405-.1259727-1.529953-.8899384-.2214737-.128006v-.0020332z" fill="#50b069"/></g></g><g><g><path d="m42.5827599 28.7620583.0093917 1.7670002 6.9078484-3.9882489-.0093918-1.7669983z" fill="#5ec363"/></g></g><g><g><path d="m29.4625988 21.1374531 13.1201611 7.6246052 6.9078483-3.988247-13.1201591-7.6246051z" fill="#72d561"/></g></g></g></g><g><g><g><path d="m33.415493 21.4643936 1.6445351.955698.249073-.1438045-1.6445312-.955698z" fill="#78e75a"/></g></g><g enable-background="new"><g><g><ellipse cx="35.99" cy="20.93" fill="#72d561" rx="1.055" ry=".611" transform="matrix(1 -.003 .003 1 -.059 .102)"/></g></g><g><g><path d="m36.8958282 20.4076061c.4962044.2883625.4935646.7572212-.0058861 1.045578-.4994354.2883492-1.308876.2883453-1.8050804-.0000153-.4961891-.2883549-.4935493-.7572136.0058861-1.0455627.4994469-.2883568 1.3088913-.2883529 1.8050804 0zm-.1618423.9549465c.4138298-.2389221.4160042-.6253891.0048676-.864315-.4098434-.2381744-1.078331-.2389278-1.492157-.0000038-.4125214.2381706-.4147072.6261349-.0048637.8643093.4111366.2389259 1.0796317.2381802 1.4921531.0000095z" fill="#78e75a"/></g></g><g><g><path d="m34.0973625 21.3872528 1.0980759.6381321.1167526-.0674076-1.0980759-.6381321z" fill="#78e75a"/></g></g><g><g><path d="m35.6418686 18.9800644c.3943748.229187 1.0370064.2299385 1.4352608.0000057l9.2537041 5.3776665c-.3982544.2299328-.3990479.6021748-.0033798.8321114l-3.0161134 1.741352c-.3956642-.2299366-1.0395966-.2299461-1.4365578-.0007591l-9.2537041-5.3776665c.3969612-.229187.4003448-.6014214.0046768-.831358zm5.0230141 4.6668758c.8341293-.4815845.979023-1.1833744.3230133-1.5646076-.6560059-.3812275-1.868042-.299593-2.7021713.1819916-.8328247.4808311-.9777184 1.182621-.3217125 1.5638485.6560096.3812332 1.8680458.2995987 2.7008705-.1812325zm2.8173523 1.6372662c.4994507-.2883568.5033798-.7579613.0071907-1.0463142-.4961967-.2883568-1.3069305-.2876167-1.8063774.0007401-.4994354.2883492-.5020752.7572098-.0058784 1.0455666.496189.2883528 1.3056334.2883566 1.8050651.0000075zm-8.3914872-4.8766003c-.4994354.2883492-.5020752.7572079-.0058861 1.0455627.4962044.2883606 1.305645.2883644 1.8050804.0000153.4994507-.2883568.5020905-.7572155.0058861-1.045578-.4961891-.2883529-1.3056335-.2883568-1.8050804 0zm9.8189736 3.9628659.2490807-.1438065-2.2283707-1.2949867-.2490807.1438046zm-7.9877587-4.9305344-.2490768.1438065 2.2283669 1.2949867.2490807-.1438046zm-1.8619384 2.9801578.2490807-.1438065-1.6445313-.9556961-.2490807.1438065zm9.3001556 1.9511185.1167526-.0674076-1.0980797-.638134-.1167526.0674076zm-10.1460648-3.051363-.1167526.0674076 1.0980721.6381302.1167526-.0674076zm2.572445-1.4852009-.1167526.0674076 1.0980721.6381302.1167526-.0674076z" fill="#fff"/></g></g><g><g><path d="m36.6698036 19.9020519 1.0980797.6381321.1167526-.0674057-1.0980797-.638134z" fill="#fff"/></g></g><g><g><path d="m38.3508759 22.3022785c-.78759.4547157-.9243736 1.117527-.303997 1.4780502.6218567.3613834 1.7650948.2834587 2.5526848-.1712551.7890778-.4555759.9273415-1.117527.3054848-1.4789104-.6203767-.3605232-1.7650949-.2834587-2.5541726.1721153z" fill="#72d561"/></g></g><g><g><path d="m41.2046509 21.9571877c.7500572.4358864.5843925 1.2382851-.3693161 1.788908-.9522171.5497627-2.3380089.6431007-3.0880661.2072144-.7500496-.4358807-.5843849-1.2382793.3678322-1.7880421.9537086-.550623 2.3395004-.643961 3.08955-.2080803zm-.6050873 1.6518917c.7890816-.4555759.9273453-1.1175232.3054771-1.4789124-.6203728-.3605213-1.7650871-.2834606-2.5541687.1721172-.7875824.4547119-.9243698 1.1175251-.303997 1.4780464.6218643.3613892 1.7651024.2834607 2.5526886-.1712512z" fill="#78e75a"/></g></g></g><g><g><path d="m36.6728859 19.5837364 2.2283707 1.2949887.2490768-.1438046-2.2283707-1.2949867z" fill="#fff"/></g></g><g><g><path d="m43.262104 23.7330761 1.0980759.6381321.1167526-.0674057-1.0980758-.6381321z" fill="#78e75a"/></g></g><g><g><path d="m42.6813545 23.0754776 2.2283707 1.2949867.2490768-.1438026-2.2283706-1.2949887z" fill="#78e75a"/></g></g><g><g><path d="m43.4894257 24.2378922c.4961891.288353.49226.7579575-.0071907 1.0463142-.4994316.2883492-1.308876.2883453-1.8050652-.0000076-.4961967-.2883568-.493557-.7572174.0058784-1.0455666.4994469-.2883568 1.3101807-.2890968 1.8063775-.00074zm-.1631318.9556922c.4138298-.238924.4147148-.6261387.0048676-.8643169-.4111404-.2389278-1.078331-.2389259-1.492157-.0000038-.4125252.2381706-.4160042.6253815-.0048676.8643093.4098511.2381783 1.0796357.2381802 1.492157.0000114z" fill="#78e75a"/></g></g><g><g><ellipse cx="42.583" cy="24.761" fill="#72d561" rx="1.055" ry=".611" transform="matrix(1 -.003 .003 1 -.07 .121)"/></g></g><g><g><path d="m48.6275024 24.7741795-6.0412827 3.4879379-12.2605151-7.1250324 6.0412846-3.4879379zm-6.7527198 2.1562614c.3969612-.229187 1.0408936-.2291775 1.4365578.0007591l3.0161133-1.7413521c-.395668-.2299366-.3948746-.6021786.0033798-.8321114l-9.2537041-5.3776665c-.3982544.2299328-1.0408859.2291813-1.4352608-.0000057l-3.0161133 1.7413521c.395668.2299366.3922844.6021709-.0046768.831358z" fill="#78e75a"/></g></g></g></g><g><g><g><path d="m35.0438194 24.3809052.2190972.127325 6.9078483-3.9882488-.2190971-.1273232z" fill="#f45170"/></g></g><g><g><path d="m36.7824364 25.3912773.2191009.1273289 6.9078484-3.9882469-.219101-.1273289z" fill="#f45170"/></g></g><g><g><path d="m35.2629166 24.5082302 1.5195198.8830471 6.9078483-3.9882469-1.5195198-.883049z" fill="#fff"/></g></g></g></g><g><g><path d="m29.7245426 21.9221878c.9025383.5503311 1.8081532 1.0953655 2.7178364 1.633419l2.734127 1.6053562 2.7483177 1.5809612c.917881.5239277 1.8397408 1.0410118 2.7648354 1.5525265-.9024277-.550518-1.8080788-1.0954914-2.7177238-1.633606l-2.7342415-1.6051693-2.7484131-1.5807762c-.9178562-.5239886-1.8397522-1.0409984-2.7647381-1.5527114z" fill="#4b9534"/></g></g><g><g><path d="m34.3114853 25.230484c.6242065.3966789 1.256237.7798767 1.8894691 1.1610298l1.908493 1.1282654 1.9250221 1.0998306c.6447029.3614101 1.2905235.7208862 1.9443169 1.0666447-.6240921-.3968639-1.2561607-.780014-1.8893433-1.1612415l-1.9086151-1.1280556-1.9251595-1.0996056c-.6446532-.3614845-1.2905005-.720911-1.9441832-1.0668678z" fill="#4b9534"/></g></g><g><g><path d="m49.0338783 25.8564072c-.4371834.2201481-.866539.4537621-1.294693.6894245-.4283371.2353745-.8502426.4818001-1.2756653.7221622-.4196587.2503185-.8423805.4953308-1.2591362.7506237-.4166832.2554035-.8322601.5127411-1.2398529.7837963.4372902-.2199497.8666115-.4536133 1.2948265-.6892128.4281273-.2356987.8502922-.4816895 1.2755318-.722374.4194603-.2506409.842453-.4952183 1.2590103-.7508335.4167328-.2553424.8322754-.5127296 1.2399788-.7835864z" fill="#50b069"/></g></g><g><g><path d="m47.9719391 27.0839481c-.4371834.2201462-.866539.4537621-1.294693.6894226-.4283371.2353764-.8502426.481802-1.2756653.7221622-.4196587.2503185-.8423805.4953308-1.2591362.7506237-.4166832.2554035-.8322639.5127411-1.2398529.7837963.4372902-.2199478.8666115-.4536133 1.2948265-.6892128.4281273-.2356987.8502922-.4816895 1.2755318-.7223721.4194603-.2506428.842453-.4952202 1.2590103-.7508354.4167328-.2553404.8322754-.5127295 1.2399788-.7835845z" fill="#50b069"/></g></g><g><g><g><path d="m35.0361862 26.1391144.2214737.128006.0081253-1.756815v-.0020332l-.2214737-.128006v.0020332z" fill="#df3260"/></g></g><g><g><path d="m36.9937744 27.277338.0081024-1.7519664v-.0060997l-.2194404-.1279946v.0081234l-.0081024 1.7499313" fill="none"/></g></g><g><g><path d="m35.2576599 26.2671204 1.5166741.8822116.0081024-1.7499313v-.0081234l-1.5166512-.8830051v.0020332z" fill="#e9e7fc"/></g></g></g></g></g></g></g></g><g><g><g><g><g><g><g><g><g enable-background="new"><g><g><path d="m29.4629002 18.3361816.0081234 1.7669583 13.1215095 7.6254329-.0101585-1.7669715-5.5671959-3.2366906-.2194405-.1259708-1.529953-.8899403-.2214737-.1280059v-.0020333z" fill="#50b069"/></g></g><g><g><path d="m42.5827599 25.9607525.0093917 1.7670002 6.9078484-3.9882488-.0093918-1.7669983z" fill="#5ec363"/></g></g><g><g><path d="m29.4625988 18.3361473 13.1201611 7.6246052 6.9078483-3.9882469-13.1201591-7.6246052z" fill="#72d561"/></g></g></g></g><g><g><g><path d="m33.415493 18.6630878 1.6445351.9556981.249073-.1438046-1.6445312-.955698z" fill="#78e75a"/></g></g><g enable-background="new"><g><g><ellipse cx="35.99" cy="18.129" fill="#72d561" rx="1.055" ry=".611" transform="matrix(1 -.003 .003 1 -.051 .102)"/></g></g><g><g><path d="m36.8958282 17.6063004c.4962044.2883625.4935646.7572212-.0058861 1.045578-.4994354.2883492-1.308876.2883453-1.8050804-.0000153-.4961891-.288353-.4935493-.7572136.0058861-1.0455627.4994469-.2883568 1.3088913-.288353 1.8050804 0zm-.1618423.9549465c.4138298-.2389221.4160042-.6253891.0048676-.864315-.4098434-.2381744-1.078331-.2389259-1.492157-.0000038-.4125214.2381706-.4147072.6261349-.0048637.8643093.4111366.2389259 1.0796317.2381801 1.4921531.0000095z" fill="#78e75a"/></g></g><g><g><path d="m34.0973625 18.585947 1.0980759.6381321.1167526-.0674076-1.0980759-.6381321z" fill="#78e75a"/></g></g><g><g><path d="m35.6418686 16.1787586c.3943748.229187 1.0370064.2299385 1.4352608.0000057l9.2537041 5.3776665c-.3982544.2299328-.3990479.6021748-.0033798.8321114l-3.0161133 1.7413521c-.3956642-.2299366-1.0395966-.2299461-1.4365578-.0007591l-9.2537041-5.3776665c.3969612-.229187.4003448-.6014214.0046768-.831358zm5.0230141 4.6668759c.8341293-.4815845.979023-1.1833744.3230133-1.5646076-.6560059-.3812275-1.868042-.299593-2.7021713.1819916-.8328247.4808311-.9777184 1.182621-.3217125 1.5638485.6560096.3812331 1.8680458.2995986 2.7008705-.1812325zm2.8173523 1.6372661c.4994507-.2883568.5033798-.7579613.0071907-1.0463142-.4961967-.2883568-1.3069305-.2876167-1.8063774.0007401-.4994354.2883492-.5020752.7572098-.0058784 1.0455666.496189.2883529 1.3056334.2883567 1.8050651.0000075zm-8.3914872-4.8766002c-.4994354.2883492-.5020752.7572098-.0058861 1.0455627.4962044.2883606 1.305645.2883644 1.8050804.0000153.4994507-.2883568.5020905-.7572155.0058861-1.045578-.4961891-.288353-1.3056335-.2883568-1.8050804 0zm9.8189736 3.9628658.2490807-.1438065-2.2283707-1.2949867-.2490807.1438046zm-7.9877587-4.9305344-.2490768.1438065 2.2283669 1.2949867.2490807-.1438046zm-1.8619384 2.9801579.2490807-.1438065-1.6445313-.9556961-.2490807.1438065zm9.3001556 1.9511184.1167526-.0674076-1.0980797-.638134-.1167526.0674076zm-10.1460648-3.0513629-.1167526.0674076 1.0980721.6381302.1167526-.0674076zm2.572445-1.4852009-.1167526.0674076 1.0980721.6381302.1167526-.0674076z" fill="#fff"/></g></g><g><g><path d="m36.6698036 17.1007462 1.0980797.6381321.1167526-.0674058-1.0980797-.638134z" fill="#fff"/></g></g><g><g><path d="m38.3508759 19.5009727c-.78759.4547157-.9243736 1.117527-.303997 1.4780502.6218567.3613834 1.7650948.2834587 2.5526848-.1712551.7890778-.4555759.9273415-1.117527.3054848-1.4789104-.6203767-.3605232-1.7650949-.2834587-2.5541726.1721153z" fill="#72d561"/></g></g><g><g><path d="m41.2046509 19.1558819c.7500572.4358864.5843925 1.2382851-.3693161 1.788908-.9522171.5497627-2.3380089.6431007-3.0880661.2072144-.7500496-.4358807-.5843849-1.2382793.3678322-1.7880421.9537086-.550623 2.3395004-.643961 3.08955-.2080803zm-.6050873 1.6518917c.7890816-.4555759.9273453-1.1175232.3054771-1.4789124-.6203728-.3605213-1.7650871-.2834606-2.5541687.1721172-.7875824.4547119-.9243698 1.1175251-.303997 1.4780464.6218643.3613892 1.7651024.2834607 2.5526886-.1712512z" fill="#78e75a"/></g></g></g><g><g><path d="m36.6728859 16.7824306 2.2283707 1.2949887.2490768-.1438046-2.2283707-1.2949867z" fill="#fff"/></g></g><g><g><path d="m43.262104 20.9317703 1.0980759.638134.1167526-.0674076-1.0980758-.6381321z" fill="#78e75a"/></g></g><g><g><path d="m42.6813545 20.2741718 2.2283707 1.2949868.2490768-.1438027-2.2283706-1.2949886z" fill="#78e75a"/></g></g><g><g><path d="m43.4894257 21.4365864c.4961891.288353.49226.7579575-.0071907 1.0463142-.4994316.2883492-1.308876.2883453-1.8050652-.0000076-.4961967-.2883568-.493557-.7572174.0058784-1.0455666.4994469-.2883567 1.3101807-.2890968 1.8063775-.00074zm-.1631318.9556923c.4138298-.238924.4147148-.6261387.0048676-.8643169-.4111404-.2389278-1.078331-.2389259-1.492157-.0000038-.4125252.2381706-.4160042.6253815-.0048676.8643093.4098511.2381782 1.0796357.2381801 1.492157.0000114z" fill="#78e75a"/></g></g><g><g><ellipse cx="42.583" cy="21.96" fill="#72d561" rx="1.055" ry=".611" transform="matrix(1 -.003 .003 1 -.062 .121)"/></g></g><g><g><path d="m48.6275024 21.9728737-6.0412827 3.4879379-12.2605152-7.1250324 6.0412846-3.4879379zm-6.7527198 2.1562614c.3969612-.229187 1.0408936-.2291775 1.4365578.0007591l3.0161133-1.7413521c-.395668-.2299366-.3948746-.6021786.0033798-.8321114l-9.2537041-5.3776665c-.3982544.2299328-1.0408859.2291813-1.4352608-.0000057l-3.0161133 1.7413521c.395668.2299366.3922844.6021709-.0046768.831358z" fill="#78e75a"/></g></g></g></g><g><g><g><path d="m35.0438194 21.5795994.2190972.127325 6.9078483-3.9882488-.2190971-.1273231z" fill="#f45170"/></g></g><g><g><path d="m36.7824364 22.5899715.2191009.1273289 6.9078484-3.9882469-.219101-.1273289z" fill="#f45170"/></g></g><g><g><path d="m35.2629166 21.7069244 1.5195198.8830471 6.9078483-3.9882469-1.5195198-.883049z" fill="#fff"/></g></g></g></g><g><g><path d="m29.7245426 19.120882c.9025383.5503311 1.8081532 1.0953655 2.7178364 1.633419l2.734127 1.6053562 2.7483177 1.5809612c.917881.5239277 1.8397408 1.0410118 2.7648354 1.5525265-.9024277-.550518-1.8080788-1.0954914-2.7177238-1.633606l-2.7342415-1.6051693-2.7484131-1.5807762c-.9178562-.5239886-1.8397522-1.0409983-2.7647381-1.5527114z" fill="#4b9534"/></g></g><g><g><path d="m34.3114853 22.4291782c.6242065.3966789 1.256237.7798767 1.8894691 1.1610298l1.908493 1.1282654 1.9250221 1.0998306c.6447029.3614101 1.2905235.7208862 1.9443169 1.0666447-.6240921-.3968639-1.2561607-.780014-1.8893433-1.1612415l-1.9086151-1.1280556-1.9251595-1.0996056c-.6446532-.3614845-1.2905005-.720911-1.9441832-1.0668678z" fill="#4b9534"/></g></g><g><g><path d="m49.0338783 23.0551033c-.4371834.2201462-.866539.4537601-1.294693.6894226-.4283371.2353745-.8502426.4818001-1.2756653.7221622-.4196587.2503185-.8423805.4953308-1.2591362.7506237-.4166832.2554035-.8322601.5127411-1.2398529.7837963.4372902-.2199497.8666115-.4536133 1.2948265-.6892128.4281273-.2356987.8502922-.4816895 1.2755318-.722374.4194603-.2506409.842453-.4952183 1.2590103-.7508335.4167328-.2553424.8322754-.5127295 1.2399788-.7835845z" fill="#50b069"/></g></g><g><g><path d="m47.9719391 24.2826424c-.4371834.2201462-.866539.4537621-1.294693.6894226-.4283371.2353764-.8502426.481802-1.2756653.7221622-.4196587.2503204-.8423805.4953308-1.2591362.7506237-.4166832.2554035-.8322639.512743-1.2398529.7837963.4372902-.2199478.8666115-.4536133 1.2948265-.6892128.4281273-.2356968.8502922-.4816895 1.2755318-.7223721.4194603-.2506428.842453-.4952202 1.2590103-.7508354.4167328-.2553405.8322754-.5127296 1.2399788-.7835845z" fill="#50b069"/></g></g><g><g><g><path d="m35.0361862 23.3378086.2214737.128006.0081253-1.756815v-.0020332l-.2214737-.128006v.0020333z" fill="#df3260"/></g></g><g><g><path d="m36.9937744 24.4760323.0081024-1.7519646v-.0061016l-.2194404-.1279946v.0081234l-.0081024 1.7499314" fill="none"/></g></g><g><g><path d="m35.2576599 23.4658146 1.5166741.8822117.0081024-1.7499314v-.0081234l-1.5166512-.8830051v.0020332z" fill="#e9e7fc"/></g></g></g></g></g></g></g></g></g></g></g><path d="m25.4689751 3.0779178-.1538086-.156189-6.1338501 2.7211302.1538086.1561889 1.6228027.9368897-3.5996094 6.3923345-2.2951669-.286316-3.0429078 5.1440421-2.2942504.0256347-2.5546871 4.0619507-2.5042114.0098267-3.1670533 5.1006469.1911621.1362305 2.102722 1.2219849 3.0198367-4.873169 2.5089717-.007019 2.5499267-4.0592652 2.3085938-.0338134 3.0239267-5.1166983 2.2999268.2944946 3.7577514-6.6801147 2.0630494 1.1911011z" fill="#656fea"/><g><path d="m25.3151665 2.9217288-6.1338501 2.7211302.1538086.1561889 5.9907837 3.4587408.1430664-6.1798709z" fill="#6bb4f9"/><g><g><g enable-background="new"><g><g><path d="m17.1658993 14.0639086-2.1027422-1.2219801 2.2951307.2863169 2.1027413 1.22198z" fill="#6f93f1"/></g></g><g><g><path d="m14.1229439 19.2080059-2.1027422-1.221981 3.0429554-5.1440964 2.1027422 1.2219801z" fill="#6bb4f9"/></g></g><g><g><path d="m11.8286972 19.2335949-2.1027422-1.2219791 2.2942467-.0255909 2.1027422 1.221981z" fill="#6f93f1"/></g></g><g><g><path d="m9.2740088 23.2955875-2.1027422-1.221981 2.5546884-4.0619907 2.1027422 1.2219791z" fill="#6bb4f9"/></g></g><g><g><path d="m6.7698112 23.3053646-2.1027422-1.221981 2.5041976-.0097771 2.1027422 1.221981z" fill="#6f93f1"/></g></g><g><g><path d="m3.7939179 28.5422878-2.1027427-1.2219791-.1911752-.1362705 2.1027427 1.221981z" fill="#6f93f1"/></g></g><g><g><path d="m23.1059685 7.877461.1698379.1662678-3.7707271 6.7030974-2.2999401-.2945051-3.0239163 5.1166753-2.3085527.0338497-2.5499411 4.0592328-2.5089607.0070438-3.0198505 4.8731651-.1911752-.1362686 3.1670685-5.1006546 2.5041976-.0097771 2.5546884-4.0619926 2.2942467-.025589 3.0429554-5.1440973 2.2951298.2863168z" fill="#656fea"/></g></g><g><g><path d="m3.6027427 28.4060192-2.1027427-1.221981 3.167069-5.1006546 2.1027422 1.221981z" fill="#6bb4f9"/></g></g></g></g><g><g><path d="m19.4610291 14.3502254-2.1027413-1.22198 3.6449375-6.4727645 2.1027432 1.2219801z" fill="#6bb4f9"/></g></g></g></g></g><g><g><g><g><g><g><g><g><g><g><g><g enable-background="new"><g><g><g><path d="m15.8927832 42.6102486-.0066214 1.6504326c-.0027657.9754524-.6441116 1.9493484-1.9246511 2.6935158-2.5789976 1.4987488-6.7692189 1.4987717-9.3650875.0000458-1.3016803-.7515259-1.9522517-1.738884-1.9494548-2.7254333l.0066178-1.6504288c-.0027931.9865494.7013149 1.8909416 2.0029953 2.6424675 2.5958691 1.4987259 6.726162 1.4552841 9.3051596-.0434685 1.2805399-.7441674 1.9282774-1.5916749 1.9310421-2.5671311z" fill="#ffd06c"/></g></g></g><g><g><g><path d="m13.9661903 45.3047485c-.5063.2963486-1.0743265.5309715-1.6835051.707962-.477458.1440773-.9755182.2469826-1.4859133.3128281-.275773.041153-.5556908.0658722-.8397045.0823288-1.2554111.0740852-2.5437589-.0617523-3.6962676-.4033737-.5968423-.1770134-1.1566286-.4116096-1.658783-.6997452-2.5890558-1.4941521-2.6013911-3.9226723-.0206008-5.420948.5062995-.2922287 1.0743265-.5309677 1.6793838-.7079582 1.1483884-.3416481 2.4367366-.4733658 3.6962676-.3951569.2799187.0164795.5598116.0452957.8397045.0864449.5103951.0658493 1.0084553.1728706 1.4859133.3128319.5968428.1811104 1.1566296.4116096 1.6546888.6997452 2.5972711 1.498249 2.6096059 3.9267692.0288163 5.4250411z" fill="#f9a83d"/></g></g><g><g><path d="m9.29111 45.7182236c-1.5992856 0-3.0972342-.3564224-4.2179809-1.0034561-1.0262456-.5926132-1.5920479-1.3480873-1.5932543-2.1274223-.0010722-.7743759.5573575-1.5258293 1.5723431-2.1157608 1.1127043-.6466293 2.6068993-1.0027847 4.2072577-1.0027847 1.5974092 0 3.0918732.3550835 4.2081966.9995689 1.0298643.5946198 1.5976772 1.3519745 1.5987492 2.132782.0010729.7741089-.5566874 1.5250282-1.5708685 2.1144218-1.1125697.6464958-2.6058263 1.0026512-4.2044429 1.0026512z" fill="#ffd06c"/></g></g></g></g></g></g></g></g></g></g></g></g></g></g></g><g><g><path d="m12.0578051 41.994976c-.8239288-.4746437-1.4000778-.2895584-1.7314348-.1402969l-.0119534-.0089645c.3164349-.2626839.1880722-.611969-.2836008-.8836212-.5910721-.3433075-1.2657394-.3224106-1.8747215-.0328331l-.3433099-.2000237-.4089761.2388344.3283873.1910439-.2925659.1701583-.3283691-.1910591-.4238992.2447929.3283691.1910591-1.0179586.594059.6985359.400032.4656968-.2716675 2.6120849 1.5075607-.4686852.2716484.6955662.4029999 1.0209465-.5910721.3164349.1820946.4239168-.2447929-.3164339-.1850815.2895594-.1701622.3194227.1851044.4119644-.2388344-.3433094-.1970177c.752286-.5612258.3612204-.9761809-.0656671-1.2239608zm-2.7971678.125393-.2597151.1492615-.8985596-.5164566.2597141-.1522331c.3403215-.1970367.680625-.1343384.8806496-.0208969.2836018.1641845.331357.3582305.017911.5403251zm1.7344236.9761619-.2806139.1642036-1.0896196-.6299019.3045006-.1761169c.2836018-.1641846.6477919-.1820946 1.0508099.0477562.2686605.1552391.3910655.3761406.014923.594059z" fill="#f9a83d"/></g></g><g opacity=".25"><g><path d="m9.9585352 38.7806854v7.6278687c-1.2555246.0740967-2.5439882-.0617561-3.6966009-.4034081v-6.8292694c1.1484918-.3416748 2.4369554-.4734039 3.6966009-.3951912z" fill="#fff"/></g><g><path d="m12.2843618 39.1800003v6.8333626c-.4775019.1440926-.975606.2470055-1.4860468.3128586v-7.4590797c.5104409.065853 1.008545.1728858 1.4860468.3128585z" fill="#fff"/></g></g></g><path d="m25.326 9.258-5.991-3.459" fill="#6f93f1"/><g><g enable-background="new"><g><g><path d="m25.3151321 2.9217274.1537972.1561604-.1430531 6.1799104-.1537971-.1561604z" fill="#656fea"/></g></g></g></g><g><g><path d="m25.3151321 2.9217274-.143053 6.1799104-5.9907608-3.4587669z" fill="#6bb4f9"/></g></g></g></svg>