<svg enable-background="new 0 0 32 32" viewBox="0 0 32 32" xmlns="http://www.w3.org/2000/svg"><g id="_x30_1_shopping_bag_check"/><g id="_x30_2_coins_dollar"/><g id="_x30_3_low_price"/><g id="_x30_4_money"><g><path d="m30 6h-24c-.55 0-1 .45-1 1v14c0 .55.45 1 1 1h24c.55 0 1-.45 1-1v-14c0-.55-.45-1-1-1z" fill="#388e3c"/><path d="m31 7v14c0 .55-.45 1-1 1h-12v-16h12c.55 0 1 .45 1 1z" fill="#2e7d32"/><path d="m26 26h-24c-.55 0-1-.45-1-1v-14c0-.55.45-1 1-1h24c.55 0 1 .45 1 1v14c0 .55-.45 1-1 1z" fill="#66bb6a"/><path d="m27 11v14c0 .55-.45 1-1 1h-12v-16h12c.55 0 1 .45 1 1z" fill="#43a047"/><path d="m3 12h22v12h-22z" fill="#388e3c"/><path d="m14 12h11v12h-11z" fill="#2e7d32"/><g><path d="m14 22c-2.21 0-4-1.79-4-4s1.79-4 4-4 4 1.79 4 4-1.79 4-4 4zm0-6c-1.1 0-2 .9-2 2s.9 2 2 2 2-.9 2-2-.9-2-2-2z" fill="#66bb6a"/></g><g><path d="m14 14v2c1.1 0 2 .9 2 2s-.9 2-2 2v2c2.21 0 4-1.79 4-4s-1.79-4-4-4z" fill="#43a047"/></g><g><path d="m2 16h-1v-2h1c1.65 0 3-1.35 3-3v-1h2v1c0 2.76-2.24 5-5 5z" fill="#66bb6a"/></g><g><path d="m27 16h-1c-2.76 0-5-2.24-5-5v-1h2v1c0 1.65 1.35 3 3 3h1z" fill="#43a047"/></g><g><path d="m7 26h-2v-1c0-1.65-1.35-3-3-3h-1v-2h1c2.76 0 5 2.24 5 5z" fill="#66bb6a"/></g><g><path d="m23 26h-2v-1c0-2.76 2.24-5 5-5h1v2h-1c-1.65 0-3 1.35-3 3z" fill="#43a047"/></g><g><path d="m7 19h-1c-.55 0-1-.45-1-1s.45-1 1-1h1c.55 0 1 .45 1 1s-.45 1-1 1z" fill="#66bb6a"/></g><g><path d="m22 19h-1c-.55 0-1-.45-1-1s.45-1 1-1h1c.55 0 1 .45 1 1s-.45 1-1 1z" fill="#43a047"/></g></g></g><g id="_x30_5_discount_sticker"/><g id="_x30_6_shopping_basket"/><g id="_x30_7_goal"/><g id="_x30_8_shopping_bag_discount"/><g id="_x30_9_shopping_cart"/><g id="_x31_0_discount_location"/><g id="_x31_1_target"/><g id="_x31_2_megaphone"/><g id="_x31_3_graph"/><g id="_x31_4_voucher"/><g id="_x31_5_gift_discount"/><g id="_x31_6_stopwatch"/><g id="_x31_7_invoice"/><g id="_x31_8_tag"/><g id="_x31_9_receipt"/><g id="_x32_0_growth"/><g id="_x32_1_hot_sale"/><g id="_x32_2_flash_sale"/><g id="_x32_3_newsletter"/><g id="_x32_4_money_bag"/><g id="_x32_5_improve"/></svg>