<svg id="Layer_1" height="512" viewBox="0 0 64 64" width="512" xmlns="http://www.w3.org/2000/svg" data-name="Layer 1"><g fill="#439b0a"><path d="m55 60v1h6v-6h-1a5 5 0 0 0 -5 5z"/><path d="m9 34v-1h-6v6h1a5 5 0 0 0 5-5z"/><path d="m55 34a5 5 0 0 0 5 5h1v-6h-6z"/><path d="m4 55h-1v6h6v-1a5 5 0 0 0 -5-5z"/></g><path d="m60 39a5 5 0 0 1 -5-5v-1h-46v1a5 5 0 0 1 -5 5h-1v16h1a5 5 0 0 1 5 5v1h46v-1a5 5 0 0 1 5-5h1v-16zm-28 18a10 10 0 1 1 10-10 10 10 0 0 1 -10 10z" fill="#acd494"/><circle cx="32" cy="47" fill="#439b0a" r="10"/><path d="m30.98 29.5a1.482 1.482 0 0 1 -1.48-1.48v-2.5a.5.5 0 0 0 -.373-.468 9.486 9.486 0 0 1 -1.492-.619.578.578 0 0 0 -.266-.068.458.458 0 0 0 -.329.133l-1.771 1.772a1.484 1.484 0 0 1 -2.093 0l-1.444-1.444a1.481 1.481 0 0 1 0-2.093l1.771-1.77a.5.5 0 0 0 .067-.6 9.4 9.4 0 0 1 -.62-1.492.5.5 0 0 0 -.468-.373h-2.5a1.482 1.482 0 0 1 -1.48-1.48v-2.038a1.482 1.482 0 0 1 1.48-1.48h2.5a.5.5 0 0 0 .468-.373 9.486 9.486 0 0 1 .619-1.492.5.5 0 0 0 -.065-.6l-1.772-1.766a1.482 1.482 0 0 1 0-2.094l1.444-1.443a1.481 1.481 0 0 1 2.093 0l1.77 1.768a.459.459 0 0 0 .33.134.589.589 0 0 0 .266-.067 9.4 9.4 0 0 1 1.492-.62.5.5 0 0 0 .373-.468v-2.499a1.482 1.482 0 0 1 1.48-1.48h2.04a1.482 1.482 0 0 1 1.48 1.48v2.5a.5.5 0 0 0 .373.468 9.486 9.486 0 0 1 1.492.619.578.578 0 0 0 .266.068.458.458 0 0 0 .329-.135l1.771-1.772a1.482 1.482 0 0 1 2.094 0l1.443 1.444a1.481 1.481 0 0 1 0 2.093l-1.768 1.774a.5.5 0 0 0 -.067.6 9.4 9.4 0 0 1 .62 1.492.5.5 0 0 0 .468.373h2.5a1.482 1.482 0 0 1 1.48 1.48v2.04a1.482 1.482 0 0 1 -1.48 1.48h-2.5a.5.5 0 0 0 -.468.373 9.486 9.486 0 0 1 -.619 1.492.5.5 0 0 0 .065.6l1.772 1.771a1.481 1.481 0 0 1 0 2.093l-1.444 1.444a1.484 1.484 0 0 1 -2.093 0l-1.773-1.777a.459.459 0 0 0 -.33-.134.589.589 0 0 0 -.266.067 9.4 9.4 0 0 1 -1.492.62.5.5 0 0 0 -.373.468v2.5a1.482 1.482 0 0 1 -1.48 1.48zm1.02-18a4.5 4.5 0 1 0 4.5 4.5 4.505 4.505 0 0 0 -4.5-4.5z" fill="#3c8bfc"/><path d="m36.134 8.014a1 1 0 0 0 1.181-.157l1.77-1.771a.981.981 0 0 1 1.386 0l1.443 1.443a.981.981 0 0 1 0 1.386l-1.771 1.77a1 1 0 0 0 -.157 1.181 8.9 8.9 0 0 1 .587 1.412 1 1 0 0 0 .945.722h2.5a.98.98 0 0 1 .98.98v2.04a.98.98 0 0 1 -.98.98h-2.5a1 1 0 0 0 -.945.722 8.936 8.936 0 0 1 -.587 1.412 1 1 0 0 0 .157 1.181l1.771 1.77a.981.981 0 0 1 0 1.386l-1.443 1.443a.981.981 0 0 1 -1.386 0l-1.77-1.771a1 1 0 0 0 -1.181-.157 8.9 8.9 0 0 1 -1.412.587 1 1 0 0 0 -.722.945v2.5a.98.98 0 0 1 -.98.98h-2.04a.98.98 0 0 1 -.98-.98v-2.5a1 1 0 0 0 -.722-.945 8.9 8.9 0 0 1 -1.412-.587 1 1 0 0 0 -1.181.157l-1.77 1.771a.981.981 0 0 1 -1.386 0l-1.443-1.443a.981.981 0 0 1 0-1.386l1.771-1.77a1 1 0 0 0 .157-1.181 8.936 8.936 0 0 1 -.587-1.412 1 1 0 0 0 -.945-.722h-2.5a.98.98 0 0 1 -.98-.98v-2.04a.98.98 0 0 1 .98-.98h2.5a1 1 0 0 0 .945-.722 8.9 8.9 0 0 1 .587-1.412 1 1 0 0 0 -.157-1.181l-1.771-1.77a.981.981 0 0 1 0-1.386l1.443-1.443a.981.981 0 0 1 1.386 0l1.77 1.771a1 1 0 0 0 1.181.157 8.9 8.9 0 0 1 1.412-.587 1 1 0 0 0 .722-.945v-2.502a.98.98 0 0 1 .98-.98h2.04a.98.98 0 0 1 .98.98v2.5a1 1 0 0 0 .722.945 8.9 8.9 0 0 1 1.412.589zm-4.134 12.986a5 5 0 1 0 -5-5 5 5 0 0 0 5 5z" fill="#4c94fc"/><path d="m33 41.051v-2.051a1 1 0 0 0 -2 0v2.051a3.492 3.492 0 0 0 .5 6.949h1a1.5 1.5 0 0 1 0 3h-1a1.5 1.5 0 0 1 -1.5-1.5v-.25a1 1 0 0 0 -2 0v.25a3.494 3.494 0 0 0 3 3.449v2.051a1 1 0 0 0 2 0v-2.051a3.492 3.492 0 0 0 -.5-6.949h-1a1.5 1.5 0 0 1 0-3h1a1.5 1.5 0 0 1 1.5 1.5v.25a1 1 0 0 0 2 0v-.25a3.494 3.494 0 0 0 -3-3.449z" fill="#fff"/><path d="m61.707 24.293a1 1 0 0 0 -1.414 0l-1.293 1.293v-22.586a1 1 0 0 0 -1-1h-20a1 1 0 0 0 0 2h19v21.586l-1.293-1.293a1 1 0 0 0 -1.414 1.414l3 3a1 1 0 0 0 1.414 0l3-3a1 1 0 0 0 0-1.414z" fill="#ef7443"/><path d="m48 14a1 1 0 0 0 .707-1.707l-1.293-1.293h2.586v22a1 1 0 0 0 2 0v-23a1 1 0 0 0 -1-1h-3.586l1.293-1.293a1 1 0 1 0 -1.414-1.414l-3 3a1 1 0 0 0 0 1.414l3 3a1 1 0 0 0 .707.293z" fill="#f2c341"/><path d="m26 2h-20a1 1 0 0 0 -1 1v22.586l-1.293-1.293a1 1 0 0 0 -1.414 1.414l3 3a1 1 0 0 0 1.414 0l3-3a1 1 0 0 0 -1.414-1.414l-1.293 1.293v-21.586h19a1 1 0 0 0 0-2z" fill="#ef7443"/><path d="m16.707 6.293a1 1 0 0 0 -1.414 1.414l1.293 1.293h-3.586a1 1 0 0 0 -1 1v23a1 1 0 0 0 2 0v-22h2.586l-1.293 1.293a1 1 0 1 0 1.414 1.414l3-3a1 1 0 0 0 0-1.414z" fill="#f2c341"/><path d="m53 46h-7a1 1 0 0 0 0 2h7a1 1 0 0 0 0-2z" fill="#fff"/><path d="m18 46h-7a1 1 0 0 0 0 2h7a1 1 0 0 0 0-2z" fill="#fff"/></svg>