<svg id="Capa_1" enable-background="new 0 0 512 512" height="512" viewBox="0 0 512 512" width="512" xmlns="http://www.w3.org/2000/svg"><g><g><g><g><path d="m489.5 386.898h-467c-8.284 0-15-6.716-15-15v-347.403c0-8.284 6.716-15 15-15h467c8.284 0 15 6.716 15 15v347.402c0 8.285-6.716 15.001-15 15.001z" fill="#fcb44d"/><path d="m504.5 24.496v347.4c0 8.29-6.72 15-15 15h-42.77c8.29 0 15-6.71 15-15v-347.4c0-8.29-6.71-15-15-15h42.77c8.28 0 15 6.71 15 15z" fill="#fb9927"/><path d="m504.5 72.525v-48.03c0-8.284-6.716-15-15-15h-467c-8.284 0-15 6.716-15 15v48.03z" fill="#eef4f5"/><path d="m489.5 9.495h-338.081v63.03h353.081v-48.03c0-8.284-6.716-15-15-15z" fill="#cbe5e7"/><path d="m504.5 24.496v48.03h-42.77v-48.03c0-8.29-6.71-15-15-15h42.77c8.28 0 15 6.71 15 15z" fill="#a9d3d8"/></g><g><g><g><g><g><g><g><g><path d="m476.57 479.333-23.18 23.18-4.08-4.08-23.85-23.85-46.68-46.68 23.18-23.17 46.68 46.67 23.85 23.85z" fill="#557983"/><path d="m431.332 458.573h32.781v30.186h-32.781z" fill="#3f5959" transform="matrix(.707 -.707 .707 .707 -203.798 455.321)"/><path d="m420.719 423.498c-2.312 4.93-5.5 9.542-9.564 13.607-4.021 4.01-8.6 7.231-13.585 9.586l-18.786-18.786 23.171-23.171z" fill="#3f5959"/><g><path d="m461.179 456.123-31.726 31.726c-3.409 3.409-8.935 3.409-12.344 0l-11.511-11.511c-3.409-3.409-3.409-8.935 0-12.344l31.726-31.726c3.409-3.409 8.935-3.409 12.344 0l11.511 11.511c3.408 3.409 3.408 8.936 0 12.344z" fill="#23f1a8"/><path d="m449.671 432.27 11.511 11.511c3.407 3.407 3.407 8.937 0 12.344l-16.788 16.788c3.407-3.407 3.407-8.937 0-12.344l-11.511-11.511c-3.413-3.413-8.937-3.407-12.344 0l16.788-16.788c3.407-3.407 8.931-3.413 12.344 0z" fill="#26d192"/></g></g><g><circle cx="312.383" cy="338.33" fill="#a9d3d8" r="121.007"/><path d="m433.389 338.335c0 66.828-54.175 121.003-121.003 121.003-6.76 0-13.399-.559-19.851-1.622 57.385-9.476 101.152-59.313 101.152-119.382 0-60.08-43.767-109.916-101.152-119.393 6.453-1.063 13.092-1.621 19.851-1.621 66.828.001 121.003 54.176 121.003 121.015z" fill="#90bac4"/><g><circle cx="311.66" cy="338.33" fill="#ffd496" r="85.35"/><path d="m397.006 338.335c0 47.13-38.213 85.343-85.343 85.343-6.267 0-12.38-.679-18.263-1.961 38.355-8.359 67.08-42.518 67.08-83.382 0-40.875-28.725-75.034-67.08-83.393 5.883-1.282 11.996-1.961 18.263-1.961 47.13 0 85.343 38.213 85.343 85.354z" fill="#fcb44d"/></g></g></g></g></g></g></g></g></g></g><g><path d="m52.98 48.51h.104c4.142 0 7.5-3.357 7.5-7.5s-3.358-7.5-7.5-7.5h-.104c-4.142 0-7.5 3.357-7.5 7.5s3.358 7.5 7.5 7.5z"/><path d="m79.077 48.51h.104c4.142 0 7.5-3.357 7.5-7.5s-3.358-7.5-7.5-7.5h-.104c-4.142 0-7.5 3.357-7.5 7.5s3.358 7.5 7.5 7.5z"/><path d="m105.174 48.51h.104c4.142 0 7.5-3.357 7.5-7.5s-3.358-7.5-7.5-7.5h-.104c-4.142 0-7.5 3.357-7.5 7.5s3.358 7.5 7.5 7.5z"/><path d="m489.5 1.996h-467c-12.407 0-22.5 10.093-22.5 22.5v347.402c0 12.406 10.093 22.5 22.5 22.5h43.514c4.142 0 7.5-3.357 7.5-7.5s-3.358-7.5-7.5-7.5h-43.514c-4.136 0-7.5-3.364-7.5-7.5v-291.871h351.819c4.143 0 7.5-3.357 7.5-7.5s-3.357-7.5-7.5-7.5h-207.9v-48.031h330.581c4.136 0 7.5 3.364 7.5 7.5v40.531h-93.154c-4.143 0-7.5 3.357-7.5 7.5s3.357 7.5 7.5 7.5h93.154v291.871c0 4.136-3.364 7.5-7.5 7.5h-55.331c2.433-7.209 4.231-14.656 5.347-22.26.601-4.099-2.233-7.908-6.332-8.51-4.092-.598-7.907 2.231-8.51 6.332-8.104 55.229-56.379 96.877-112.291 96.877-62.588 0-113.508-50.919-113.508-113.507 0-62.589 50.919-113.508 113.507-113.508 56.069 0 103.199 40.116 112.063 95.388.656 4.09 4.5 6.873 8.593 6.218 4.09-.656 6.874-4.503 6.218-8.593-4.784-29.83-20.098-57.164-43.119-76.968-23.272-20.02-53.018-31.045-83.755-31.045-55.483 0-102.863 35.346-120.814 84.701h-129.545c-4.142 0-7.5 3.357-7.5 7.5s3.358 7.5 7.5 7.5h125.11c-1.066 4.638-1.873 9.374-2.421 14.187h-122.689c-4.142 0-7.5 3.357-7.5 7.5s3.358 7.5 7.5 7.5h121.858c.042 14.218 2.401 27.901 6.724 40.688h-87.565c-4.142 0-7.5 3.357-7.5 7.5s3.358 7.5 7.5 7.5h93.728c20.861 42.843 64.845 72.439 115.615 72.439 25.957 0 51.162-7.85 72.391-22.332l14.886 14.886c-5.667 6.365-5.468 16.148.634 22.251l11.511 11.511c3.164 3.163 7.318 4.744 11.475 4.744 3.86 0 7.71-1.382 10.776-4.111l14.032 14.023c1.464 1.464 3.383 2.195 5.302 2.195 1.92 0 3.84-.732 5.305-2.198 2.929-2.93 2.927-7.679-.003-10.606l-13.995-13.987 12.567-12.567 13.992 13.992c1.465 1.464 3.385 2.196 5.304 2.196s3.839-.732 5.304-2.196c2.929-2.93 2.929-7.678 0-10.607l-14.084-14.084c2.234-2.844 3.457-6.323 3.457-9.995 0-4.336-1.688-8.411-4.753-11.475l-11.512-11.513c-5.857-5.855-15.107-6.279-21.47-1.296l-14.949-14.948c3.554-5.207 6.719-10.662 9.468-16.323h61.48c12.406 0 22.5-10.094 22.5-22.5v-347.401c-.001-12.407-10.095-22.5-22.501-22.5zm-345.581 63.031h-128.919v-40.531c0-4.136 3.364-7.5 7.5-7.5h121.419zm299.577 372.185c.314 0 .629.119.868.358l11.512 11.513c.297.297.359.636.359.868 0 .231-.063.571-.36.868l-31.725 31.726c-.479.479-1.258.479-1.738 0l-11.511-11.51c-.479-.479-.479-1.26 0-1.738l31.725-31.726c.24-.238.555-.359.87-.359zm-20.694-1.03-12.568 12.569-13.486-13.485c.002-.002.005-.004.007-.006 4.493-3.915 8.683-8.118 12.556-12.568z"/><path d="m311.66 245.48c-24.801 0-48.118 9.658-65.655 27.195s-27.195 40.854-27.195 65.655c0 51.197 41.652 92.85 92.85 92.85s92.851-41.652 92.851-92.851c0-51.197-41.653-92.849-92.851-92.849zm0 170.7c-36.831 0-67.747-25.717-75.791-60.131h57.309c4.143 0 7.5-3.357 7.5-7.5s-3.357-7.5-7.5-7.5h-59.298c-.031-.904-.069-1.807-.069-2.719 0-6.114.719-12.115 2.081-17.923h55.236c4.143 0 7.5-3.357 7.5-7.5s-3.357-7.5-7.5-7.5h-50.05c3.793-8.119 9.009-15.601 15.534-22.126 14.704-14.704 34.253-22.802 55.048-22.802 42.927 0 77.851 34.923 77.851 77.85s-34.924 77.851-77.851 77.851z"/><path d="m50.225 156.555c-4.142 0-7.5 3.357-7.5 7.5v6.431c0 16.641 13.538 30.179 30.179 30.179s30.179-13.538 30.179-30.179v-54.214c0-4.143-3.358-7.5-7.5-7.5h-33.172c-4.142 0-7.5 3.357-7.5 7.5s3.358 7.5 7.5 7.5h25.672v46.714c0 8.369-6.809 15.179-15.179 15.179s-15.179-6.81-15.179-15.179v-6.431c0-4.142-3.358-7.5-7.5-7.5z"/><path d="m175.838 170.486v-31.535c0-16.641-13.538-30.179-30.179-30.179-16.64 0-30.178 13.538-30.178 30.179v31.535c0 16.641 13.538 30.179 30.178 30.179 16.641 0 30.179-13.539 30.179-30.179zm-45.357 0v-31.535c0-8.369 6.809-15.179 15.178-15.179 8.37 0 15.179 6.81 15.179 15.179v31.535c0 8.369-6.809 15.179-15.179 15.179-8.369 0-15.178-6.81-15.178-15.179z"/><path d="m189.021 193.165c0 4.143 3.358 7.5 7.5 7.5h27.535c13.963 0 25.322-11.359 25.322-25.322v-5.604c0-8.47-4.184-15.976-10.59-20.576 3.13-4.214 4.986-9.428 4.986-15.069 0-13.963-11.359-25.322-25.322-25.322h-21.931c-4.142 0-7.5 3.357-7.5 7.5zm45.357-17.823c0 5.691-4.63 10.322-10.322 10.322h-20.035v-26.248h20.035c5.692 0 10.322 4.631 10.322 10.322zm-15.926-51.57c5.691 0 10.322 4.631 10.322 10.322s-4.63 10.322-10.322 10.322h-14.431v-20.645h14.431z"/><path d="m419.495 115.017c-8.313 8.314-8.313 21.842.001 30.156 4.156 4.156 9.616 6.234 15.077 6.234 3.006 0 6.003-.654 8.792-1.913l8.856 8.856c1.465 1.464 3.385 2.196 5.304 2.196s3.839-.732 5.304-2.196c2.929-2.93 2.929-7.678 0-10.607l-8.855-8.855c3.548-7.854 2.123-17.424-4.322-23.869 0 0 0 0 0-.001-8.315-8.313-21.842-8.313-30.157-.001zm10.608 19.549c-2.466-2.465-2.466-6.477 0-8.941 1.232-1.233 2.852-1.85 4.471-1.85s3.238.616 4.471 1.849c2.465 2.466 2.465 6.478.001 8.942-2.468 2.465-6.479 2.465-8.943 0z"/><path d="m282.803 178.381c0 4.143 3.357 7.5 7.5 7.5h171.472c4.143 0 7.5-3.357 7.5-7.5s-3.357-7.5-7.5-7.5h-171.472c-4.143 0-7.5 3.358-7.5 7.5z"/><path d="m54.523 272.836c0 4.143 3.358 7.5 7.5 7.5h74.005c4.142 0 7.5-3.357 7.5-7.5s-3.358-7.5-7.5-7.5h-74.005c-4.142 0-7.5 3.358-7.5 7.5z"/><path d="m461.723 203.915c-4.143 0-7.5 3.357-7.5 7.5s3.357 7.5 7.5 7.5h.104c4.143 0 7.5-3.357 7.5-7.5s-3.357-7.5-7.5-7.5z"/></g></g></g></svg>