<svg id="Gradient_Line" viewBox="0 0 64 64" xmlns="http://www.w3.org/2000/svg" xmlns:xlink="http://www.w3.org/1999/xlink"><linearGradient id="linear-gradient" gradientUnits="userSpaceOnUse" x1="4" x2="59.933" y1="32.009" y2="32.009"><stop offset="0" stop-color="#7f00ff"/><stop offset="1" stop-color="#e100ff"/></linearGradient><path d="m47 31c-8.47336-.13485-14.94709 8.45689-12.49495 16.54919-.00011-.00012-8.50505 4.90967-8.50505 4.90967v-20.7876l18-10.39215v5.841c.01414 1.31205 1.98296 1.31428 1.99999-.00005v-7.57027c-.00671-.05812-.0137-.11545-.02301-.17371-.03865-.29569-.2347-.53189-.47701-.6925.00001 0-19.99999-11.54981-19.99999-11.54981-.31875-.15162-.68128-.15809-1 .00004 0-.00004-20 11.54683-20 11.54683-.29463.20045-.48382.50891-.49996.86916-.00004-.00002-.00004 23.08982-.00004 23.08982 0 .35742.19043.6875.5.86621l20 11.55078c.31771.16542.68243.17325 1-.00004 0 .00004 9.71356-5.60695 9.71356-5.60695 2.06628 4.45007 6.56598 7.55035 11.78644 7.55035 17.23938-.7123 17.24828-25.28431 0-26zm-32-16.07166 17.99963 10.39197-7.99963 4.61853-17.99963-10.39196 7.99963-4.61853zm9.99994-5.77344 17.99762 10.39319-7.99756 4.61731-17.99963-10.39197zm-18.99994 12.12421 18 10.39215v20.78729l-18-10.39606v-20.78339zm41 33.72089c-6.06543 0-11-4.93457-11-11 .60422-14.593 21.39801-14.58875 22.00002.00008-.00002 6.06535-4.93459 10.99992-11.00002 10.99992zm6-10h-5v5c0 .55273-.44727 1-1 1s-1-.44727-1-1v-5h-5c-.55273 0-1-.44727-1-1s.44727-1 1-1h5s0-5 0-4.99995c.02193-1.31747 1.97941-1.31093 2-.00005v5h5c1.31742.02194 1.31089 1.97941 0 2z" fill="url(#linear-gradient)"/></svg>