<svg id="glipy_copy" viewBox="0 0 64 64" xmlns="http://www.w3.org/2000/svg" xmlns:xlink="http://www.w3.org/1999/xlink" data-name="glipy copy"><linearGradient id="linear-gradient" gradientUnits="userSpaceOnUse" x1="4" x2="60" y1="32" y2="32"><stop offset="0" stop-color="#00c0ff"/><stop offset="1" stop-color="#5558ff"/></linearGradient><path d="m59.45323 27.30245c-1.42415.70762-5.47061 2.74977-6.85093 3.43047l-14.752 7.371a1.00032 1.00032 0 0 1 -1.1602-.18l-3.69049-3.70052-1.00014-1.00014-1.00014 1.00014-3.69045 3.70052a1.00229 1.00229 0 0 1 -1.1602.18c-4.69035-2.3431-17.1079-8.54629-21.603-10.80149a1.00835 1.00835 0 0 1 -.26017-1.6002c.03-.02008 5.39583-5.41481 5.43081-5.42079a.969.969 0 0 1 .34007-.21l10.47149-5.25073a9.55346 9.55346 0 0 0 .34 2.07029l-8.23108 4.1206 19.36267 9.68134 19.36267-9.68134-8.23114-4.1206c.04993-.17006.09-.34007.13-.52009a10.13821 10.13821 0 0 0 .21-1.5502l10.47143 5.25067a1.13466 1.13466 0 0 1 .37016.23007l5.40066 5.40077a1.00841 1.00841 0 0 1 -.26002 1.60023zm-32.85454 12.91183a2.93682 2.93682 0 0 1 -1.36017-.33006l-15.84216-7.92109v16.05222a.97719.97719 0 0 0 .55006.89014l21.05291 10.53143v-22.38311c-1.13907 1.00526-2.68348 3.30569-4.40064 3.16047zm12.18175-.34008a3.02037 3.02037 0 0 1 -3.47044-.50013l-2.31038-2.32026v22.38311l21.053-10.53143a.97724.97724 0 0 0 .55-.89014v-16.05222l-1.11014.56008zm-16.28229-26.03358c.683-12.36854 18.318-12.37153 19.00264-.00012a9.50282 9.50282 0 1 1 -19.00264.00012zm5.39076 1.17015h3.11042v3.11042a1.00014 1.00014 0 0 0 2.00028 0v-3.11042h3.11039a1.00014 1.00014 0 1 0 0-2.00028h-3.11039v-3.11042a1.00014 1.00014 0 1 0 -2.00028 0v3.11042h-3.11042a1.00025 1.00025 0 0 0 0 2.00028z" fill="url(#linear-gradient)"/></svg>