<svg clip-rule="evenodd" fill-rule="evenodd" stroke-linejoin="round" stroke-miterlimit="2" viewBox="0 0 32 32" xmlns="http://www.w3.org/2000/svg" xmlns:xlink="http://www.w3.org/1999/xlink"><linearGradient id="_Linear1" gradientTransform="matrix(28 0 0 172 290 88)" gradientUnits="userSpaceOnUse" x1="0" x2="1" y1="0" y2="0"><stop offset="0" stop-color="#ffd4d4"/><stop offset=".47" stop-color="#f88"/><stop offset="1" stop-color="#f00"/></linearGradient><g transform="translate(-288)"><path d="m304 2c-7.727 0-14 6.273-14 14s6.273 14 14 14 14-6.273 14-14-6.273-14-14-14zm0 2c6.623 0 12 5.377 12 12s-5.377 12-12 12-12-5.377-12-12 5.377-12 12-12zm-6.586 13h15.586c.552 0 1-.448 1-1s-.448-1-1-1h-15.586l7.293-7.293c.39-.39.39-1.024 0-1.414s-1.024-.39-1.414 0l-9 9c-.391.39-.391 1.024 0 1.414l9 9c.39.39 1.024.39 1.414 0s.39-1.024 0-1.414z" fill="url(#_Linear1)"/></g></svg>