<svg id="Layer_1" enable-background="new 0 0 512 512" viewBox="0 0 512 512" xmlns="http://www.w3.org/2000/svg"><g clip-rule="evenodd" fill-rule="evenodd"><g fill="#ef4339"><path d="m416.727 168.37h-113.24c-6.991 0-12.71 5.719-12.71 12.71s5.721 12.711 12.71 12.711h113.24c6.99 0 12.71-5.72 12.71-12.711s-5.719-12.71-12.71-12.71z"/><path d="m303.487 152.37h113.24c1.43 0 2.836.107 4.211.31 1.23-1.832 2.662-3.905 4.357-6.325 15.456-22.062 12.323-29.536-25.431-15.581-15.848 5.858-9.175-22.744-39.757-22.744s-23.909 28.602-39.757 22.744c-37.754-13.955-40.887-6.481-25.431 15.581 1.695 2.42 3.127 4.493 4.357 6.325 1.375-.203 2.78-.31 4.211-.31z"/><path d="m416.727 209.79h-113.24c-3.929 0-7.676-.795-11.091-2.232-46.905 49.719-79.485 114.828-32.766 167.992 36.462-21.827 83.938-7.946 102.983 30.154-1.093-2.769-1.675-5.79-1.632-8.948l.274-19.801c.04-2.868.594-5.611 1.571-8.144-39.75 1.523-72.696-30.243-72.696-69.919 0-38.647 31.33-69.977 69.977-69.977s69.977 31.33 69.977 69.977c0 22.285-10.418 42.137-26.649 54.951l71.31.678c24.111-49.075-6.377-103.979-46.927-146.963-3.415 1.437-7.163 2.232-11.091 2.232z"/><path d="m368.107 257.3c0-4.418-3.582-8-8-8s-8 3.582-8 8v5.368c-3.663 1.082-6.943 3.072-9.576 5.705-14.265 14.266-3.963 38.519 15.947 38.519 3.11 0 5.571-.385 7.892 1.937 4.204 4.204 1.079 11.206-4.635 11.206-4.18 0-7.453.67-9.932-2.754-2.589-3.573-7.583-4.37-11.156-1.781s-4.37 7.583-1.781 11.156c3.166 4.374 7.926 7.546 13.241 8.794v5.035c0 4.418 3.582 8 8 8s8-3.582 8-8v-5.368c3.663-1.083 6.943-3.072 9.576-5.705 14.264-14.264 3.964-38.519-15.947-38.519-3.11 0-5.571.385-7.892-1.937-4.203-4.203-1.08-11.206 4.634-11.206 4.179 0 7.454-.67 9.933 2.754 2.589 3.573 7.583 4.37 11.156 1.781s4.37-7.584 1.781-11.156c-3.166-4.374-7.927-7.546-13.241-8.794z"/><path d="m354.297 438.361c0-31.566-25.589-57.156-57.155-57.156s-57.155 25.59-57.155 57.156 25.589 57.156 57.155 57.156c31.566-.001 57.155-25.59 57.155-57.156zm-57.155-41.971c4.418 0 8 3.582 8 8v2.991c4.234 1.268 7.977 3.913 10.534 7.445 2.589 3.572 1.791 8.567-1.781 11.156-3.573 2.589-8.568 1.791-11.156-1.781-1.574-2.174-3.79-1.643-6.927-1.643-5.125 0-5.124 7.803 0 7.803h2.661c17.561 0 26.635 21.388 14.061 33.963-2.066 2.067-4.585 3.684-7.392 4.687v3.321c0 4.418-3.582 8-8 8s-8-3.582-8-8v-2.991c-4.233-1.268-7.977-3.912-10.534-7.445-2.589-3.573-1.791-8.568 1.781-11.156 3.572-2.589 8.567-1.791 11.156 1.781 1.574 2.174 3.791 1.643 6.927 1.643 5.124 0 5.125-7.803 0-7.803h-2.661c-17.564 0-26.634-21.392-14.061-33.964 2.067-2.066 4.585-3.683 7.392-4.686v-3.321c0-4.418 3.582-8 8-8z"/><path d="m376.98 396.978c-.058 4.17 3.307 7.614 7.477 7.653l110.583 1.051c4.17.039 7.629-3.339 7.686-7.509l.274-19.801c.058-4.169-3.307-7.614-7.477-7.653l-110.583-1.051c-4.17-.04-7.629 3.34-7.686 7.509z"/><path d="m495.522 415.682-110.583-1.051c-4.17-.04-7.629 3.339-7.686 7.509l-.274 19.801c-.058 4.17 3.307 7.614 7.477 7.653l110.583 1.051c4.17.04 7.629-3.339 7.686-7.509l.274-19.801c.058-4.169-3.307-7.613-7.477-7.653z"/><path d="m495.522 460.646-110.583-1.051c-4.17-.04-7.629 3.34-7.686 7.509l-.274 19.801c-.058 4.17 3.307 7.614 7.477 7.653l110.583 1.051c4.17.04 7.629-3.339 7.686-7.509l.274-19.801c.058-4.169-3.307-7.613-7.477-7.653z"/></g><path d="m58.15 202.491v-100.175h57.748c15.537 0 28.177-12.64 28.177-28.177v-57.749h174.918c7.428 0 13.486 6.062 13.486 13.486v70.538c-4.995 3.749-8.471 8.143-11.81 13.437-13.395-4.798-31.915-10.221-43.037-1.244-1.153.931-2.153 1.903-3.014 2.908-1.39-2.363-3.96-3.95-6.9-3.95h-139.461c-4.418 0-8 3.582-8 8s3.582 8 8 8h139.461c.858 0 1.683-.136 2.458-.385-.316 11.679 8.054 23.093 14.403 32.321-10.997 9.65-13.034 25.974-4.631 37.987-1.783 1.912-3.554 3.855-5.308 5.826 3.058-5.26-.707-12.013-6.922-12.013h-139.461c-5.807 0-9.61 5.968-7.338 11.189h-62.769zm-33.155 16h167.485c8.797 0 15.995 7.198 15.995 15.995v214.53c0 8.798-7.198 15.995-15.995 15.995h-167.485c-8.797 0-15.995-7.197-15.995-15.995v-214.53c0-8.797 7.198-15.995 15.995-15.995zm15.865 28.226c-1.999 0-3.634 1.635-3.634 3.633v28.959c0 1.999 1.635 3.634 3.634 3.634h135.755c1.999 0 3.634-1.635 3.634-3.634v-28.959c0-1.999-1.635-3.633-3.634-3.633zm58.648 85.802h18.459c1.492 0 2.713-1.22 2.713-2.713v-18.459c0-1.492-1.221-2.712-2.713-2.712h-18.459c-1.492 0-2.713 1.22-2.713 2.712v18.459c.001 1.493 1.221 2.713 2.713 2.713zm-55.24 52.704h18.459c1.492 0 2.713-1.22 2.713-2.713v-18.459c0-1.492-1.221-2.712-2.713-2.712h-18.459c-1.493 0-2.712 1.22-2.712 2.712v18.459c0 1.493 1.22 2.713 2.712 2.713zm55.24 52.703h18.459c1.492 0 2.713-1.22 2.713-2.713v-18.459c0-1.492-1.221-2.712-2.713-2.712h-18.459c-1.492 0-2.713 1.22-2.713 2.712v18.459c.001 1.493 1.221 2.713 2.713 2.713zm-55.24 0h18.459c1.492 0 2.713-1.22 2.713-2.713v-18.459c0-1.492-1.221-2.712-2.713-2.712h-18.459c-1.493 0-2.712 1.22-2.712 2.712v18.459c0 1.493 1.22 2.713 2.712 2.713zm55.24-52.703h18.459c1.492 0 2.713-1.22 2.713-2.713v-18.459c0-1.492-1.221-2.712-2.713-2.712h-18.459c-1.492 0-2.713 1.22-2.713 2.712v18.459c.001 1.493 1.221 2.713 2.713 2.713zm-55.24-52.704h18.459c1.492 0 2.713-1.22 2.713-2.713v-18.459c0-1.492-1.221-2.712-2.713-2.712h-18.459c-1.493 0-2.712 1.22-2.712 2.712v18.459c0 1.493 1.22 2.713 2.712 2.713zm110.48 0h18.458c1.492 0 2.713-1.22 2.713-2.713v-18.459c0-1.492-1.221-2.712-2.713-2.712h-18.458c-1.493 0-2.713 1.22-2.713 2.712v18.459c0 1.493 1.221 2.713 2.713 2.713zm-2.859 105.678h24.726c1.999 0 3.634-1.541 3.634-3.426v-71.221c0-1.885-1.635-3.426-3.634-3.426h-24.726c-1.999 0-3.634 1.542-3.634 3.426v71.221c0 1.884 1.635 3.426 3.634 3.426zm-27.764-417.857-62.025 62.026c-1.199 1.199-2.127 2.518-2.781 3.95h56.579c6.706 0 12.177-5.47 12.177-12.177v-56.58c-1.433.654-2.751 1.582-3.95 2.781zm85.196 186.962h58.396c1.825 0 3.506-.611 4.852-1.64-7.053 8.078-13.809 16.615-19.976 25.508h-28.29c-1.044-10.066-6.784-18.767-14.982-23.868zm15.154 39.867h17.92c-4.51 7.774-8.48 15.753-11.751 23.868h-6.169zm0 39.868h.729c-.253.918-.496 1.838-.729 2.759zm-96.218-119.603h139.461c4.418 0 8-3.582 8-8s-3.582-8-8-8h-139.461c-4.418 0-8 3.582-8 8s3.582 8 8 8z" fill="#004960"/></g></svg>