<svg clip-rule="evenodd" fill-rule="evenodd" height="512" image-rendering="optimizeQuality" shape-rendering="geometricPrecision" text-rendering="geometricPrecision" viewBox="0 0 512 512" width="512" xmlns="http://www.w3.org/2000/svg" xmlns:xodm="http://www.corel.com/coreldraw/odm/2003"><g id="Layer_x0020_1"><g id="_1994434646656"><g><g><g id="_191882552"><path d="m326.75 219.1c-.37 0-.74-.04-1.11-.11-1.71-.32-3.2-1.37-4.07-2.87l-32.98-56.53c-1.67-2.87-.7-6.54 2.16-8.21 2.87-1.67 6.54-.7 8.21 2.16l29.48 50.54 10.26-8.17-18.76-36.61c-1.51-2.95-.35-6.57 2.6-8.08s6.56-.34 8.08 2.61l21 40.98c1.3 2.54.63 5.65-1.6 7.43l-19.54 15.55c-1.07.85-2.39 1.31-3.73 1.31z"/></g><g id="_191884712"><path d="m334.19 282.66c-3.31 0-6-2.69-6-6v-69.49c0-3.31 2.69-6 6-6s6 2.69 6 6v69.49c0 3.31-2.69 6-6 6z"/></g></g><g id="_191882648"><path d="m481.12 511.96h-450.24c-3.31 0-6-2.69-6-6v-193.09c0-3.32 2.69-6 6-6h450.24c3.31 0 6 2.68 6 6v193.09c0 3.31-2.69 6-6 6zm-444.24-12h438.24v-181.09h-438.24z"/></g><g id="_191883704"><path d="m503.86 318.87h-495.72c-3.32 0-6-2.69-6-6v-36.21c0-3.31 2.68-6 6-6h495.72c3.31 0 6 2.69 6 6v36.21c0 3.31-2.69 6-6 6zm-489.72-12h483.72v-24.21h-483.72z"/></g><g id="_191883752"><path d="m137.94 282.66h-32.48c-3.32 0-6-2.69-6-6v-95.61c0-3.31 2.68-6 6-6h32.48c3.32 0 6 2.69 6 6v95.61c0 3.31-2.68 6-6 6zm-26.49-12h20.49v-83.61h-20.49z"/></g><g id="_191883560"><path d="m199.68 243.67h-61.74c-3.31 0-6-2.68-6-5.99 0-3.32 2.69-6 6-6h55.74v-91.05h-143.96v91.05h55.74c3.31 0 6 2.68 6 6 0 3.31-2.69 5.99-6 5.99h-61.74c-3.31 0-6-2.68-6-5.99v-103.05c0-3.31 2.69-6 6-6h155.96c3.31 0 6 2.69 6 6v103.05c0 3.31-2.69 5.99-6 5.99z"/></g><g id="_191884832"><path d="m468.28 282.66h-244c-3.31 0-6-2.69-6-6v-60.05c0-36.42 29.63-66.05 66.05-66.05h40.95c3.31 0 6 2.69 6 6 0 3.32-2.69 6-6 6h-40.95c-29.81 0-54.05 24.25-54.05 54.05v54.05h232v-54.05c0-29.8-24.25-54.05-54.05-54.05h-40.95c-3.31 0-6-2.68-6-6 0-3.31 2.69-6 6-6h40.95c36.42 0 66.05 29.63 66.05 66.05v60.05c0 3.31-2.69 6-6 6z"/></g><g id="_191885216"><path d="m260.95 282.66c-3.31 0-6-2.69-6-6v-36.91c0-3.31 2.69-6 6-6s6 2.69 6 6v36.91c0 3.31-2.68 6-6 6z"/></g><g id="_191885384"><path d="m431.61 282.66c-3.32 0-6-2.69-6-6v-36.91c0-3.31 2.68-6 6-6 3.31 0 5.99 2.69 5.99 6v36.91c0 3.31-2.68 6-5.99 6z"/></g><g id="_191885456"><path d="m346.28 147.88c-24.79 0-37.45-14.01-43.7-25.75-4.17-7.85-6.03-15.66-6.83-20.42-6.93-2.27-11.92-7.86-13.46-15.4-1.74-8.57 1.72-17.12 8.43-20.77 2.9-1.59 6.55-.52 8.14 2.39s.51 6.55-2.4 8.14c-2.05 1.12-3.09 4.49-2.41 7.84.47 2.33 2.1 6.32 7.69 6.87 2.92.28 5.21 2.65 5.4 5.58.11 1.6 3.14 39.52 39.14 39.52 15.13 0 26.26-6.52 33.11-19.38 5.33-10.03 6.03-20.04 6.03-20.14.19-2.93 2.48-5.29 5.4-5.58 5.53-.55 7.11-4.63 7.55-7.01.68-3.64-.55-6.94-2.14-7.75-2.96-1.5-4.14-5.11-2.64-8.06 1.5-2.96 5.11-4.14 8.06-2.64 6.66 3.37 10.16 11.87 8.51 20.66-1.44 7.71-6.39 13.41-13.35 15.73-.8 4.75-2.65 12.57-6.83 20.42-6.25 11.74-18.9 25.75-43.7 25.75z"/></g><g id="_191885528"><path d="m325.28 162.56c-3.31 0-6-2.68-6-6v-19.42c0-3.31 2.69-6 6-6s6 2.69 6 6v19.42c0 3.32-2.69 6-6 6z"/></g><g id="_191885600"><path d="m367.28 162.56c-3.31 0-6-2.68-6-6v-19.42c0-3.31 2.69-6 6-6s6 2.69 6 6v19.42c0 3.32-2.69 6-6 6z"/></g><g id="_191885672"><path d="m397.16 78.39c-.6 0-1.2-.09-1.8-.27-2.01-.64-3.55-2.29-4.03-4.35-4.94-20.91-13.52-20.91-17.19-20.91-7.54 0-17.42 4.61-25.18 8.62-1.73.9-3.79.9-5.51 0-7.77-4.01-17.64-8.62-25.19-8.62-3.66 0-12.24 0-17.18 20.91-.49 2.06-2.02 3.71-4.04 4.35-2.02.63-4.22.15-5.8-1.26-10.72-9.59-13.7-23.39-8.18-37.85 7.22-18.89 30.6-38.97 59.71-38.97 1.14 0 2.29.03 3.43.1 1.14-.07 2.29-.1 3.44-.1 29.11 0 52.49 20.08 59.71 38.97 5.52 14.46 2.54 28.26-8.18 37.85-1.12 1-2.55 1.53-4.01 1.53zm-23.02-37.53c11.22 0 19.58 6.14 24.97 18.27 1.86-5.64.73-11.37-.97-15.84-5.79-15.15-24.76-31.25-48.51-31.25-1.02 0-2.05.03-3.07.09-.24.02-.48.02-.72 0-1.02-.06-2.05-.09-3.07-.09-23.75 0-42.71 16.1-48.5 31.25-1.71 4.47-2.84 10.2-.98 15.84 5.39-12.14 13.75-18.27 24.97-18.27 9.12 0 19.07 4.12 27.94 8.56 8.87-4.43 18.83-8.56 27.94-8.56z"/></g><g><g id="_191885048"><path d="m365.81 219.1c-1.35 0-2.67-.46-3.74-1.31l-19.53-15.55c-2.23-1.78-2.9-4.88-1.6-7.43l21-40.98c1.51-2.95 5.13-4.12 8.08-2.61 2.94 1.51 4.11 5.13 2.6 8.08l-18.76 36.61 10.26 8.17 29.48-50.54c1.67-2.86 5.34-3.83 8.2-2.16 2.87 1.67 3.83 5.34 2.16 8.21l-32.97 56.53c-.88 1.5-2.36 2.55-4.08 2.87-.36.07-.73.11-1.1.11z"/></g><g id="_191885840"><path d="m358.37 282.66c-3.31 0-6-2.69-6-6v-69.49c0-3.31 2.69-6 6-6s6 2.69 6 6v69.49c0 3.31-2.69 6-6 6z"/></g></g><g><g id="_191885816"><path d="m362.7 464.15h-213.41c-3.31 0-6-2.69-6-6v-97.47c0-3.32 2.69-6 6-6h213.41c3.32 0 6 2.68 6 6v97.47c0 3.31-2.69 6-6 6zm-207.41-12h201.41v-85.48h-201.41z"/></g><g id="_191886008"><path d="m435.77 415.41h-73.07c-3.31 0-6-2.69-6-6s2.69-6 6-6h73.07c3.32 0 6 2.69 6 6s-2.68 6-6 6z"/></g><g id="_191886080"><path d="m149.29 415.41h-73.07c-3.31 0-6-2.69-6-6s2.69-6 6-6h73.07c3.32 0 6 2.69 6 6s-2.68 6-6 6z"/></g></g><g id="_191885984"><path d="m436.4 224.97h-34.01c-3.32 0-6-2.69-6-6v-20.16c0-3.32 2.68-6 6-6h34.01c3.32 0 6 2.68 6 6v20.16c0 3.31-2.68 6-6 6zm-28.01-12h22.01v-8.17h-22.01z"/></g></g></g></g></svg>