<svg enable-background="new 0 0 256 256" height="512" viewBox="0 0 256 256" width="512" xmlns="http://www.w3.org/2000/svg"><g id="Layer_38"><g><g><g><path d="m225.096 222.698h-93.97c-1.695 0-3.069 1.374-3.069 3.068v24.665c0 1.695 1.374 3.069 3.069 3.069h93.97c1.695 0 3.069-1.374 3.069-3.069v-24.665c-.001-1.695-1.375-3.068-3.069-3.068z" fill="#5290db"/></g></g><g><g><path d="m219.314 157.413v-12.442c0-2.193-1.778-3.971-3.971-3.971h-31.92c-2.193 0-3.971 1.778-3.971 3.971v12.442c0 2.193 1.778 3.971 3.971 3.971h31.92c2.193 0 3.971-1.778 3.971-3.971z" fill="#fc657e"/></g></g><g><g><g><path d="m189.837 161.384h18.899v11.81h-18.899z" fill="#5290db"/></g></g></g><g><g><path d="m218.799 173.194h-51.493v10.834h-20.045v-10.834h-9.84c-2.703 0-4.915 2.212-4.915 4.915v44.589h91.207v-44.589c.001-2.703-2.211-4.915-4.914-4.915z" fill="#5290db"/></g></g><g><g><path d="m165.354 151.359h-16.141c-1.078 0-1.952.874-1.952 1.952v30.717h20.045v-30.717c0-1.078-.874-1.952-1.952-1.952z" fill="#edf4fc"/></g></g><g><g><path d="m156.876 222.698v6.068c0 2.991 2.425 5.416 5.416 5.416h31.638c2.991 0 5.416-2.425 5.416-5.416v-6.068z" fill="#6fafef"/></g></g><g><g><path d="m210.272 183.264h-21.97c-1.561 0-2.827 1.266-2.827 2.827v13.807c0 1.561 1.266 2.827 2.827 2.827h21.97c1.561 0 2.827-1.266 2.827-2.827v-13.807c0-1.561-1.266-2.827-2.827-2.827z" fill="#70d6f9"/></g></g><g><g><path d="m139.625 71.985c-.759 0-1.502.064-2.229.177v26.293c0 .783-.036 1.558-.088 2.329.756.122 1.526.202 2.316.202 8.009 0 14.501-6.492 14.501-14.501 0-8.008-6.492-14.5-14.5-14.5z" fill="#f9d0b4"/></g></g><g><g><path d="m119.277 60.642c-5.29 6.174-24.047 24.906-51.344 17.13v20.684c0 19.102 15.629 34.732 34.732 34.732 19.102 0 34.732-15.629 34.732-34.732v-28.06c0-1.276-.893-2.358-2.136-2.646-3.515-.814-7.782-2.85-12.673-7.294-.969-.879-2.461-.807-3.311.186z" fill="#f9d0b4"/></g></g><g><g><path d="m67.933 77.771c-2.385-.679-4.834-1.559-7.346-2.668-1.619-.715-3.511-.386-4.803.825-2.817 2.641-4.581 6.39-4.581 10.557 0 8.008 6.492 14.501 14.501 14.501.79 0 1.56-.08 2.316-.202-.052-.771-.088-1.546-.088-2.329v-20.684z" fill="#f9d0b4"/></g></g><g><g><g><path d="m55.784 75.929c1.291-1.211 3.183-1.54 4.803-.825 2.512 1.109 4.961 1.988 7.346 2.668 27.297 7.776 46.055-10.956 51.344-17.13.85-.992 2.342-1.065 3.309-.186 4.892 4.445 9.159 6.48 12.673 7.294 1.243.288 2.136 1.37 2.136 2.646v1.766c.727-.113 1.47-.177 2.229-.177 4.012 0 7.643 1.63 10.268 4.263v-8.494c0-25.976-21.253-47.229-47.229-47.229s-47.229 21.253-47.229 47.229v8.535c.119-.118.228-.246.35-.36z" fill="#754e34"/></g></g></g><g><g><path d="m133.912 152.754c1.691.777 3.447 1.406 5.253 1.861l8.096 2.044v-3.348c0-1.078.874-1.952 1.952-1.952h6.81c-3.085-11.859-14.556-20.182-10.685-29.859 4.1-10.251 3.995-18.131 2.92-23.384-2.414 1.795-5.395 2.871-8.634 2.871-.79 0-1.56-.081-2.316-.202-.816 12.152-7.945 22.646-18.124 28.194v10.533c0 2.163.738 4.205 2.005 5.86l1.37-1.441c.702-.739 1.866-.779 2.619-.092l8.134 7.427c.432.393.631.944.6 1.488z" fill="#754e34"/></g></g><g><g><path d="m72.016 151.265 8.134-7.427c.753-.687 1.917-.646 2.619.092l1.37 1.441c1.267-1.655 2.005-3.696 2.005-5.86v-10.533c-10.179-5.548-17.308-16.042-18.124-28.194-.756.122-1.526.202-2.316.202-3.239 0-6.22-1.075-8.634-2.87-1.075 5.253-1.18 13.133 2.92 23.384 4.655 11.637-12.887 21.309-11.338 37.536l17.511-4.42c1.806-.455 3.562-1.084 5.253-1.861-.031-.545.169-1.096.6-1.49z" fill="#754e34"/></g></g><g><g><g><path d="m128.057 250.431v-24.665c0-1.695 1.374-3.068 3.069-3.068h1.382v-44.589c0-2.703 2.212-4.915 4.915-4.915h9.84v-16.535l-8.096-2.044c-1.806-.455-3.562-1.084-5.253-1.861-.022.385-.155.767-.419 1.086l-15.054 18.224c-.879 1.064-2.495 1.109-3.431.094l-8.157-8.837c-.468-.508-.642-1.186-.526-1.821h-7.323c.116.635-.057 1.313-.526 1.821l-8.157 8.837c-.936 1.014-2.552.97-3.431-.094l-15.055-18.224c-.264-.319-.397-.701-.419-1.086-1.691.777-3.447 1.406-5.253 1.861l-24.833 6.269c-6.044 1.521-10.396 6.796-10.743 13.019l-2.744 75.418c-.127 2.269 1.68 4.179 3.953 4.179h21.99c1.478 0 2.677-1.198 2.677-2.677v-47.143l3.883 12.439c2.539 8.133 3.83 16.604 3.83 25.124v9.58c0 1.478 1.198 2.677 2.677 2.677h30.345 10.936 22.993c-1.696 0-3.07-1.374-3.07-3.069z" fill="#fc8c48"/></g></g></g><g><g><path d="m102.664 133.187c-5.97 0-11.6-1.526-16.52-4.208v10.533c0 2.163-.738 4.205-2.005 5.86l14.317 15.051c.294.309.475.685.547 1.078h7.323c.072-.393.253-.769.547-1.078l14.317-15.051c-1.267-1.655-2.005-3.696-2.005-5.86v-10.533c-4.921 2.682-10.551 4.208-16.521 4.208z" fill="#f9d0b4"/></g></g><g><g><path d="m89.22 211.373h-18.112c-1.963 0-3.554-1.591-3.554-3.554v-10.756c0-1.963 1.591-3.554 3.554-3.554h18.112c1.963 0 3.554 1.591 3.554 3.554v10.756c0 1.963-1.591 3.554-3.554 3.554z" fill="#edf4fc"/></g></g><g><g><path d="m133.313 151.265-8.134-7.427c-.753-.687-1.917-.646-2.619.092l-15.687 16.491c-.77.81-.78 2.078-.022 2.899l8.157 8.837c.936 1.014 2.552.97 3.431-.094l15.054-18.223c.636-.769.556-1.902-.18-2.575z" fill="#edf4fc"/></g></g><g><g><path d="m72.016 151.265 8.134-7.427c.753-.687 1.917-.646 2.619.092l15.687 16.491c.77.81.78 2.078.022 2.899l-8.157 8.837c-.936 1.014-2.552.97-3.431-.094l-15.055-18.223c-.636-.769-.556-1.902.181-2.575z" fill="#edf4fc"/></g></g><g><g><path d="m102.664 117.757c-4.776 0-9.262-1.95-11.999-5.215-.887-1.058-.748-2.635.31-3.522 1.06-.887 2.635-.747 3.522.31 1.798 2.146 4.852 3.427 8.167 3.427s6.369-1.281 8.167-3.427c.887-1.058 2.463-1.197 3.522-.31 1.058.887 1.197 2.464.31 3.522-2.737 3.266-7.223 5.215-11.999 5.215z"/></g></g><g><g><circle cx="117.775" cy="90.5" r="4.5"/></g></g><g><g><circle cx="87.554" cy="90.5" r="4.5"/></g></g><g><g><path d="m102.664 177.703c-1.381 0-2.5-1.119-2.5-2.5v-1.35c0-1.381 1.119-2.5 2.5-2.5s2.5 1.119 2.5 2.5v1.35c0 1.38-1.119 2.5-2.5 2.5z"/></g></g><g><g><path d="m102.664 189.703c-1.381 0-2.5-1.119-2.5-2.5v-1.35c0-1.381 1.119-2.5 2.5-2.5s2.5 1.119 2.5 2.5v1.35c0 1.38-1.119 2.5-2.5 2.5z"/></g></g><g><g><path d="m102.664 201.703c-1.381 0-2.5-1.119-2.5-2.5v-1.35c0-1.381 1.119-2.5 2.5-2.5s2.5 1.119 2.5 2.5v1.35c0 1.38-1.119 2.5-2.5 2.5z"/></g></g><g><g><path d="m225.096 256h-93.971c-3.07 0-5.568-2.498-5.568-5.568v-24.666c0-3.07 2.498-5.568 5.568-5.568h93.971c3.07 0 5.568 2.498 5.568 5.568v24.666c0 3.07-2.498 5.568-5.568 5.568zm-93.971-30.802c-.313 0-.568.255-.568.568v24.666c0 .313.255.568.568.568h93.971c.313 0 .568-.255.568-.568v-24.666c0-.313-.255-.568-.568-.568z"/></g></g><g><g><path d="m215.343 163.884h-31.92c-3.568 0-6.471-2.903-6.471-6.471v-12.442c0-3.568 2.902-6.471 6.471-6.471h31.92c3.568 0 6.471 2.903 6.471 6.471v12.442c-.001 3.568-2.903 6.471-6.471 6.471zm-31.92-20.384c-.811 0-1.471.66-1.471 1.471v12.442c0 .811.66 1.471 1.471 1.471h31.92c.811 0 1.471-.66 1.471-1.471v-12.442c0-.811-.66-1.471-1.471-1.471z"/></g></g><g><g><g><path d="m208.736 174.688c-1.381 0-2.5-1.119-2.5-2.5v-9.75c0-1.381 1.119-2.5 2.5-2.5s2.5 1.119 2.5 2.5v9.75c0 1.381-1.119 2.5-2.5 2.5z"/></g></g><g><g><path d="m189.838 174.688c-1.381 0-2.5-1.119-2.5-2.5v-9.938c0-1.381 1.119-2.5 2.5-2.5s2.5 1.119 2.5 2.5v9.938c0 1.38-1.119 2.5-2.5 2.5z"/></g></g></g><g><g><path d="m209.187 153.692h-19.801c-1.381 0-2.5-1.119-2.5-2.5s1.119-2.5 2.5-2.5h19.801c1.381 0 2.5 1.119 2.5 2.5s-1.119 2.5-2.5 2.5z"/></g></g><g><g><path d="m170.118 186.528h-25.669c-1.381 0-2.5-1.119-2.5-2.5s1.119-2.5 2.5-2.5h25.669c1.381 0 2.5 1.119 2.5 2.5s-1.119 2.5-2.5 2.5z"/></g></g><g><g><path d="m223.714 224.542c-1.381 0-2.5-1.119-2.5-2.5v-43.933c0-1.332-1.083-2.415-2.415-2.415h-50.673c-1.381 0-2.5-1.119-2.5-2.5s1.119-2.5 2.5-2.5h50.673c4.089 0 7.415 3.326 7.415 7.415v43.933c0 1.38-1.119 2.5-2.5 2.5z"/></g></g><g><g><path d="m132.507 224.406c-1.381 0-2.5-1.119-2.5-2.5v-43.797c0-4.089 3.326-7.415 7.415-7.415h8.828c1.381 0 2.5 1.119 2.5 2.5s-1.119 2.5-2.5 2.5h-8.828c-1.332 0-2.415 1.083-2.415 2.415v43.797c0 1.381-1.119 2.5-2.5 2.5z"/></g></g><g><g><path d="m147.583 196.356h-3.3c-1.381 0-2.5-1.119-2.5-2.5s1.119-2.5 2.5-2.5h3.3c1.381 0 2.5 1.119 2.5 2.5s-1.119 2.5-2.5 2.5z"/></g></g><g><g><path d="m159.685 196.356h-3.301c-1.381 0-2.5-1.119-2.5-2.5s1.119-2.5 2.5-2.5h3.301c1.381 0 2.5 1.119 2.5 2.5s-1.12 2.5-2.5 2.5z"/></g></g><g><g><path d="m171.785 196.356h-3.301c-1.381 0-2.5-1.119-2.5-2.5s1.119-2.5 2.5-2.5h3.301c1.381 0 2.5 1.119 2.5 2.5s-1.119 2.5-2.5 2.5z"/></g></g><g><g><path d="m147.583 205.396h-3.3c-1.381 0-2.5-1.119-2.5-2.5s1.119-2.5 2.5-2.5h3.3c1.381 0 2.5 1.119 2.5 2.5s-1.119 2.5-2.5 2.5z"/></g></g><g><g><path d="m159.685 205.396h-3.301c-1.381 0-2.5-1.119-2.5-2.5s1.119-2.5 2.5-2.5h3.301c1.381 0 2.5 1.119 2.5 2.5s-1.12 2.5-2.5 2.5z"/></g></g><g><g><path d="m171.785 205.396h-3.301c-1.381 0-2.5-1.119-2.5-2.5s1.119-2.5 2.5-2.5h3.301c1.381 0 2.5 1.119 2.5 2.5s-1.119 2.5-2.5 2.5z"/></g></g><g><g><path d="m147.583 214.436h-3.3c-1.381 0-2.5-1.119-2.5-2.5s1.119-2.5 2.5-2.5h3.3c1.381 0 2.5 1.119 2.5 2.5s-1.119 2.5-2.5 2.5z"/></g></g><g><g><path d="m159.685 214.436h-3.301c-1.381 0-2.5-1.119-2.5-2.5s1.119-2.5 2.5-2.5h3.301c1.381 0 2.5 1.119 2.5 2.5s-1.12 2.5-2.5 2.5z"/></g></g><g><g><path d="m171.785 214.436h-3.301c-1.381 0-2.5-1.119-2.5-2.5s1.119-2.5 2.5-2.5h3.301c1.381 0 2.5 1.119 2.5 2.5s-1.119 2.5-2.5 2.5z"/></g></g><g><g><path d="m80.164 200.142c-1.381 0-2.5-1.119-2.5-2.5v-9.015c0-1.381 1.119-2.5 2.5-2.5s2.5 1.119 2.5 2.5v9.015c0 1.38-1.119 2.5-2.5 2.5z"/></g></g><g><g><path d="m46.822 125.33c-4.498-.838-8.043-4.31-8.898-8.716-.043-.221-.352-.221-.395 0-.855 4.406-4.4 7.879-8.898 8.716-.226.042-.226.345 0 .387 4.498.838 8.043 4.31 8.898 8.717.043.221.352.221.395 0 .855-4.406 4.4-7.879 8.898-8.717.225-.042.225-.344 0-.387z" fill="#f5c84c"/></g></g><g><g><path d="m177.515 113.101c-2.862-.533-5.118-2.743-5.663-5.547-.027-.141-.224-.141-.251 0-.544 2.804-2.8 5.014-5.663 5.547-.144.027-.144.219 0 .246 2.862.533 5.118 2.743 5.663 5.547.027.141.224.141.251 0 .544-2.804 2.8-5.014 5.663-5.547.143-.027.143-.219 0-.246z" fill="#87d147"/></g></g><g><g><path d="m158.246 25.75h2.33v-2.33c0-1.744 1.413-3.157 3.157-3.157s3.157 1.413 3.157 3.157v2.33h2.329c1.744 0 3.157 1.413 3.157 3.157s-1.413 3.157-3.157 3.157h-2.329v2.33c0 1.744-1.413 3.157-3.157 3.157s-3.157-1.413-3.157-3.157v-2.33h-2.33c-1.744 0-3.157-1.413-3.157-3.157s1.413-3.157 3.157-3.157z" fill="#70d6f9"/></g></g><g><g><circle cx="25.755" cy="154.825" fill="#70d6f9" r="3.377"/></g></g><g><g><circle cx="150.755" cy="3.377" fill="#fc657e" r="3.377"/></g></g><g><g><path d="m167.307 185.833c-1.381 0-2.5-1.119-2.5-2.5v-29.474h-15.045v29.141c0 1.381-1.119 2.5-2.5 2.5s-2.5-1.119-2.5-2.5v-29.688c0-2.455 1.997-4.452 4.452-4.452h16.141c2.455 0 4.452 1.997 4.452 4.452v30.021c0 1.38-1.12 2.5-2.5 2.5z"/></g></g><g><g><path d="m193.93 236.682h-31.638c-4.365 0-7.916-3.551-7.916-7.916v-5.308c0-1.381 1.119-2.5 2.5-2.5s2.5 1.119 2.5 2.5v5.308c0 1.608 1.309 2.916 2.916 2.916h31.638c1.607 0 2.916-1.308 2.916-2.916v-4.953c0-1.381 1.119-2.5 2.5-2.5s2.5 1.119 2.5 2.5v4.953c0 4.365-3.551 7.916-7.916 7.916z"/></g></g><g><g><path d="m210.272 205.227h-21.971c-2.938 0-5.327-2.39-5.327-5.327v-13.808c0-2.938 2.39-5.328 5.327-5.328h21.971c2.938 0 5.327 2.39 5.327 5.328v13.808c.001 2.937-2.389 5.327-5.327 5.327zm-21.97-19.463c-.181 0-.327.147-.327.328v13.808c0 .18.146.327.327.327h21.971c.181 0 .327-.147.327-.327v-13.808c0-.181-.146-.328-.327-.328z"/></g></g><g><g><path d="m139.625 103.487c-.848 0-1.735-.077-2.714-.234-1.274-.205-2.184-1.347-2.097-2.636.056-.826.081-1.513.081-2.162v-26.293c0-1.233.898-2.282 2.117-2.471.883-.137 1.762-.206 2.612-.206 9.374 0 17 7.626 17 17 .001 9.375-7.625 17.002-16.999 17.002zm.271-28.999v23.967.029c6.492-.145 11.729-5.471 11.729-11.998s-5.237-11.853-11.729-11.998z"/></g></g><g><g><path d="m102.664 135.687c-20.529 0-37.231-16.702-37.231-37.232v-20.684c0-.784.368-1.523.994-1.995.626-.473 1.438-.625 2.191-.409 25.919 7.383 43.875-10.649 48.761-16.352.849-.991 2.033-1.581 3.333-1.663 1.295-.077 2.59.375 3.556 1.253 3.952 3.59 7.84 5.848 11.557 6.709 2.397.556 4.071 2.645 4.071 5.081v28.06c0 20.53-16.703 37.232-37.232 37.232zm-32.231-54.708v17.476c0 17.773 14.459 32.232 32.231 32.232s32.231-14.459 32.231-32.232v-28.06c0-.113-.101-.187-.2-.21-4.515-1.046-9.109-3.656-13.656-7.759-5.357 6.2-23.788 24.435-50.606 18.553zm50.742-18.711c0 .001 0 .001 0 0z"/></g></g><g><g><path d="m65.704 103.487c-9.374 0-17-7.626-17-17.001 0-4.667 1.958-9.18 5.371-12.381 2.031-1.904 4.983-2.409 7.523-1.288 2.331 1.029 4.693 1.888 7.02 2.55 1.074.306 1.815 1.287 1.815 2.404v20.684c0 .644.026 1.331.082 2.162.086 1.289-.823 2.431-2.098 2.636-.979.157-1.866.234-2.713.234zm-6.894-26.258c-.478 0-.95.18-1.316.523-2.444 2.292-3.791 5.394-3.791 8.733 0 6.527 5.237 11.854 11.729 11.998 0-.01 0-.019 0-.029v-18.83c-1.954-.629-3.916-1.377-5.855-2.234-.246-.108-.508-.161-.767-.161z"/></g></g><g><g><g><path d="m80.879 82.131c-4.277 0-8.828-.587-13.632-1.956-2.548-.726-5.129-1.663-7.67-2.785-.7-.31-1.516-.169-2.08.358l-.287.3c-.712.72-1.79.938-2.727.551-.937-.386-1.548-1.298-1.548-2.312v-8.535c0-27.421 22.308-49.729 49.729-49.729 27.42 0 49.729 22.308 49.729 49.729v8.494c0 1.012-.61 1.924-1.545 2.311-.936.386-2.012.171-2.726-.546-2.268-2.275-5.285-3.528-8.497-3.528-.595 0-1.216.049-1.847.147-.72.11-1.456-.098-2.01-.572-.554-.475-.873-1.168-.873-1.898v-1.767c0-.113-.101-.187-.2-.21-4.515-1.046-9.109-3.656-13.656-7.759-4.63 5.36-19.027 19.706-40.16 19.707zm-22.071-9.903c.942 0 1.891.193 2.789.589 2.331 1.029 4.693 1.888 7.02 2.55 25.919 7.383 43.875-10.649 48.761-16.352.849-.991 2.033-1.581 3.333-1.663 1.291-.08 2.591.376 3.556 1.253 3.952 3.59 7.84 5.848 11.557 6.709 2.093.485 3.635 2.139 3.992 4.172 2.679.029 5.258.674 7.576 1.868v-3.6c0-24.664-20.065-44.729-44.729-44.729s-44.727 20.066-44.727 44.73v4.528c.289-.037.58-.055.872-.055z"/></g></g></g><g><g><path d="m155.849 153.222c-1.086 0-2.086-.713-2.401-1.809-1.18-4.097-3.463-7.832-5.671-11.444-3.72-6.085-7.566-12.378-4.759-19.397 3.061-7.652 4.051-14.768 2.944-21.151-.236-1.36.676-2.655 2.036-2.891 1.354-.234 2.654.676 2.89 2.036 1.268 7.309.182 15.337-3.228 23.862-1.786 4.467.501 8.584 4.382 14.933 2.27 3.714 4.844 7.923 6.21 12.668.382 1.327-.384 2.712-1.711 3.094-.23.067-.464.099-.692.099z"/></g></g><g><g><path d="m48.582 160.619c-1.321 0-2.424-1.035-2.495-2.369-.441-8.41 3.616-15.042 7.196-20.894 3.883-6.346 6.171-10.462 4.385-14.927-3.388-8.471-4.481-16.455-3.25-23.73.231-1.361 1.523-2.274 2.882-2.048 1.361.23 2.278 1.521 2.048 2.882-1.075 6.356-.078 13.435 2.963 21.039 2.808 7.02-1.041 13.31-4.763 19.393-3.357 5.487-6.828 11.161-6.468 18.022.072 1.379-.987 2.556-2.366 2.628-.044.003-.088.004-.132.004z"/></g></g><g><g><g><path d="m146.58 158.987c-.203 0-.408-.025-.614-.077l-7.412-1.871c-1.692-.426-3.389-1.007-5.041-1.726-1.267-.551-1.847-2.024-1.295-3.29.551-1.265 2.026-1.843 3.289-1.295 1.403.61 2.839 1.103 4.27 1.462l7.414 1.872c1.338.338 2.149 1.697 1.812 3.036-.287 1.133-1.305 1.889-2.423 1.889z"/></g></g><g><g><path d="m131.125 256h-64.274c-2.854 0-5.177-2.322-5.177-5.177v-9.58c0-7.066-.912-14.078-2.713-20.895v30.475c0 2.854-2.322 5.177-5.177 5.177h-21.99c-1.768 0-3.478-.736-4.693-2.021-1.214-1.284-1.854-3.033-1.756-4.797l2.742-75.37c.412-7.403 5.487-13.554 12.631-15.352l24.832-6.268c1.389-.35 2.786-.825 4.152-1.412 1.267-.544 2.739.041 3.284 1.31s-.042 2.739-1.31 3.284c-1.609.691-3.258 1.252-4.903 1.666l-24.833 6.268c-5.012 1.262-8.571 5.575-8.859 10.734l-2.742 75.37c-.033.594.233.961.395 1.132.161.17.513.457 1.06.457h21.99c.098 0 .177-.079.177-.177v-47.143c0-1.235.902-2.285 2.123-2.472 1.22-.185 2.396.548 2.763 1.727l3.883 12.439c2.617 8.384 3.944 17.087 3.944 25.869v9.58c0 .098.079.177.177.177h64.274c1.381 0 2.5 1.119 2.5 2.5s-1.119 2.499-2.5 2.499z"/></g></g></g><g><g><path d="m120.897 147.466c-.795 0-1.577-.378-2.062-1.082-1.407-2.044-2.151-4.421-2.151-6.873v-9.762c0-1.381 1.119-2.5 2.5-2.5s2.5 1.119 2.5 2.5v9.762c0 1.435.439 2.831 1.27 4.037.783 1.137.496 2.694-.641 3.477-.433.299-.927.441-1.416.441z"/></g></g><g><g><path d="m105.813 164h-6.407c-1.381 0-2.5-1.119-2.5-2.5s1.119-2.5 2.5-2.5h6.407c1.381 0 2.5 1.119 2.5 2.5s-1.119 2.5-2.5 2.5z"/></g></g><g><g><path d="m84.329 147.613c-.503 0-1.012-.151-1.453-.467-1.123-.803-1.382-2.365-.579-3.488.881-1.232 1.347-2.666 1.347-4.147v-9.761c0-1.381 1.119-2.5 2.5-2.5s2.5 1.119 2.5 2.5v9.761c0 2.531-.789 4.971-2.28 7.056-.488.683-1.256 1.046-2.035 1.046z"/></g></g><g><g><path d="m89.22 213.873h-18.112c-3.338 0-6.054-2.716-6.054-6.054v-10.756c0-3.338 2.716-6.053 6.054-6.053h18.112c3.338 0 6.054 2.715 6.054 6.053v10.756c0 3.338-2.716 6.054-6.054 6.054zm-18.112-17.863c-.581 0-1.054.473-1.054 1.053v10.756c0 .581.473 1.054 1.054 1.054h18.112c.581 0 1.054-.473 1.054-1.054v-10.756c0-.581-.473-1.053-1.054-1.053z"/></g></g><g><g><path d="m116.682 175.391c-1.332 0-2.605-.556-3.511-1.538l-8.157-8.836c-1.646-1.784-1.625-4.559.046-6.318l15.688-16.492c1.629-1.711 4.374-1.808 6.116-.215l8.134 7.427c1.724 1.573 1.909 4.215.422 6.014l-15.053 18.223c-.879 1.064-2.174 1.696-3.553 1.733-.044.002-.088.002-.132.002zm-7.753-13.504 7.744 8.39 14.512-17.568-7.238-6.609zm22.697-8.776c.001 0 .001 0 0 0z"/></g></g><g><g><path d="m88.646 175.391c-.043 0-.087 0-.131-.002-1.379-.038-2.675-.67-3.553-1.734l-15.054-18.223c-1.486-1.798-1.301-4.439.423-6.013l8.134-7.427c1.745-1.593 4.487-1.496 6.116.216l15.687 16.491c1.673 1.759 1.694 4.534.048 6.318l-8.158 8.837c-.906.981-2.18 1.537-3.512 1.537zm-14.503-22.683 14.512 17.567 7.744-8.389-15.018-15.786zm-.44.403c-.001 0-.001.001-.001.001 0-.001 0-.001.001-.001zm-1.687-1.846h.01z"/></g></g></g></g></svg>