<svg height="512" viewBox="0 0 64 64" width="512" xmlns="http://www.w3.org/2000/svg"><g id="_28-Cash_register" data-name="28-Cash register"><path d="m29 34v3h-22v-3h3 16z" fill="#a8b7d4"/><path d="m7 31h3v3h-3z" fill="#5c6979"/><path d="m26 31h3v3h-3z" fill="#5c6979"/><g fill="#edf4fa"><path d="m40 42v4h-6l.33-4z"/><path d="m40 42h5v4h-5z"/><path d="m45 42h5v4h-5z"/><path d="m55.67 42 .33 4h-6v-4z"/><path d="m55.33 38 .34 4h-5.67v-4z"/><path d="m45 38h5v4h-5z"/><path d="m40 38h5v4h-5z"/><path d="m40 38v4h-5.67l.34-4z"/><path d="m40 34v4h-5.33l.33-4z"/><path d="m40 34h5v4h-5z"/><path d="m45 34h5v4h-5z"/><path d="m55 34 .33 4h-5.33v-4z"/></g><path d="m49 27v2h-8v-2-4h8z" fill="#bd6f08"/><path d="m34 20h22v-16h-22zm25-17v18a2.006 2.006 0 0 1 -2 2h-24a2.006 2.006 0 0 1 -2-2v-18a2.006 2.006 0 0 1 2-2h24a2.006 2.006 0 0 1 2 2z" fill="#ffad39"/><path d="m34 4h22v16h-22z" fill="#edf4fa"/><path d="m19 55h26v4h-26z" fill="#e03e3e"/><path d="m63 51.37v7.63a4 4 0 0 1 -4 4h-54a4 4 0 0 1 -4-4v-7.63c0-.13 0-.25.01-.37h61.98c.01.12.01.24.01.37zm-18 7.63v-4h-26v4z" fill="#fc9e20"/><path d="m55.67 42-.34-4-.33-4h-20l-.33 4-.34 4-.33 4h22zm7.28 8.63c.01.13.03.25.04.37h-61.98c.01-.12.03-.24.04-.37l2.73-21.88a2.007 2.007 0 0 1 1.99-1.75h4.23v4h-3v6h22v-6h-3v-4h15v2h8v-2h9.23a2.007 2.007 0 0 1 1.99 1.75z" fill="#febd55"/><path d="m33 21h24v-18h-24zm1-17h22v16h-22z" fill="#e68c15"/><path d="m45 17a8 8 0 0 1 -8-8v-5h-3v16h22v-3z" fill="#c1cfe8"/><path d="m37 7h2v2h-2z" fill="#a8b7d4"/><path d="m41 7h2v2h-2z" fill="#a8b7d4"/><path d="m37 10h2v2h-2z" fill="#a8b7d4"/><path d="m41 10h2v2h-2z" fill="#a8b7d4"/><path d="m45 25h4v-2h-8v6h2v-2a2 2 0 0 1 2-2z" fill="#9e5d07"/><path d="m61 59h-49a4 4 0 0 1 -4-4v-4h-6.99c-.01.12-.01.24-.01.37v7.63a4 4 0 0 0 4 4h54a4 4 0 0 0 4-4v-2a2 2 0 0 1 -2 2z" fill="#e68c15"/><path d="m8.694 42.668a4 4 0 0 1 3.987-3.668h14.319a1 1 0 0 0 1-1v-1h-21v-6h3v-4h-4.23a2.007 2.007 0 0 0 -1.99 1.75l-2.73 21.88c-.01.13-.03.25-.04.37h6.99z" fill="#fc9e20"/><path d="m41 27v2h8l-1.414 1.414a2 2 0 0 1 -1.414.586h-12.672a1.5 1.5 0 0 1 -1.5-1.5 1.5 1.5 0 0 1 1.5-1.5h4.5v-1z" fill="#fc9e20"/><path d="m19 55v4h3v-1a1 1 0 0 1 1-1h18a1 1 0 0 1 1 1v1h3v-4z" fill="#a81e29"/><path d="m10 31v3h-3v-1h1a1 1 0 0 0 1-1v-1z" fill="#393d48"/><path d="m26 31v3h3v-1h-1a1 1 0 0 1 -1-1v-1z" fill="#393d48"/><path d="m7 34v3h22v-3h-1a2 2 0 0 1 -2 2h-16a2 2 0 0 1 -2-2z" fill="#8394b2"/><path d="m26 27v4 3h-16v-3-4-13l2 2 2-2 2 2 2-2 2 2 2-2 2 2 2-2z" fill="#edf4fa"/><path d="m13 18h2v2h-2z" fill="#a8b7d4"/><path d="m17 18h2v2h-2z" fill="#a8b7d4"/><path d="m13 21h2v2h-2z" fill="#a8b7d4"/><path d="m17 21h2v2h-2z" fill="#a8b7d4"/><path d="m13 25h10v2h-10z" fill="#a8b7d4"/><path d="m13 29h10v2h-10z" fill="#a8b7d4"/><path d="m10 32h16v2h-16z" fill="#d6e0eb"/><path d="m46 34v3h4v1h-5v-4z" fill="#c1cfe8"/><path d="m41 34v3h4v1h-5v-4z" fill="#c1cfe8"/><path d="m46 38v3h4v1h-5v-4z" fill="#c1cfe8"/><path d="m46 42v3h4v1h-5v-4z" fill="#c1cfe8"/><path d="m41 38v3h4v1h-5v-4z" fill="#c1cfe8"/><path d="m41 42v3h4v1h-5v-4z" fill="#c1cfe8"/><path d="m35.214 45 .215-3h-1.099l-.247 3-.083 1h1.143 4.857v-1z" fill="#c1cfe8"/><path d="m35.5 41 .214-3h-1.044l-.255 3-.085 1h1.099 4.571v-1z" fill="#c1cfe8"/><path d="m35.786 37 .214-3h-1l-.247 3-.083 1h1.044 4.286v-1z" fill="#c1cfe8"/><path d="m51 42h-1v4h6l-.083-1h-4.917z" fill="#c1cfe8"/><path d="m51 38h-1v4h1 4.67l-.085-1h-4.585z" fill="#c1cfe8"/><path d="m51 38h4.33l-.083-1h-4.247v-3h-1v4z" fill="#c1cfe8"/><path d="m56.667 41.918-.669-8a1 1 0 0 0 -.998-.918h-20a1 1 0 0 0 -1 .918l-1 12a1 1 0 0 0 1 1.082h22a1 1 0 0 0 1-1.082zm-6.667 4.082h-16l.33-4 .34-4 .33-4h20l.33 4 .34 4 .33 4z" fill="#e68c15"/><path d="m45 54h-26a1 1 0 0 0 -1 1v4a1 1 0 0 0 1 1h26a1 1 0 0 0 1-1v-4a1 1 0 0 0 -1-1zm0 5h-26v-4h26z" fill="#9e5d07"/><path d="m10 31h-3v6h22v-6h-3v-1h3a1 1 0 0 1 1 1v6a1 1 0 0 1 -1 1h-22a1 1 0 0 1 -1-1v-6a1 1 0 0 1 1-1h3z" fill="#e68c15"/></g></svg>