<svg id="glipy_copy_2" viewBox="0 0 64 64" xmlns="http://www.w3.org/2000/svg" data-name="glipy copy 2"><g fill="#f00" opacity=".8"><path d="m31.27986 48.76a13.266 13.266 0 0 1 16.57-12.77v-8.31a1.36147 1.36147 0 0 0 -.56995-.99l-5.98-5.98a.958.958 0 0 0 -.70007-.28h-5.98v1.96h5.57995l4.29 4.3h-32.85l4.29992-4.3h5.61011v-1.96h-6.02a.97373.97373 0 0 0 -.69995.28l-5.9801 5.98c-.25989.26-.6.58-.57.99v31.34a.98156.98156 0 0 0 .98.98h28.32014a13.17911 13.17911 0 0 1 -6.30005-11.24z"/><path d="m22.00423 12.0365h1.54235v11.15082a.98545.98545 0 0 0 .98255.98248h7.10327a.98535.98535 0 0 0 .98242-.98248v-11.15082c.925-.07715 2.26025.31464 2.60352-.619a.95418.95418 0 0 0 -.226-1.07092l-6.22884-6.07158a.95667.95667 0 0 0 -.68774-.275.98325.98325 0 0 0 -.68762.28485l-6.0813 6.0716a.99.99 0 0 0 .69739 1.68005z"/><path d="m47.85261 38.03223a11.29812 11.29812 0 0 0 -14.60888 10.72857c.62793 14.9382 21.87915 14.87934 22.47827-.00024a11.25642 11.25642 0 0 0 -7.86939-10.72833zm1.59156 11.71093h-9.92285a.98248.98248 0 0 1 0-1.965h9.92285a.98259.98259 0 0 1 0 1.965z"/></g></svg>