<svg height="32" viewBox="0 0 32 32" width="32" xmlns="http://www.w3.org/2000/svg" xmlns:sketch="http://www.bohemiancoding.com/sketch/ns"><g id="Page-1" fill="none" fill-rule="evenodd"><g id="men-copy-7"><circle id="Oval-3" cx="16" cy="16" fill="#f1e7d5" r="16"/><path id="Shape" d="m12.6459989 18.023314c.0483715-.25339.0918469-.4909897.1240206-.6700018-.8334122-1.1689151-1.3809822-2.474906-1.7951352-4.3629184-.0110881-.0505478-.0218413-.1009654-.0322595-.1512484-.2194301.0349586-.904718.0145292-.9304138-1.5955649-.02387688-1.38669809-.51794546-1.96525423.4248868-2.37054964 0 0-.0844876-.58712734-.1273436-1.4387375-.0636718-1.26670122-.44815142-3.4064406 1.8740321-4.85619821 2.3674885-1.47792014 2.5591161-1.77362661 2.5591161-1.77362661l-.0924466.96487246s.7109924-.99331611 1.7481903-1.7645417l-.0278276.39865943c-.0140812.22713685.0673452.80079517.211219.94956674.0361214.03550927.0753041.07652859.1144867.11448678l-.0232647-.52039442s.7254911.22101457 1.2967005.56753603c.0104079-.00489783 1.6126104.88650719 1.9230104 1.08915489 2.1844321 1.42465624 1.9517851 3.19644616 1.9046435 4.45886178-.0299992.85161015-.0979566 1.81097256-.0979566 1.81097256.9434445.40529541.7040631.94711783.6642682 2.33381591-.044957 1.5019717-.6517771 1.4189607-.8514622 1.350312-.026338.1430651-.0554465.2873055-.0873232.4326228-.414153 1.8880124-1.0217816 3.3690134-1.8474423 4.3629184-.0615726.0772704-.1243589.1518481-.1883725.2237274.1034529.678848.2817059 1.7758879.3818116 1.9769335.3593782.0808142 3.113842 1.5084654 3.4346031 1.6419975 3.0556335 1.271599 2.0962711.5338634 4.5831442 1.7766877.7184892.3592446 1.2795974.9267486 1.716854 1.6143689-2.8401921 4.4568227-7.8263077 7.4129728-13.5028691 7.4129728-2.0587678 0-4.0267173-.3888397-5.8344145-1.097085-.3799733.0638489-.7703326.097085-1.1684546.097085-3.86599325 0-7-3.1340068-7-7s3.13400675-7 7-7c1.3357402 0 2.5840978.3741293 3.6459989 1.023314z" fill="#545a71"/><path id="Path" d="m14.379264 19.5204933c.0328122-.1451546.067853-.310966.1078019-.5045043.021035-.1019071.070338-.3495606.0732109-.364195.5024391.2186306 1.0508239.348206 1.6384396.348206.4870696 0 .9398529-.0676602 1.3599804-.2023006.0165635.096699.0328671.1894575.048883.2779314.1285151.7099299.1998283 1.0241721.3719236 1.3697968.268173.5385807 1.2397569 1.0349736 1.2419562 1.0359098.0794297.0338119.1930265.0852439.3347892.1517308.263444.1235555.6038667.2893409 1.0384253.5047911.0319743.0158561.0319743.0158561.0639651.031734.2415086.1198914 1.0022223.4999061 1.051376.5243791.4126759.2054656.5916771.2925676.7257789.3483938.7395255.3077529 1.3108673.5267064 1.7880887.6890803.3410876.1160546.3165507.1087657.9430087.2887258.0408729.0117812.0408729.0117812.078531.0228406.3719736.1098906.7273323.2585232 1.6480911.7186759-2.3475072 2.8360895-6.0484079 5.2383112-10.8919403 5.2383112-1.0287894 0-1.9977287-.1140176-2.9100832-.3195986 1.7617968-1.2712184 2.9085099-3.3418953 2.9085099-5.6804014 0-1.7039119-.6087963-3.2656317-1.620736-4.4795067z" fill="#62a5db"/><path id="Path" d="m26.2785295 25.460569c.2143129-.2291872.4193483-.4625271.6149841-.6988802-.9207588-.4601527-1.2761175-.6087853-1.6480911-.7186759-.0376581-.0110594-.0376581-.0110594-.078531-.0228406-.626458-.1799601-.6019211-.1726712-.9430087-.2887258-.4772214-.1623739-1.0485632-.3813274-1.7880887-.6890803-.1341018-.0558262-.313103-.1429282-.7257789-.3483938-.0491537-.024473-.8098674-.4044877-1.051376-.5243791-.0319908-.0158779-.0319908-.0158779-.0639651-.031734-.4345586-.2154502-.7749813-.3812356-1.0384253-.5047911-.1417627-.0664869-.2553595-.1179189-.3347892-.1517308-.0021993-.0009362-.9737832-.4973291-1.2419562-1.0359098-.1720953-.3456247-.2434085-.6598669-.3719236-1.3697968-.0160159-.0884739-.0323195-.1812324-.048883-.2779314-.4201275.1346404-.8729108.2023006-1.3599804.2023006-.5876157 0-1.1360005-.1295754-1.6384396-.348206-.0028729.0146344-.0521759.2622879-.0732109.364195-.0399489.1935383-.0749897.3593497-.1078019.5045043.0565949.0678886.1119289.1368652.1659659.2068938.0082289-.0412344.0141095-.070818.0150469-.0755931.5024391.2186306 1.0508239.348206 1.6384396.348206.4870696 0 .9398529-.0676602 1.3599804-.2023006.0165635.096699.0328671.1894575.048883.2779314.1285151.7099299.1998283 1.0241721.3719236 1.3697968.268173.5385807 1.2397569 1.0349736 1.2419562 1.0359098.0794297.0338119.1930265.0852439.3347892.1517308.263444.1235555.6038667.2893409 1.0384253.5047911.0319743.0158561.0319743.0158561.0639651.031734.2415086.1198914 1.0022223.4999061 1.051376.5243791.4126759.2054656.5916771.2925676.7257789.3483938.7395255.3077529 1.3108673.5267064 1.7880887.6890803.3410876.1160546.3165507.1087657.9430087.2887258.0408729.0117812.0408729.0117812.078531.0228406.2750322.0812516.5409811.1836832 1.033107.4175561zm-12.2379857 4.3966959c-.3229601-.0478121-.6392687-.1070596-.9490537-.1768635 1.6351401-1.1798297 2.7404551-3.0483025 2.8909279-5.1804014.0116555.1651508.017582.3318833.017582.5 0 1.8863821-.7461688 3.5984872-1.9594562 4.8572649z" fill="#468bbb"/><path id="Path" d="m16.2047965 17.361254c-.7850219 0-1.5427236-.0739908-2.2883252-1.079802-.6179248-.833576-1.0999675-1.8307928-1.4561328-3.5154808-.8656494-4.09458448.4893604-4.78686947 1.1501769-4.51743397.9808479.39992223 1.6904284.59471587 2.5942811.59258847h-.0248038c.9038527.0021274 1.6134332-.19266624 2.5942811-.59258847.6608166-.2694355 2.0158263.42284949 1.150177 4.51743397-.3561654 1.684688-.8382081 2.6819048-1.4561328 3.5154808-.7456017 1.0058112-1.5033033 1.079802-2.2883253 1.079802z" fill="#febe68"/><path id="Path" d="m12.1982631 9.97888939c-.0547275.67723201.0080897 1.58571111.2620754 2.78708181.3561653 1.684688.838208 2.6819048 1.4561328 3.5154808.7456016 1.0058112 1.5033033 1.079802 2.2883252 1.079802h-.0248038c.785022 0 1.5427236-.0739908 2.2883253-1.079802.6179247-.833576 1.0999674-1.8307928 1.4561328-3.5154808.2539856-1.2013707.3168028-2.1098498.2620753-2.78708181-.0339019.50739141-.116654 1.09922851-.2620753 1.78708181-.3561654 1.684688-.8382081 2.6819048-1.4561328 3.5154808-.7456017 1.0058112-1.5033033 1.079802-2.2883253 1.079802h.0248038c-.7850219 0-1.5427236-.0739908-2.2883252-1.079802-.6179248-.833576-1.0999675-1.8307928-1.4561328-3.5154808-.1454213-.6878533-.2281735-1.2796904-.2620754-1.78708181z" fill="#edab52"/><path id="Path" d="m12.1982631 10.9788894c-.1679059-2.51295728.862447-2.95452493 1.4122523-2.73035217.9808479.39992223 1.6904284.59471587 2.5942811.59258847h-.0248038c.9038527.0021274 1.6134332-.19266624 2.5942811-.59258847.5498053-.22417276 1.5801582.21739489 1.4122523 2.73035217-.1317981-1.63095112-.9453225-1.920734-1.4122523-1.73035217-.9808479.39992223-1.6904284.59471587-2.5942811.59258847h.0248038c-.9038527.0021274-1.6134332-.19266624-2.5942811-.59258847-.4669298-.19038183-1.2804541.09940105-1.4122523 1.73035217z" fill="#ffd77b"/><g id="circle" transform="translate(4 19)"><circle id="Oval-20" cx="5" cy="5" fill="#c87d77" r="5"/><path id="Oval-20" d="m3.88682389 8.87563295c-2.0677341-.47012064-3.64829543-2.22184753-3.86213627-4.37563295-.0163279.16445312-.02468762.3312503-.02468762.5 0 2.76142375 2.23857625 5 5 5s5-2.23857625 5-5c0-.1687497-.00835972-.33554688-.02468762-.5-.23739636 2.39103451-2.15919777 4.28655483-4.5620052 4.48316195.0244937-.02054427.04829618-.04232941.07132372-.06535694.43257166-.43257167.43021859-1.12541637.00143363-1.55420133l-.34816357-.34816356h2.36359626c.55232421 0 1.00007146-.44386482 1.00007146-1 0-.55228475-.44725197-1-1.00007146-1h-2.33321774l.31991286-.31991286c.42878496-.42878496.43113803-1.12162966-.00143363-1.55420133-.42957673-.42957673-1.12884046-.42679448-1.55420132-.00143363l-2.10813757 2.10813757c-.16169209.16169209-.26274573.36093339-.30270549.5696078-.07039265.34856703.03050728.723393.30057768.9934634z" fill="#b66d68"/><path id="Oval-20" d="m9.97531238 5.5c.0163279-.16445312.02468762-.3312503.02468762-.5 0-2.76142375-2.23857625-5-5-5s-5 2.23857625-5 5c0 .1687497.00835972.33554688.02468762.5.25086222-2.52666135 2.38263833-4.5 4.97531238-4.5s4.72445016 1.97333865 4.97531238 4.5z" fill="#d99181"/><path id="Rectangle-28" d="m7.50149722 6.01544012c.55232421 0 1.00007146-.44386482 1.00007146-1 0-.55228475-.44725197-1-1.00007146-1h-2.33321774l.31991286-.31991286c.42878496-.42878496.43113803-1.12162966-.00143363-1.55420133-.42957673-.42957673-1.12884046-.42679448-1.55420132-.00143363l-2.10813757 2.10813757c-.16169209.16169209-.26274573.36093339-.30270549.5696078-.07039265.34856703.03050728.723393.30057768.9934634l2.10813757 2.10813757c.42536085.42536086 1.12462459.4281431 1.55420132-.00143363.43257166-.43257167.43021859-1.12541637.00143363-1.55420133l-.34816357-.34816356z" fill="#fefefe"/></g></g></g></svg>