<svg id="Layer_1" enable-background="new 0 0 66 66" viewBox="0 0 66 66" xmlns="http://www.w3.org/2000/svg"><g><g><path d="m45.5 65h-34.2c-2.9 0-5.2-2.3-5.2-5.2v-48.5c0-2.9 2.3-5.3 5.2-5.3h34.2c2.9 0 5.2 2.3 5.2 5.2v.2c0 .6-.4 1-1 1s-1-.4-1-1v-.2c0-1.8-1.4-3.2-3.2-3.2h-34.2c-1.8 0-3.2 1.5-3.2 3.2v48.5c0 1.8 1.5 3.2 3.2 3.2h34.2c1.8 0 3.2-1.5 3.2-3.2v-21.2c0-.6.4-1 1-1s1 .4 1 1v21.3c0 2.9-2.3 5.2-5.2 5.2z" fill="#101f2d"/></g><g><path d="m42.7 7v-.8c0-2.3-1.9-4.2-4.2-4.2h-32c-2.4 0-4.3 1.9-4.3 4.2v47.4c0 2.3 1.9 4.2 4.2 4.2h.6v-46.5c.1-2.4 1.9-4.3 4.3-4.3z" fill="#ef6561"/><path d="m7.1 58.9h-.7c-2.9 0-5.2-2.3-5.2-5.2v-47.5c0-2.9 2.4-5.2 5.2-5.2h32c2.9 0 5.2 2.3 5.2 5.2v.8c0 .6-.4 1-1 1h-31.3c-1.8 0-3.2 1.5-3.2 3.2v46.6c0 .6-.5 1.1-1 1.1zm-.7-55.9c-1.7 0-3.2 1.5-3.2 3.2v47.4c0 1.7 1.2 3 2.8 3.2v-45.5c.1-2.9 2.4-5.3 5.3-5.3h30.4c-.1-1.7-1.5-3-3.2-3z" fill="#101f2d"/></g><g><g><ellipse cx="51.3" cy="52.3" fill="#ef6561" rx="8.8" ry="8.8" transform="matrix(.229 -.974 .974 .229 -11.326 90.32)"/><path d="m51.3 62.2c-5.4 0-9.8-4.4-9.8-9.8s4.4-9.8 9.8-9.8 9.8 4.4 9.8 9.8-4.3 9.8-9.8 9.8zm0-17.7c-4.3 0-7.8 3.5-7.8 7.8s3.5 7.8 7.8 7.8 7.8-3.5 7.8-7.8-3.4-7.8-7.8-7.8z" fill="#101f2d"/></g><g><g><path d="m49.5 56.4c-.4 0-.8-.2-1-.4l-1.7-1.7c-.6-.6-.6-1.5 0-2.1s1.5-.6 2.1 0l.7.7 3.7-3.7c.6-.6 1.5-.6 2.1 0s.6 1.5 0 2.1l-4.8 4.7c-.3.2-.7.4-1.1.4z" fill="#fff"/></g></g></g><g><g><g><g><path d="m50.3 39.5c-1.3 0-2.6-.2-3.9-.5-.5-.1-.8-.6-.7-1.1.2-1-.1-1.8-.7-2.1-.5-.3-1.4 0-2 .7-.3.4-.9.4-1.3.1-1.7-1.2-3-2.8-4-4.6-.2-.4-.1-1 .3-1.3.8-.6 1.2-1.3 1-1.9s-1-.9-2-.9c-.5.1-.9-.3-1-.9-.3-2-.2-4.1.4-6.1.1-.5.6-.8 1.1-.7 1 .2 1.8-.1 2.1-.7s0-1.4-.7-2c-.4-.3-.4-.9-.1-1.3 1.2-1.7 2.8-3 4.6-4 .4-.2 1-.1 1.3.3.6.8 1.3 1.2 1.9 1s.9-1 .9-2c0-.5.3-.9.9-1 2-.3 4.1-.2 6.1.4.5.1.8.6.7 1.1-.2 1 .1 1.8.7 2.1.5.3 1.4 0 2-.8.3-.4.9-.4 1.3-.1 1.7 1.2 3 2.8 4 4.6.2.4.1 1-.3 1.3-.8.6-1.2 1.3-1 1.9s1 .9 2 .9c.5 0 .9.3 1 .9.3 2 .2 4.1-.4 6.1-.1.5-.6.8-1.1.7-1-.1-1.8.1-2.1.7-.3.5 0 1.4.8 2 .4.3.4.9.1 1.3-1.2 1.7-2.8 3-4.6 4-.4.2-1 .1-1.3-.3-.6-.8-1.3-1.2-1.9-1s-.9 1-.9 2c0 .5-.3.9-.9 1-.9.1-1.6.2-2.3.2zm-2.6-2.3c1.2.3 2.4.3 3.6.2.2-1.5 1-2.6 2.2-3s2.5 0 3.6 1c1-.7 1.9-1.5 2.7-2.4-.9-1.2-1.1-2.5-.6-3.7.6-1.1 1.8-1.8 3.2-1.8.3-1.2.3-2.4.2-3.6-1.5-.2-2.6-1-3-2.2s0-2.5 1-3.6c-.7-1-1.5-1.9-2.4-2.7-1.2.9-2.5 1.1-3.7.6-1.1-.6-1.8-1.8-1.8-3.2-1.2-.3-2.4-.3-3.6-.2-.2 1.5-1 2.6-2.2 3s-2.5 0-3.6-1c-1 .7-1.9 1.5-2.7 2.4.9 1.2 1.1 2.5.6 3.7s-1.8 1.8-3.2 1.8c-.3 1.2-.3 2.4-.2 3.6 1.5.2 2.6 1 3 2.2s0 2.5-1 3.6c.7 1 1.5 1.9 2.4 2.7 1.2-.9 2.5-1.1 3.7-.6 1.1.5 1.8 1.7 1.8 3.2z" fill="#101f2d"/></g></g></g><g><path d="m54 29.8h-7.4c-.7 0-1.3-.6-1.3-1.3v-7.4c0-.7.6-1.3 1.3-1.3h7.4c.7 0 1.3.6 1.3 1.3v7.4c-.1.7-.6 1.3-1.3 1.3z" fill="#64c4f6"/><path d="m54 30.8h-7.4c-1.3 0-2.3-1-2.3-2.3v-7.4c0-1.3 1-2.3 2.3-2.3h7.4c1.3 0 2.3 1 2.3 2.3v7.4c-.1 1.2-1.1 2.3-2.3 2.3zm-7.4-10c-.2 0-.3.1-.3.3v7.4c0 .2.1.3.3.3h7.4c.2 0 .3-.1.3-.3v-7.4c0-.2-.1-.3-.3-.3z" fill="#101f2d"/></g><g><path d="m48.3 22.8h4v4h-4z" fill="#fff" transform="matrix(0 1 -1 0 75.038 -25.495)"/></g><g><path d="m47.2 20.8c-.6 0-1-.4-1-1v-2c0-.6.4-1 1-1s1 .4 1 1v2c0 .5-.5 1-1 1z" fill="#101f2d"/></g><g><path d="m50.3 20.8c-.6 0-1-.4-1-1v-2c0-.6.4-1 1-1s1 .4 1 1v2c0 .5-.5 1-1 1z" fill="#101f2d"/></g><g><path d="m53.3 20.8c-.6 0-1-.4-1-1v-2c0-.6.4-1 1-1s1 .4 1 1v2c0 .5-.4 1-1 1z" fill="#101f2d"/></g><g><path d="m47.2 33.1c-.6 0-1-.4-1-1v-2c0-.6.4-1 1-1s1 .4 1 1v2c0 .6-.5 1-1 1z" fill="#101f2d"/></g><g><path d="m50.3 33.1c-.6 0-1-.4-1-1v-2c0-.6.4-1 1-1s1 .4 1 1v2c0 .6-.5 1-1 1z" fill="#101f2d"/></g><g><path d="m53.3 33.1c-.6 0-1-.4-1-1v-2c0-.6.4-1 1-1s1 .4 1 1v2c0 .6-.4 1-1 1z" fill="#101f2d"/></g><g><path d="m45.1 29h-2c-.6 0-1-.4-1-1s.4-1 1-1h2c.6 0 1 .4 1 1s-.5 1-1 1z" fill="#101f2d"/></g><g><path d="m45.1 26h-2c-.6 0-1-.4-1-1s.4-1 1-1h2c.6 0 1 .4 1 1s-.5 1-1 1z" fill="#101f2d"/></g><g><path d="m45.1 22.9h-2c-.6 0-1-.4-1-1s.4-1 1-1h2c.6 0 1 .4 1 1s-.5 1-1 1z" fill="#101f2d"/></g><g><path d="m57.4 29h-2c-.6 0-1-.4-1-1s.4-1 1-1h2c.6 0 1 .4 1 1s-.4 1-1 1z" fill="#101f2d"/></g><g><path d="m57.4 26h-2c-.6 0-1-.4-1-1s.4-1 1-1h2c.6 0 1 .4 1 1s-.4 1-1 1z" fill="#101f2d"/></g><g><path d="m57.4 22.9h-2c-.6 0-1-.4-1-1s.4-1 1-1h2c.6 0 1 .4 1 1s-.4 1-1 1z" fill="#101f2d"/></g></g><g><g><path d="m31.2 21.1h-17.4c-1 0-1.7-.8-1.7-1.7v-5.4c0-1 .8-1.7 1.7-1.7h17.3c1 0 1.7.8 1.7 1.7v5.4c.1.9-.7 1.7-1.6 1.7z" fill="#64c4f6"/><path d="m31.2 22.1h-17.4c-1.5 0-2.7-1.2-2.7-2.7v-5.4c0-1.5 1.2-2.7 2.7-2.7h17.3c1.5 0 2.7 1.2 2.7 2.7v5.4c.1 1.5-1.1 2.7-2.6 2.7zm-17.4-8.8c-.4 0-.7.3-.7.7v5.4c0 .4.3.7.7.7h17.3c.4 0 .7-.3.7-.7v-5.4c0-.4-.3-.7-.7-.7z" fill="#101f2d"/></g><g><path d="m31.9 27.7h-13.4c-.6 0-1-.4-1-1s.4-1 1-1h13.4c.6 0 1 .4 1 1s-.5 1-1 1z" fill="#101f2d"/></g><g><path d="m14.5 27.7h-2.4c-.6 0-1-.4-1-1s.4-1 1-1h2.4c.6 0 1 .4 1 1s-.4 1-1 1z" fill="#101f2d"/></g><g><path d="m33.9 33.1h-15.4c-.6 0-1-.4-1-1s.4-1 1-1h15.4c.6 0 1 .4 1 1s-.5 1-1 1z" fill="#101f2d"/></g><g><path d="m14.5 33.1h-2.4c-.6 0-1-.4-1-1s.4-1 1-1h2.4c.6 0 1 .4 1 1s-.4 1-1 1z" fill="#101f2d"/></g><g><path d="m36.9 38.4h-18.4c-.6 0-1-.4-1-1s.4-1 1-1h18.4c.6 0 1 .4 1 1s-.5 1-1 1z" fill="#101f2d"/></g><g><path d="m14.5 38.4h-2.4c-.6 0-1-.4-1-1s.4-1 1-1h2.4c.6 0 1 .4 1 1s-.4 1-1 1z" fill="#101f2d"/></g><g><path d="m40.9 43.7h-22.4c-.6 0-1-.4-1-1s.4-1 1-1h22.4c.6 0 1 .4 1 1s-.5 1-1 1z" fill="#101f2d"/></g><g><path d="m14.5 43.7h-2.4c-.6 0-1-.4-1-1s.4-1 1-1h2.4c.6 0 1 .4 1 1s-.4 1-1 1z" fill="#101f2d"/></g><g><path d="m37.9 49.1h-19.4c-.6 0-1-.4-1-1s.4-1 1-1h19.4c.6 0 1 .4 1 1s-.5 1-1 1z" fill="#101f2d"/></g><g><path d="m14.5 49.1h-2.4c-.6 0-1-.4-1-1s.4-1 1-1h2.4c.6 0 1 .4 1 1s-.4 1-1 1z" fill="#101f2d"/></g><g><path d="m37.9 54.4h-19.4c-.6 0-1-.4-1-1s.4-1 1-1h19.4c.6 0 1 .4 1 1s-.5 1-1 1z" fill="#101f2d"/></g><g><path d="m14.5 54.4h-2.4c-.6 0-1-.4-1-1s.4-1 1-1h2.4c.6 0 1 .4 1 1s-.4 1-1 1z" fill="#101f2d"/></g><g><path d="m38.9 59.8h-20.4c-.6 0-1-.4-1-1s.4-1 1-1h20.4c.6 0 1 .4 1 1s-.5 1-1 1z" fill="#101f2d"/></g><g><path d="m14.5 59.8h-2.4c-.6 0-1-.4-1-1s.4-1 1-1h2.4c.6 0 1 .4 1 1s-.4 1-1 1z" fill="#101f2d"/></g></g></g></svg>