<svg viewBox="0 0 32 32" xmlns="http://www.w3.org/2000/svg"><g id="Layer_17" data-name="Layer 17"><path d="m14.5 4.17a5.42 5.42 0 1 0 5.42 5.41 5.42 5.42 0 0 0 -5.42-5.41zm0 8.83a3.42 3.42 0 1 1 3.42-3.42 3.42 3.42 0 0 1 -3.42 3.42zm4.22 3.05a5.17 5.17 0 0 0 -3.15-.1 3.55 3.55 0 0 1 -2.14 0 5.17 5.17 0 0 0 -3.15.1 10.89 10.89 0 0 0 -7.78 10v.74a1 1 0 0 0 1 1h22a1 1 0 0 0 1-1v-.74a10.89 10.89 0 0 0 -7.78-10zm-14.22 9.78a8.94 8.94 0 0 1 6.42-7.83 3.16 3.16 0 0 1 1.91-.09 5.6 5.6 0 0 0 3.34 0 3.16 3.16 0 0 1 1.91.09 8.94 8.94 0 0 1 6.42 7.88zm24-17.33h-2.25v-2.25a1 1 0 0 0 -2 0v2.25h-2.25a1 1 0 0 0 0 2h2.25v2.25a1 1 0 0 0 2 0v-2.25h2.25a1 1 0 0 0 0-2z" fill="#303030"/><path d="m17.92 9.58a3.42 3.42 0 1 1 -3.42-3.41 3.42 3.42 0 0 1 3.42 3.41z" fill="#f7d9b4"/><path d="m24.5 25.83h-20a8.94 8.94 0 0 1 6.42-7.83 3.16 3.16 0 0 1 1.91-.09 5.6 5.6 0 0 0 3.34 0 3.16 3.16 0 0 1 1.91.09 8.94 8.94 0 0 1 6.42 7.83z" fill="#5fc1ef"/></g></svg>