<?xml version="1.0"?>
<svg xmlns="http://www.w3.org/2000/svg" id="Layer_1" data-name="Layer 1" viewBox="0 0 512 512"><path d="M54.282,297.571H73.138v18.855H54.282Zm0,94.421H73.138V373.137H54.282Zm0,75.566H73.138V448.7H54.282ZM113.587,71.427H285.614a6.623,6.623,0,0,0,6.586-6.615V36.69a6.579,6.579,0,0,0-6.586-6.586h-56.07v-.146a29.929,29.929,0,1,0-59.858,0V30.1h-56.1A6.6,6.6,0,0,0,107,36.719V64.812A6.622,6.622,0,0,0,113.587,71.427ZM125.04,188.7c-.117-1.719-.2-3.468-.2-5.246s.087-3.584.233-5.362l12.91-3.468a7.131,7.131,0,0,0,5.187-5.537,59.382,59.382,0,0,1,2.652-7.956,57.562,57.562,0,0,1,3.963-7.78,7.207,7.207,0,0,0-.145-7.636l-6.5-11.278c1.108-1.311,2.3-2.594,3.556-3.876,1.282-1.253,2.593-2.477,3.934-3.614l11.6,6.674a7.152,7.152,0,0,0,7.315-.058,55.967,55.967,0,0,1,7.81-3.934,58.1,58.1,0,0,1,8.247-2.74,7.164,7.164,0,0,0,5.246-5.1l3.468-12.939c1.719-.145,3.468-.2,5.246-.2s3.555.059,5.333.2l3.468,12.939a7.177,7.177,0,0,0,5.537,5.188,56.441,56.441,0,0,1,7.955,2.652,57.68,57.68,0,0,1,7.811,3.934,7.15,7.15,0,0,0,7.635-.117l11.278-6.528c1.311,1.137,2.593,2.3,3.847,3.585,1.282,1.282,2.506,2.594,3.642,3.934l-6.7,11.628a7.11,7.11,0,0,0,.087,7.256l-.029.03a61,61,0,0,1,3.963,7.78,58.455,58.455,0,0,1,2.711,8.277,7.16,7.16,0,0,0,5.129,5.216l12.939,3.468c.116,1.719.2,3.468.2,5.246s-.088,3.584-.234,5.362l-12.909,3.468a7.212,7.212,0,0,0-5.217,5.537,59.107,59.107,0,0,1-2.623,7.956,61.008,61.008,0,0,1-3.963,7.781,7.156,7.156,0,0,0,.262,7.81l6.382,11.1c-1.107,1.311-2.3,2.594-3.555,3.876-1.282,1.253-2.594,2.477-3.963,3.643l-11.6-6.7a7.228,7.228,0,0,0-7.285.059,61.518,61.518,0,0,1-7.811,3.934,58.555,58.555,0,0,1-8.276,2.739,7.172,7.172,0,0,0-5.216,5.1l-3.468,12.939c-1.72.145-3.468.2-5.246.2s-3.555-.059-5.333-.2L190.843,245a7.174,7.174,0,0,0-5.537-5.187,56.755,56.755,0,0,1-7.956-2.652,56.187,56.187,0,0,1-7.81-3.934,7.147,7.147,0,0,0-7.635.116l-11.278,6.528c-1.312-1.137-2.594-2.3-3.847-3.585-1.282-1.282-2.477-2.594-3.643-3.934l6.7-11.6a7.289,7.289,0,0,0-.059-7.315,57.574,57.574,0,0,1-3.963-7.781,58.451,58.451,0,0,1-2.71-8.277,7.163,7.163,0,0,0-5.129-5.216Zm30.366-5.3a44.228,44.228,0,1,0,12.939-31.24A44.046,44.046,0,0,0,155.406,183.392Zm44.18,29.813a29.8,29.8,0,1,0-21.07-8.743A29.758,29.758,0,0,0,199.586,213.205ZM315.718,469.918l72.535-56.361v74.721A23.818,23.818,0,0,1,364.531,512H34.67a23.8,23.8,0,0,1-23.722-23.722V78.218A23.78,23.78,0,0,1,34.67,54.5H92.6V64.812A20.989,20.989,0,0,0,113.587,85.8H285.614A20.988,20.988,0,0,0,306.6,64.812V54.5h57.935a23.8,23.8,0,0,1,23.722,23.722V270.935L329.036,373.487ZM87.505,441.505a7.189,7.189,0,0,0-7.169-7.2H47.084a7.214,7.214,0,0,0-7.2,7.2v33.251a7.188,7.188,0,0,0,7.2,7.169H80.336a7.164,7.164,0,0,0,7.169-7.169Zm0-75.566a7.189,7.189,0,0,0-7.169-7.2H47.084a7.214,7.214,0,0,0-7.2,7.2v33.222a7.2,7.2,0,0,0,7.2,7.2H80.336a7.17,7.17,0,0,0,7.169-7.2Zm0-75.566a7.189,7.189,0,0,0-7.169-7.2H47.084a7.214,7.214,0,0,0-7.2,7.2V323.6a7.2,7.2,0,0,0,7.2,7.2H80.336a7.171,7.171,0,0,0,7.169-7.2ZM110.44,183.45a74.228,74.228,0,0,0,.9,11.482,7.2,7.2,0,0,0,5.3,6.383l13.668,3.672c.67,2.1,1.4,4.167,2.244,6.178q1.268,3.06,2.8,5.945l-6.994,12.123a7.194,7.194,0,0,0,.35,7.985,76.623,76.623,0,0,0,7.9,9.238,71.948,71.948,0,0,0,8.772,7.519,7.142,7.142,0,0,0,8.247.728l12.24-7.052c1.924.991,3.934,1.923,5.974,2.8,2.011.816,4.051,1.574,6.179,2.215l3.584,13.406a7.187,7.187,0,0,0,5.945,5.537,81.087,81.087,0,0,0,12.094.932,77.607,77.607,0,0,0,11.482-.874,7.169,7.169,0,0,0,6.382-5.3l3.672-13.7c2.1-.641,4.167-1.4,6.178-2.215,2.04-.874,4.051-1.806,5.974-2.826l11.861,6.848a7.194,7.194,0,0,0,8.247-.175,81.73,81.73,0,0,0,9.239-7.9,75.832,75.832,0,0,0,7.693-9.035,7.177,7.177,0,0,0,.554-7.955l-7.082-12.269c1.02-1.924,1.953-3.934,2.8-5.974.845-2.011,1.574-4.08,2.244-6.178l13.376-3.585a7.18,7.18,0,0,0,5.537-5.974,77.188,77.188,0,0,0,.962-12.094,78.145,78.145,0,0,0-.9-11.482,7.2,7.2,0,0,0-5.3-6.383L268.886,161.8c-.67-2.1-1.4-4.167-2.244-6.177-.845-2.041-1.778-4.022-2.8-5.975l6.82-11.832a7.193,7.193,0,0,0-.175-8.247,76.539,76.539,0,0,0-7.9-9.238,74.275,74.275,0,0,0-8.771-7.519,7.144,7.144,0,0,0-8.248-.728l-12.24,7.053c-1.923-.991-3.934-1.924-5.974-2.8-2.011-.816-4.05-1.574-6.178-2.215l-3.584-13.4a7.221,7.221,0,0,0-5.945-5.537,81.09,81.09,0,0,0-12.094-.933,78.429,78.429,0,0,0-11.512.874,7.232,7.232,0,0,0-6.382,5.3l-3.642,13.7c-2.128.641-4.168,1.4-6.179,2.215-2.069.845-4.05,1.807-5.974,2.8l-12.123-7a7.2,7.2,0,0,0-7.985.35,81.807,81.807,0,0,0-9.238,7.9A82.964,82.964,0,0,0,129,129.158a7.2,7.2,0,0,0-.728,8.248l7.081,12.239c-1.02,1.953-1.952,3.934-2.8,5.975-.846,2.01-1.574,4.079-2.244,6.177l-13.377,3.585a7.182,7.182,0,0,0-5.537,5.974A77.186,77.186,0,0,0,110.44,183.45Zm-7.665,123.534a7.176,7.176,0,0,0,7.2,7.2H352.116a7.2,7.2,0,1,0,0-14.4H109.973A7.2,7.2,0,0,0,102.775,306.984Zm199.8,151.132a7.194,7.194,0,0,0-7.2-7.2h-185.4a7.2,7.2,0,1,0,0,14.4h185.4A7.176,7.176,0,0,0,302.574,458.116ZM317.7,382.55a7.213,7.213,0,0,0-7.2-7.2H109.973a7.2,7.2,0,1,0,0,14.4H310.5A7.2,7.2,0,0,0,317.7,382.55Zm28.793-10.52,38.613,22.294,91.886-159.117-38.614-22.294Zm-4.634,13.9-7.052,50.912,40.6-31.532ZM489.93,168.209a22.413,22.413,0,0,0-30.483,8.16l-13.9,24.1,38.614,22.294,13.93-24.1A22.386,22.386,0,0,0,489.93,168.209Z"/></svg>
