<svg id="Layer_1" enable-background="new 0 0 512 512" viewBox="0 0 512 512" xmlns="http://www.w3.org/2000/svg"><g><g fill="#10a4de"><path d="m276.46 262.995c-4.159 0-7.529 3.371-7.529 7.529 0 4.159 3.371 7.53 7.529 7.53h47.339c4.159 0 7.53-3.371 7.53-7.53 0-4.158-3.371-7.529-7.53-7.529z"/><path d="m362.725 217.516c0-4.158-3.371-7.529-7.53-7.529h-78.735c-4.159 0-7.529 3.371-7.529 7.529s3.371 7.529 7.529 7.529h78.735c4.159 0 7.53-3.371 7.53-7.529z"/><path d="m451.704 190.997c0-4.158-3.371-7.529-7.53-7.529h-167.714c-4.159 0-7.529 3.371-7.529 7.529s3.371 7.529 7.529 7.529h167.714c4.159 0 7.53-3.371 7.53-7.529z"/></g><path d="m133.506 286.801v-153.092h-77.041v153.092h24.106v-49.398h28.852v49.398zm-33.25-130.301c0-4.502 3.653-8.144 8.155-8.144 4.491 0 8.144 3.642 8.144 8.144v6.131c0 4.502-3.652 8.155-8.144 8.155-4.502 0-8.155-3.653-8.155-8.155zm-10.553 34.821c0 4.503-3.641 8.156-8.144 8.156-4.491 0-8.144-3.653-8.144-8.156v-6.131c0-4.491 3.653-8.144 8.144-8.144 4.502 0 8.144 3.653 8.144 8.144zm0-28.69c0 4.502-3.641 8.155-8.144 8.155-4.491 0-8.144-3.653-8.144-8.155v-6.131c0-4.502 3.653-8.144 8.144-8.144 4.502 0 8.144 3.642 8.144 8.144zm18.708 36.845c-4.502 0-8.155-3.653-8.155-8.156v-6.131c0-4.491 3.653-8.144 8.155-8.144 4.491 0 8.144 3.653 8.144 8.144v6.131c-.001 4.503-3.653 8.156-8.144 8.156z" fill="#203b72"/><path d="m342.149 244.036c0-4.158-3.371-7.529-7.529-7.529h-58.16c-4.159 0-7.529 3.371-7.529 7.529s3.371 7.529 7.529 7.529h58.16c4.158 0 7.529-3.371 7.529-7.529z" fill="#10a4de"/><path d="m397.152 385.536c-3.709-3.032-7.194-6.441-10.398-10.237-1.323-1.57-2.581-3.172-3.753-4.818-5.312-7.366-9.184-15.388-11.635-23.722-1.473-4.936-2.43-9.979-2.903-15.055h-352.897v-258.857h464.947v179.411c5.279 2.419 10.334 5.452 15.055 9.087v-196.025c0-4.161-3.376-7.527-7.527-7.527h-480.002c-4.162 0-7.539 3.366-7.539 7.527v312.689c0 4.151 3.377 7.528 7.539 7.528h173.592v53.617h-39.992c-4.161 0-7.527 3.366-7.527 7.527s3.366 7.527 7.527 7.527h212.8c4.15 0 7.527-3.366 7.527-7.527 0-4.162-3.377-7.527-7.527-7.527h-40.003v-53.617h82.716z" fill="#203b72"/><path d="m444.174 156.979h-167.714c-4.159 0-7.529 3.371-7.529 7.529s3.371 7.529 7.529 7.529h167.714c4.159 0 7.53-3.371 7.53-7.529s-3.371-7.529-7.53-7.529z" fill="#10a4de"/><path d="m46.611 303.089h188.959v8.411h-188.959z" fill="#203b72"/><path d="m47.332 109.348h86.174v8.074h-86.174z" fill="#203b72"/><path d="m149.793 99.482v187.319h75.923v-165.482zm24.641 33.18h28.155c4.502 0 8.155 3.642 8.155 8.144 0 4.491-3.652 8.144-8.155 8.144h-28.155c-4.502 0-8.155-3.653-8.155-8.144-.001-4.502 3.653-8.144 8.155-8.144zm.815 30.504h28.166c4.502 0 8.144 3.642 8.144 8.144s-3.642 8.144-8.144 8.144h-28.166c-4.491 0-8.144-3.641-8.144-8.144-.001-4.502 3.652-8.144 8.144-8.144zm28.991 46.792h-28.166c-4.491 0-8.144-3.642-8.144-8.144s3.653-8.144 8.144-8.144h28.166c4.502 0 8.144 3.641 8.144 8.144s-3.641 8.144-8.144 8.144z" fill="#203b72"/><path d="m444.174 130.459h-167.714c-4.159 0-7.529 3.371-7.529 7.529s3.371 7.529 7.529 7.529h167.714c4.159 0 7.53-3.371 7.53-7.529s-3.371-7.529-7.53-7.529z" fill="#10a4de"/><path d="m496.363 282.819c-22.808-27.056-63.381-30.507-90.437-7.699-27.056 22.84-30.497 63.424-7.667 90.469 2.011 2.387 4.172 4.592 6.441 6.614 23.442 20.829 59.337 21.862 83.995 1.054 13.108-11.054 21.12-26.55 22.571-43.637 1.442-17.078-3.849-33.703-14.903-46.801zm-41.519 81.404c0 4.161-3.376 7.538-7.527 7.538-4.162 0-7.539-3.376-7.539-7.538v-48.401c0-4.162 3.377-7.528 7.539-7.528 4.151 0 7.527 3.366 7.527 7.528zm0-77.146c0 4.162-3.376 7.527-7.527 7.527-4.162 0-7.539-3.366-7.539-7.527v-2.893c0-4.162 3.377-7.538 7.539-7.538 4.151 0 7.527 3.377 7.527 7.538z" fill="#10a4de"/></g></svg>