<svg id="Layer_1" enable-background="new 0 0 512 512" viewBox="0 0 512 512" xmlns="http://www.w3.org/2000/svg" xmlns:xlink="http://www.w3.org/1999/xlink"><linearGradient id="SVGID_1_" gradientUnits="userSpaceOnUse" x1="256" x2="256" y1="15" y2="497"><stop offset="0" stop-color="#a03a8d"/><stop offset="1" stop-color="#1f3c8d"/></linearGradient><path d="m126.64 175.02h22.08c7.18 0 13.02-5.84 13.02-13.02v-22.08c0-7.18-5.84-13.02-13.02-13.02h-22.08c-7.18 0-13.02 5.84-13.02 13.02v22.08c0 7.17 5.84 13.02 13.02 13.02zm-1.02-35.11c0-.55.48-1.02 1.02-1.02h22.08c.55 0 1.02.48 1.02 1.02v22.08c0 .55-.48 1.02-1.02 1.02h-22.08c-.55 0-1.02-.48-1.02-1.02zm54.82-1.27c0-3.31 2.69-6 6-6h96.56c3.31 0 6 2.69 6 6s-2.69 6-6 6h-96.56c-3.31 0-6-2.68-6-6zm0 24.62c0-3.31 2.69-6 6-6h96.56c3.31 0 6 2.69 6 6s-2.69 6-6 6h-96.56c-3.31 0-6-2.69-6-6zm-53.8 85h22.08c7.18 0 13.02-5.84 13.02-13.02v-22.08c0-7.18-5.84-13.02-13.02-13.02h-22.08c-7.18 0-13.02 5.84-13.02 13.02v22.08c0 7.18 5.84 13.02 13.02 13.02zm-1.02-35.1c0-.55.48-1.02 1.02-1.02h22.08c.55 0 1.02.48 1.02 1.02v22.08c0 .55-.48 1.02-1.02 1.02h-22.08c-.55 0-1.02-.48-1.02-1.02zm54.82-1.27c0-3.31 2.69-6 6-6h96.56c3.31 0 6 2.69 6 6s-2.69 6-6 6h-96.56c-3.31 0-6-2.69-6-6zm0 24.62c0-3.31 2.69-6 6-6h96.56c3.31 0 6 2.69 6 6s-2.69 6-6 6h-96.56c-3.31 0-6-2.69-6-6zm-53.8 85h22.08c7.18 0 13.02-5.84 13.02-13.02v-22.08c0-7.18-5.84-13.03-13.02-13.03h-22.08c-7.18 0-13.02 5.84-13.02 13.03v22.08c0 7.18 5.84 13.02 13.02 13.02zm-1.02-35.1c0-.55.48-1.03 1.02-1.03h22.08c.55 0 1.02.48 1.02 1.03v22.08c0 .55-.48 1.02-1.02 1.02h-22.08c-.55 0-1.02-.48-1.02-1.02zm54.82-1.27c0-3.31 2.69-6 6-6h96.56c3.31 0 6 2.69 6 6s-2.69 6-6 6h-96.56c-3.31 0-6-2.69-6-6zm0 24.62c0-3.31 2.69-6 6-6h96.56c3.31 0 6 2.69 6 6s-2.69 6-6 6h-96.56c-3.31 0-6-2.69-6-6zm-53.8 85h22.08c7.18 0 13.02-5.84 13.02-13.03v-22.08c0-7.18-5.84-13.02-13.02-13.02h-22.08c-7.18 0-13.02 5.84-13.02 13.02v22.08c0 7.19 5.84 13.03 13.02 13.03zm-1.02-35.1c0-.55.48-1.02 1.02-1.02h22.08c.55 0 1.02.48 1.02 1.02v22.08c0 .55-.48 1.03-1.02 1.03h-22.08c-.55 0-1.02-.48-1.02-1.03zm54.82-1.27c0-3.31 2.69-6 6-6h79.26c3.31 0 6 2.69 6 6s-2.69 6-6 6h-79.26c-3.31 0-6-2.69-6-6zm0 24.62c0-3.31 2.69-6 6-6h79.26c3.31 0 6 2.69 6 6s-2.69 6-6 6h-79.26c-3.31 0-6-2.69-6-6zm286.56-32.14v-.05c0-.02 0-.04 0-.07 0-.21-.02-.42-.04-.62-.01-.07-.02-.13-.03-.2-.03-.18-.06-.37-.11-.55-.01-.05-.02-.1-.04-.15-.06-.22-.14-.44-.22-.66-.02-.05-.04-.1-.06-.14-.07-.17-.16-.34-.24-.5-.03-.06-.06-.11-.09-.17-.1-.17-.21-.34-.33-.51-.02-.03-.04-.05-.05-.08-.15-.19-.3-.37-.47-.55-.03-.03-.06-.05-.08-.08-.14-.14-.29-.27-.44-.39-.05-.04-.11-.09-.17-.13-.14-.11-.29-.21-.44-.3-.04-.03-.08-.06-.12-.08-.02-.01-.04-.02-.05-.03-.02-.01-.04-.03-.07-.04l-88.62-49.37c-1.82-1.01-4.02-1.01-5.84 0l-11.84 6.6v-241.19c0-3.31-2.69-6-6-6h-65.79c-.43-7.69-6.8-13.83-14.6-13.83h-21.66c-4.48-15.58-18.89-26.78-35.48-26.78h-25.62c-16.6 0-31 11.2-35.44 26.78h-21.66c-7.8 0-14.17 6.13-14.6 13.83h-65.8c-3.31 0-6 2.69-6 6v398.43c0 3.31 2.69 6 6 6h264.24l54.22 30.2v-.01c.91.5 1.91.77 2.92.77s2.01-.25 2.92-.76l88.62-49.37c1.9-1.06 3.08-3.06 3.08-5.24v-90.73c0-.01 0-.02 0-.03zm-94.62-42.55 76.29 42.5-20.55 11.45-72.86-44.42zm-254.33-206.59c2.3 5.09 7.41 8.64 13.34 8.64h139.83c5.93 0 11.04-3.55 13.34-8.64h26.93v226.77l-30.66 17.08c-.02.01-.04.03-.07.04-.02.01-.04.02-.05.03-.04.02-.08.05-.12.08-.15.1-.3.2-.44.3-.06.04-.11.09-.17.13-.15.12-.3.26-.44.39-.03.03-.06.05-.08.08-.17.17-.33.36-.47.55-.02.03-.04.05-.05.08-.12.16-.23.33-.33.51-.03.05-.06.11-.09.17-.09.16-.17.33-.24.5-.02.05-.04.1-.06.14-.09.21-.16.43-.22.66-.01.05-.02.1-.04.15-.04.18-.08.36-.11.55-.01.07-.02.13-.03.2-.02.21-.04.42-.04.62v.07.05.03 69.02h-186.66v-318.2zm225.17 222.83 72.86 44.42-7.87 4.38-73.6-44zm-53.46 36.47 76.62 42.68v77.07l-76.62-42.69zm6.33-10.21 26.42-14.72 73.6 44-23.72 13.22zm118.37 32.8 7.52-4.19v28.39l-7.52 4.35zm-68.84-74.13-22.12 12.32v-226.08c0-3.31-2.69-6-6-6h-31.63v-22.12h59.75zm-216.87-253.07c0-1.43 1.21-2.64 2.64-2.64h26.53c3.01 0 5.55-2.23 5.95-5.21 1.64-12.3 12.23-21.57 24.63-21.57h25.61c12.41 0 22.99 9.27 24.63 21.57.4 2.98 2.94 5.21 5.95 5.21h26.53c1.43 0 2.64 1.21 2.64 2.64v39.31c0 1.43-1.21 2.64-2.64 2.64h-139.83c-1.43 0-2.64-1.21-2.64-2.64zm-71.75 397.62v-386.43h59.75v22.12h-31.63c-3.31 0-6 2.69-6 6v330.19c0 3.31 2.69 6 6 6h192.64v9.71c0 2.18 1.18 4.18 3.08 5.24l12.86 7.17zm398-15.94-76.62 42.68v-77.07l24.08-13.41v32.26c0 2.14 1.14 4.13 3 5.2.93.54 1.96.8 3 .8s2.07-.27 3-.81l19.52-11.29c1.85-1.07 3-3.05 3-5.19v-38.53l21.02-11.71z" fill="url(#SVGID_1_)"/></svg>