<svg clip-rule="evenodd" fill-rule="evenodd" height="512" image-rendering="optimizeQuality" shape-rendering="geometricPrecision" text-rendering="geometricPrecision" viewBox="0 0 1707 1707" width="512" xmlns="http://www.w3.org/2000/svg"><g id="Layer_x0020_1"><g id="_500597416"><g><path d="m227 1042v-814c0-126 103-228 228-228h659 54c-4 0-8 1-11 2-12 5-20 17-20 29v208c0 57 47 103 103 103h208 1c15 0 28-11 31-26v50 676z" fill="#bce2f6"/><path d="m1449 342h-1-208c-56 0-103-46-103-103v-208-31h31c8 0 17 3 23 9l277 277c7 6 12 15 12 25v5 26z" fill="#98b7c7"/></g><path d="m1501 1707h-1296c-79 0-143-65-143-143v-379c0-79 64-143 143-143h1296c79 0 143 64 143 143v379c0 78-64 143-143 143z" fill="#ffe600"/><path d="m1253 924h-799c-13 0-23-10-23-23 0-12 10-23 23-23h799c12 0 22 11 22 23 0 13-10 23-22 23zm0-175h-799c-13 0-23-10-23-22 0-13 10-23 23-23h799c12 0 22 10 22 23 0 12-10 22-22 22zm0-174h-799c-13 0-23-10-23-23 0-12 10-23 23-23h799c12 0 22 11 22 23 0 13-10 23-22 23zm-206-289-92-92c-9-9-9-23 0-32s23-9 32 0l108 107c4 5 6 11 6 17s-2 11-6 16l-108 107c-4 4-10 7-16 7s-12-3-16-7c-9-9-9-23 0-32zm-390 0 91 91c9 9 9 23 0 32-4 4-10 7-16 7s-12-3-16-7l-107-107c-5-5-7-10-7-16s2-12 7-17l107-107c9-9 23-9 32 0s9 23 0 32zm166 134c-5 0-2 0-6-1-12-3-19-16-16-28l58-216c3-12 16-20 28-16 12 3 19 15 16 27l-58 217c-3 10-12 17-22 17z" fill="#333"/></g><path d="m694 1511c-75 0-124-59-124-131 0-32 10-65 31-90 23-28 56-42 93-42 75 0 123 59 123 132 0 32-9 64-30 89-24 29-56 42-93 42zm0-218c-50 0-78 39-78 87 0 47 28 86 78 86 23 0 43-8 58-26 14-16 20-39 20-60 0-48-28-87-78-87zm-297 173h113c12 0 22 10 22 23 0 12-10 22-22 22h-136c-13 0-23-10-23-22v-218c0-13 10-23 23-23 12 0 23 10 23 23zm667-21v-30h-63c-13 0-23-10-23-23 0-12 10-22 23-22h86c12 0 23 10 23 22v66c0 7-4 15-11 19-30 19-65 35-101 35-39 0-74-20-97-51-40-56-34-123 10-175 27-32 70-44 110-36 40 9 72 36 84 76 4 12-3 25-15 28-12 4-25-3-28-15-8-23-26-39-50-44s-51 2-67 21c-30 35-35 80-7 118 32 46 83 36 126 11zm197 66c-44 0-94-28-94-77 0-12 10-22 23-22 12 0 23 10 23 22 0 22 31 32 48 32 18 0 49-10 49-32 0-26-33-28-53-32-46-8-90-21-90-77 0-49 50-77 94-77s94 28 94 77c0 13-10 23-22 23-13 0-23-10-23-23 0-21-31-32-49-32-17 0-48 11-48 32 0 27 32 29 52 32 46 9 90 21 90 77 0 49-50 77-94 77z" fill="#333"/></g></svg>