<svg id="Layer_1" viewBox="0 0 512 512" xmlns="http://www.w3.org/2000/svg" data-name="Layer 1"><g fill-rule="evenodd"><path d="m481.284 102.039c1.728.964 2.809 2.799 2.807 4.786h.013v170.663c0 2.221-1.317 4.133-3.212 5l-118.682 68.521-17.388 36.105c-1.316 2.727-4.594 3.871-7.321 2.555l-33.701-16.23v8.402l11.335 11.335c3.627 3.627 3.645 9.512-.01 13.168l.011.011-2.832 2.832.942 2.272c4.116 0 7.378-.459 10.581 2.744l.011-.011c1.687 1.687 2.733 4.018 2.733 6.586v21.187c0 5.137-4.183 9.319-9.319 9.319h-4.005l-.942 2.272c2.84 2.84 5.558 4.916 5.558 9.422 0 2.382-.912 4.754-2.736 6.578l.011.011-15.464 15.41c-3.893 3.23-9.235 3.032-12.696-.429l-2.832-2.832-2.272.942c0 4.105.456 7.402-2.733 10.591-1.687 1.687-4.018 2.733-6.586 2.733h-21.187c-5.137 0-9.32-4.184-9.32-9.319v-4.005l-2.272-.942c-2.838 2.839-4.922 5.558-9.421 5.558-2.383 0-4.772-.908-6.59-2.726l-14.981-14.981c-.626-.626-1.144-1.32-1.555-2.059h-161.193c-9.988 0-18.139-8.152-18.139-18.139v-239.625c0-9.987 8.152-18.139 18.139-18.139h131.479v-84.779c0-2.175 1.264-4.054 3.096-4.946l73.551-42.465 73.921-42.666c1.755-1.008 3.835-.936 5.47.009l.005-.009 147.727 85.29z"/><path d="m455.54 232.497c2.62-1.517 5.975-.623 7.493 1.997 1.517 2.62.623 5.975-1.997 7.493l-36.949 21.333c-2.62 1.517-5.975.623-7.493-1.997-1.517-2.62-.623-5.975 1.997-7.493z" fill="#d7e9ff"/><path d="m455.866 255.461c2.62-1.517 5.975-.623 7.493 1.997 1.517 2.62.623 5.975-1.997 7.493l-36.949 21.333c-2.62 1.517-5.975.623-7.493-1.997-1.517-2.62-.623-5.975 1.997-7.493z" fill="#d7e9ff"/><path d="m249.158 74.965 136.833 79 26.392-15.238-136.843-79.006z" fill="#e3ceae"/><path d="m249.158 74.965 113.014 65.248c2.178-8.979 3.999-18.097 5.414-27.35l-92.045-53.142-26.382 15.244z" fill="#f9e4c5"/><path d="m392.745 162.728v46.379l10.72-11.466c1.555-1.671 3.91-2.153 5.925-1.406l9.721 3.118v-51.848l-26.366 15.222z" fill="#e3ceae"/><path d="m286.506 53.39 136.843 79.006 44.292-25.572-136.843-79.006z" fill="#c49362"/><path d="m286.506 53.39 82.627 47.705c1.408-12.241 2.156-24.682 2.156-37.3 0-4.275-.109-8.523-.273-12.757l-40.218-23.22z" fill="#d1a67b"/><path d="m430.104 141.159v65.712h-.016c-.002 3.685-3.597 6.358-7.155 5.217l-13.817-4.432-17.61 18.836c-3.623 4.142-9.753 1.41-9.753-3.477v-53.941l-45.448 26.239v135.277l21.47 10.34 115.336-66.589v-158.012l-43.008 24.83z" fill="#b07d4a"/><path d="m345.764 189.853-9.459 5.461v14.826c3.377-6.634 6.536-13.399 9.459-20.287z" fill="#ca9764"/><path d="m375.025 160.296-136.832-79-44.227 25.535 136.832 79z" fill="#d1a67b"/><path d="m359.308 151.222-121.115-69.926-44.227 25.535 136.832 79 21.373-12.34c2.637-7.305 5.021-14.73 7.136-22.269z" fill="#d1a67b"/><path d="m329.177 339.329-46.289-22.292.002-.004c-1.667-.807-2.885-2.44-3.072-4.418-2.257-23.536-26.986-38.043-48.727-28.421l11.037 5.316c5.575 2.685 9.546 7.409 11.452 12.855 4.116 11.764-2.04 24.523-13.803 28.638-5.442 1.904-12.096 1.745-17.528-1.112l-10.696-5.151c4.199 16.075 19.194 26.996 35.839 25.931 5.911-.378 11.638-2.26 16.605-5.443 1.575-1.109 3.688-1.354 5.545-.458l67.78 32.643 13.354-27.728-21.5-10.354z" fill="#b3b3b3"/><path d="m273.326 295.481c-9.216-12.579-26.506-18.249-42.235-11.288l11.037 5.316c5.575 2.685 9.546 7.409 11.452 12.855 1.147 3.278 1.495 6.633 1.148 9.857 6.416-5.339 12.616-10.927 18.598-16.74zm-44.902 36.466c-2.14-.361-4.235-1.037-6.175-2.057l-10.696-5.151c1.338 5.121 3.773 9.718 7.006 13.572 3.326-2.068 6.621-4.18 9.865-6.364z" fill="#e6e6e6"/><path d="m325.313 325.297v-129.996l-136.806-78.985v75.287h97.154c9.987 0 18.139 8.152 18.139 18.139v105.194z" fill="#b07d4a"/><path d="m325.313 229.961v-34.66l-136.806-78.985v75.287h97.154c9.987 0 18.139 8.152 18.139 18.139v51.65c7.763-10.026 14.953-20.516 21.513-31.431z" fill="#ca9764"/><path d="m225.352 357.168c-16.139-7.772-26.053-24.089-25.881-41.74.039-4.069 4.293-6.61 7.855-4.889l.003-.007 20.034 9.648c9.102 4.38 19.296-4.418 15.87-14.212-.976-2.789-3.011-5.209-5.87-6.586l-20.029-9.646c-3.723-1.795-4.181-6.79-.886-9.341 6.739-5.444 14.882-8.852 23.404-9.864 24.225-2.876 46.413 13.854 50.455 37.905l2.501 1.205v-99.9c0-3.92-3.227-7.147-7.147-7.147h-83.122v81.959c0 5.092-6.577 7.718-10.012 3.133l-26.678-33.089-26.921 33.39c-3.248 4.034-9.751 1.698-9.754-3.435h-.014v-81.959h-83.124c-3.92 0-7.147 3.227-7.147 7.147v239.625c0 3.921 3.227 7.147 7.147 7.147h162.641l.115-.117-.011-.011 2.832-2.832-.942-2.272c-4.105 0-7.402.456-10.591-2.733-1.686-1.686-2.734-4.018-2.734-6.586v-21.187c0-5.136 4.183-9.319 9.32-9.319h4.005l.942-2.272c-2.84-2.84-5.558-4.916-5.558-9.422 0-2.381.912-4.754 2.736-6.579l-.011-.011 15.436-15.388c3.872-3.255 9.257-3.06 12.724.407l2.832 2.832 2.272-.942c0-4.105-.455-7.402 2.734-10.591 1.687-1.687 4.018-2.733 6.586-2.733h21.187c2.564 0 4.882 1.051 6.575 2.744l.011-.011c3.189 3.189 2.733 6.486 2.733 10.591l2.272.942c2.642-2.642 4.585-5.193 8.664-5.526v-7.355l-25.368-12.217c-12.909 7.173-28.522 7.774-42.088 1.241zm-163.21 44.505c-3.035 0-5.496-2.461-5.496-5.496s2.461-5.496 5.496-5.496h50.185c3.035 0 5.496 2.461 5.496 5.496s-2.461 5.496-5.496 5.496zm0 32.126c-3.035 0-5.496-2.461-5.496-5.496s2.461-5.496 5.496-5.496h50.185c3.035 0 5.496 2.461 5.496 5.496s-2.461 5.496-5.496 5.496z" fill="#b07d4a"/><path d="m209.073 344.011c-6.232-8.041-9.704-18.075-9.602-28.583.039-4.069 4.293-6.61 7.855-4.889l.003-.007 20.034 9.648c9.102 4.38 19.296-4.418 15.87-14.212-.976-2.789-3.011-5.209-5.87-6.586l-20.029-9.646c-3.723-1.795-4.181-6.79-.886-9.341 6.739-5.444 14.882-8.852 23.404-9.864 16.322-1.938 31.718 5.025 41.263 17.131 4.008-4.168 7.911-8.436 11.692-12.814v-65.108c0-3.92-3.227-7.147-7.147-7.147h-83.122v81.959c0 5.092-6.577 7.718-10.012 3.133l-26.678-33.089-26.921 33.39c-3.248 4.034-9.751 1.698-9.754-3.435h-.014v-81.959h-83.123c-3.92 0-7.147 3.227-7.147 7.147v176.933c3.116.089 6.239.145 9.376.145 58.546 0 113.455-15.576 160.808-42.809z" fill="#d1a67b"/><path d="m140.151 202.596v66.408c2.558-3.172 21.139-26.507 22.262-27.411 2.36-1.897 5.81-1.522 7.707.837l21.425 26.574v-66.408h-51.395z" fill="#f9e4c5"/><path d="m270.879 377.751h-17.842v6.231h-.021c0 2.349-1.522 4.522-3.886 5.238-1.896.575-5.811 2.083-7.501 3.066-2.129 1.378-5.002 1.135-6.868-.731l-4.409-4.409-12.617 12.617 4.409 4.409-.014.014c1.66 1.659 2.12 4.27.959 6.448-.925 1.732-2.645 5.579-3.141 7.461-.526 2.487-2.733 4.353-5.377 4.353h-6.231v17.842h6.231v.021c2.349 0 4.522 1.522 5.238 3.886.576 1.896 2.084 5.812 3.066 7.501 1.378 2.129 1.134 5.002-.731 6.868l-4.409 4.409 12.617 12.617 4.409-4.409.014.014c1.659-1.66 4.27-2.12 6.448-.959 1.732.924 5.579 2.645 7.461 3.141 2.487.526 4.353 2.733 4.353 5.377v6.231h17.842v-6.231h.021c0-2.349 1.522-4.522 3.886-5.238 1.897-.576 5.811-2.083 7.501-3.066 2.129-1.378 5.002-1.134 6.868.731l4.409 4.409 12.617-12.617-4.409-4.409.014-.014c-1.661-1.659-2.12-4.27-.959-6.448.924-1.731 2.645-5.58 3.142-7.461.526-2.487 2.733-4.353 5.377-4.353h6.231v-17.842h-6.231v-.021c-2.349 0-4.522-1.522-5.238-3.886-.576-1.897-2.084-5.812-3.066-7.501-1.378-2.129-1.134-5.002.731-6.868l4.409-4.409-12.617-12.617-4.409 4.409-.014-.014c-1.659 1.66-4.27 2.12-6.448.959-1.732-.925-5.579-2.645-7.461-3.141-2.487-.526-4.353-2.733-4.353-5.377v-6.231zm-8.921 24.728c15.954 0 28.891 12.937 28.891 28.891s-12.936 28.891-28.891 28.891-28.891-12.936-28.891-28.891 12.937-28.891 28.891-28.891z" fill="#537dbd"/><path d="m274.615 418.713c-11.244-11.244-30.555-3.243-30.555 12.657s19.312 23.9 30.555 12.657c6.989-6.989 6.988-18.325 0-25.314z" fill="#b07d4a"/></g></svg>