<svg id="Layer_1" enable-background="new 0 0 512 512" viewBox="0 0 512 512" xmlns="http://www.w3.org/2000/svg"><g clip-rule="evenodd" fill-rule="evenodd"><path d="m347.8 164.3h-64.4c-45.5 0-82.7 37.2-82.7 82.7v36.8h229.8v-36.8c0-45.5-37.2-82.7-82.7-82.7z" fill="#fbb13c"/><path d="m315.6 55.9c-31.5 0-57.1 25.5-57.1 57s25.5 57.1 57.1 57.1c31.5 0 57-25.5 57-57.1 0-31.4-25.5-57-57-57z" fill="#fbd1a2"/><path d="m220 247.9h-63.9c-45.1 0-82.1 36.9-82.1 82.1v36.5h228v-36.5c.1-45.2-36.9-82.1-82-82.1z" fill="#fbb13c"/><path d="m188.1 140.3c-31.3 0-56.6 25.3-56.6 56.6s25.3 56.6 56.6 56.6 56.6-25.3 56.6-56.6-25.4-56.6-56.6-56.6z" fill="#fbd1a2"/><path d="m81 366.5h214c26.5 0 48.2 21.7 48.2 48.2 0 26.5-21.7 48.2-48.2 48.2h-214c-26.5 0-48.2-21.7-48.2-48.2 0-26.5 21.7-48.2 48.2-48.2z" fill="#00b2ca"/><path d="m385 226.6c54 0 97.8 43.8 97.8 97.8s-43.8 97.8-97.8 97.8-97.8-43.8-97.8-97.8 43.8-97.8 97.8-97.8z" fill="#b5b682"/><path d="m365.5 266.8h39.1v38.1h38.1v39.1h-38.1v38.1h-39.1v-38.1h-38.1v-39.1h38.1z" fill="#fff"/></g><path d="m315.6 63.9c-27.1 0-49.1 22-49.1 49 0 27.1 22 49.1 49.1 49.1s49-22 49-49.1c.1-27-21.9-49-49-49zm49.9 194.9h39.1c4.4 0 8 3.6 8 8v30.1h30.1c4.4 0 8 3.6 8 8v39.1c0 4.4-3.6 8-8 8h-30.1v30.1c0 4.4-3.6 8-8 8h-39.1c-4.4 0-8-3.6-8-8v-30.1h-30.1c-4.4 0-8-3.6-8-8v-39.1c0-4.4 3.6-8 8-8h30.1v-30.1c0-4.4 3.6-8 8-8zm31.1 16h-23.1v30.1c0 4.4-3.6 8-8 8h-30.1v23.1h30.1c4.4 0 8 3.6 8 8v30.1h23.1v-30.1c0-4.4 3.6-8 8-8h30.1v-23.1h-30.1c-4.4 0-8-3.6-8-8zm-11.6-56.2c11.8 0 23.2 2 33.9 5.6-9.9-30.4-38.4-51.9-71.1-51.9h-5.5c-8.1 3.7-17.2 5.7-26.7 5.7s-18.6-2.1-26.7-5.7h-5.5c-11.7 0-22.8 2.6-33 7.7 6 22-.1 45-15.3 61.1 22.4 3.9 42.4 16.2 56.2 34 18.1-34 53.7-56.5 93.7-56.5zm52.3 13.9c60.5 34.5 72.1 117.3 22.5 166.8-28.4 28.4-70.8 38.6-109.4 25.2-4.7 26.5-27.9 46.4-55.4 46.4h-214c-30.9 0-56.2-25.3-56.2-56.2 0-25.5 17.3-47.5 41.2-54.2v-30.6c0-44.1 32.2-81.5 74.9-88.8-23.9-25.4-23.2-65.2 1.4-89.9 30.3-30.3 81-23.2 102 14 7.6-3.7 15.6-6.2 23.9-7.6-24.2-25.6-23.6-65.8 1.3-90.6 25.4-25.4 66.6-25.4 92 0 24.9 24.9 25.5 65 1.4 90.6 38 6.5 68.2 36.7 74.4 74.9zm-102.2 185.3c-18.4-9.8-33.5-24.9-43.4-43.3h-210.7c-22.1 0-40.2 18.1-40.2 40.2s18.1 40.2 40.2 40.2h214c21.1 0 38.6-16.4 40.1-37.1zm-50.3-59.3c-7.2-21.1-7.5-44.3-.8-65.7-13.2-22.6-37.4-36.9-64-36.9h-5.4c-8.1 3.7-17.1 5.7-26.5 5.7s-18.4-2-26.5-5.7h-5.4c-40.7 0-74.1 33.4-74.1 74.1v28.5zm163.7-97.6c-35.1-35.1-91.9-35.1-127 0-34.8 34.8-35.3 91.7 0 127 35.1 35.1 91.9 35.1 127 0 35.1-35 35.1-91.9 0-127zm-343.4 176.2c0 4.4-3.6 8-8 8s-8-3.6-8-8v-44.9c0-7.1 9-11.3 14.4-4.8l27.1 29.3v-24.5c0-4.4 3.6-8 8-8s8 3.6 8 8v44.9c0 7.2-8.9 10.7-13.8 5.4l-27.7-29.9zm71.1-30.4h12.4c4.4 0 8 3.6 8 8s-3.6 8-8 8h-12.4v6.4h22.8c4.4 0 8 3.6 8 8s-3.6 8-8 8h-30.8c-4.4 0-8-3.6-8-8v-44.9c0-4.4 3.6-8 8-8h30.3c4.4 0 8 3.6 8 8s-3.6 8-8 8h-22.3zm40-14.4c0-4.4 3.6-8 8-8s8 3.6 8 8v24.6l13.5-14.5c3.2-3.4 8.5-3.4 11.7 0 4.5 4.8 9 9.7 13.5 14.5v-24.6c0-4.4 3.6-8 8-8s8 3.6 8 8v44.9c0 7.2-8.9 10.7-13.8 5.4l-21.5-23.1-21.2 22.7c-5.3 6-14.2 2.1-14.2-5zm-28.1-244c-26.8 0-48.6 21.8-48.6 48.6s21.8 48.6 48.6 48.6 48.6-21.8 48.6-48.6-21.8-48.6-48.6-48.6z"/></svg>