<svg id="Capa_1" enable-background="new 0 0 512 512" viewBox="0 0 512 512" xmlns="http://www.w3.org/2000/svg"><g><path d="m257.81 25.973 48.675-23.794c1.988-.972 4.389-.192 5.426 1.763l25.393 47.86c.593 1.118 1.669 1.9 2.916 2.118l53.364 9.361c2.18.382 3.664 2.425 3.354 4.616l-7.588 53.645c-.061.429-.052.86.02 1.277.139.801-.146 3.584.432 4.182l32.873 36.908c1.539 1.591 1.539 4.115 0 5.706l-35.765 38.578c-.88.91-1.291 2.174-1.114 3.427l11.142 54.007c.31 2.191-1.174 4.234-3.354 4.616l-53.364 9.361c-1.247.219-2.322 1-2.916 2.118l-25.393 47.86c-1.037 1.955-3.438 2.735-5.426 1.763l-48.675-23.794c-1.137-.556-2.467-.556-3.604 0l-48.675 23.794c-1.988.972-4.389.192-5.426-1.763l-25.393-47.86c-.593-1.118-1.669-1.9-2.916-2.118l-53.364-9.361c-2.18-.382-3.664-2.425-3.354-4.616l7.588-53.645c.177-1.253-.234-2.518-1.114-3.427l-37.67-38.94c-1.539-1.591-1.539-4.115 0-5.706l37.67-38.94c.88-.91 1.291-2.174 1.114-3.427l-7.588-53.645c-.31-2.191 1.174-4.234 3.354-4.616l53.364-9.361c1.247-.219 2.322-1 2.916-2.118l25.393-47.86c1.037-1.955 3.438-2.735 5.426-1.763l48.675 23.794c1.137.555 2.467.555 3.604 0z" fill="#f28cc4"/><path d="m390.467 208.552c-.882.913-1.292 2.174-1.118 3.426l7.591 53.647c.308 2.195-1.18 4.236-3.354 4.616l-53.37 9.365c-1.241.216-2.318.995-2.913 2.113l-25.388 47.862c-1.036 1.959-3.436 2.739-5.426 1.765l-48.683-23.798c-1.128-.554-2.462-.554-3.6 0l-25.972 12.699c3.641-19.849 6.206-62.602 10.627-63.064 73.875-7.765 137.165-62.377 150.51-134.364.143.8.523 1.549 1.098 2.154l37.666 38.938c1.539 1.59 1.539 4.113 0 5.703z" fill="#ed74b7"/><path d="m256.291 246.044 20.173 132.097-20.173 132.097h-172.174c-2.833 0-5.129-2.296-5.129-5.129v-224.263z" fill="#ffe177"/><path d="m256.291 246.044v264.194h139.932l25.042-7.725c2.833 0 5.129-2.296 5.129-5.129l-2.564-221.853z" fill="#ffd15b"/><path d="m434.041 273.524v231.586c0 2.831-2.298 5.129-5.129 5.129h-38.507c7.098 0 12.863-5.754 12.863-12.863v-228.612z" fill="#ffc344"/><path d="m256.282 246.044-35.662 64.32c-1.808 3.261-5.243 5.284-8.971 5.284h-162.544c-3.909 0-6.381-4.197-4.485-7.616l31.44-56.704c1.808-3.261 5.243-5.284 8.971-5.284z" fill="#ffd15b"/><path d="m256.299 246.044 35.662 64.32c1.808 3.261 5.243 5.284 8.971 5.284h162.988c3.909 0 6.381-4.197 4.486-7.616l-31.44-56.704c-1.808-3.261-5.243-5.284-8.971-5.284z" fill="#ffc344"/><g><g><g><path d="m504.307 174.455h-45.904c-4.249 0-7.693-3.444-7.693-7.693s3.444-7.693 7.693-7.693h45.904c4.249 0 7.693 3.444 7.693 7.693 0 4.25-3.444 7.693-7.693 7.693z" fill="#f6c2e0"/></g><g><path d="m446.587 137.458c-2.196 0-4.376-.935-5.897-2.748-2.732-3.256-2.307-8.108.948-10.839l21.482-18.025c3.256-2.733 8.107-2.306 10.839.948 2.732 3.256 2.307 8.108-.948 10.839l-21.482 18.025c-1.442 1.21-3.197 1.8-4.942 1.8z" fill="#f6c2e0"/></g><g><path d="m468.061 229.478c-1.745 0-3.5-.59-4.941-1.8l-21.482-18.025c-3.255-2.731-3.679-7.583-.948-10.839 2.731-3.254 7.584-3.68 10.839-.948l21.482 18.025c3.255 2.731 3.679 7.583.948 10.839-1.523 1.813-3.703 2.748-5.898 2.748z" fill="#f6c2e0"/></g></g><g><g><path d="m53.596 174.455h-45.903c-4.249 0-7.693-3.444-7.693-7.693s3.444-7.693 7.693-7.693h45.903c4.249 0 7.693 3.444 7.693 7.693.001 4.25-3.444 7.693-7.693 7.693z" fill="#f6c2e0"/></g><g><path d="m65.413 137.458c-1.745 0-3.5-.59-4.941-1.8l-21.482-18.025c-3.255-2.731-3.679-7.583-.949-10.839 2.73-3.255 7.584-3.681 10.839-.948l21.482 18.025c3.255 2.731 3.679 7.583.949 10.839-1.522 1.813-3.703 2.748-5.898 2.748z" fill="#f6c2e0"/></g><g><path d="m43.939 229.478c-2.196 0-4.376-.935-5.898-2.748-2.731-3.256-2.306-8.108.949-10.839l21.482-18.025c3.255-2.733 8.106-2.306 10.839.948 2.731 3.256 2.306 8.108-.949 10.839l-21.482 18.025c-1.442 1.21-3.196 1.8-4.941 1.8z" fill="#f6c2e0"/></g></g></g><path d="m186.234 479.153h-82.286c-2.266 0-4.103-1.837-4.103-4.103v-29.998c0-2.266 1.837-4.103 4.103-4.103h82.286c2.266 0 4.103 1.837 4.103 4.103v29.998c0 2.266-1.837 4.103-4.103 4.103z" fill="#ffd15b"/><g><g><g><g><path d="m182.644 417.866h-75.106c-4.249 0-7.693-3.444-7.693-7.693s3.444-7.693 7.693-7.693h75.106c4.249 0 7.693 3.444 7.693 7.693s-3.444 7.693-7.693 7.693z" fill="#ffd15b"/></g></g><g><path d="m383.946 456.07h-75.106c-4.249 0-7.693-3.444-7.693-7.693s3.444-7.693 7.693-7.693h75.106c4.249 0 7.693 3.444 7.693 7.693s-3.443 7.693-7.693 7.693z" fill="#ffc344"/></g><g><path d="m383.946 486.845h-75.106c-4.249 0-7.693-3.444-7.693-7.693s3.444-7.693 7.693-7.693h75.106c4.249 0 7.693 3.444 7.693 7.693s-3.443 7.693-7.693 7.693z" fill="#ffc344"/></g></g></g><g fill="#f2f0f3"><path d="m202.846 119.85c-4.249 0-7.693 3.444-7.693 7.693v40.101l-30.59-44.461c-1.91-2.776-5.406-3.987-8.621-2.986-3.218 1-5.41 3.977-5.41 7.347v62.877c0 4.249 3.444 7.693 7.693 7.693s7.693-3.444 7.693-7.693v-38.122l28.957 42.087c1.601 2.335 4.248 3.728 7.079 3.728 4.734 0 8.585-3.851 8.585-8.585v-61.985c0-4.25-3.445-7.694-7.693-7.694z"/><path d="m263.455 135.236c4.249 0 7.693-3.444 7.693-7.693s-3.444-7.693-7.693-7.693h-26.493c-4.249 0-7.693 3.444-7.693 7.693v62.877c0 4.249 3.444 7.693 7.693 7.693h26.493c4.249 0 7.693-3.444 7.693-7.693s-3.444-7.693-7.693-7.693h-18.8v-16.052h15.838c4.249 0 7.693-3.444 7.693-7.693s-3.444-7.693-7.693-7.693h-15.838v-16.053z"/><path d="m363.356 119.997c-4.167-.823-8.217 1.879-9.046 6.046l-7.636 38.412-12.083-39.179c-.995-3.225-3.975-5.425-7.349-5.426-.001 0-.002 0-.003 0-3.373 0-6.354 2.198-7.35 5.42l-12.115 39.184-7.605-38.406c-.825-4.167-4.866-6.876-9.042-6.052-4.168.825-6.878 4.873-6.052 9.042l12.172 61.468c.873 4.408 4.768 7.607 9.262 7.607 4.165 0 7.789-2.674 9.02-6.651l11.701-37.844 11.668 37.833c1.226 3.985 4.852 6.662 9.022 6.662 4.487 0 8.38-3.193 9.261-7.6l12.22-61.47c.83-4.168-1.877-8.218-6.045-9.046z"/></g></g><g/><g/><g/><g/><g/><g/><g/><g/><g/><g/><g/><g/><g/><g/><g/></svg>