<svg height="512" viewBox="0 0 48 48" width="512" xmlns="http://www.w3.org/2000/svg"><g id="new_tab" data-name="new tab"><rect fill="#00d9f2" height="32" rx="1" width="32" x="14" y="2"/><path d="m46 3v5h-11.77a1.23 1.23 0 0 1 -1.23-1.23v-4.77h12a1 1 0 0 1 1 1z" fill="#ff8a33"/><rect fill="#008999" height="32" rx="1" width="32" x="2" y="14"/><path d="m34 15v5h-11.77a1.23 1.23 0 0 1 -1.23-1.23v-4.77h12a1 1 0 0 1 1 1z" fill="#ff6d00"/><path d="m24 29h-5v-5a1 1 0 0 0 -2 0v5h-5a1 1 0 0 0 0 2h5v5a1 1 0 0 0 2 0v-5h5a1 1 0 0 0 0-2z" fill="#fff"/></g></svg>