<svg id="_x3C_Layer_x3E_" enable-background="new 0 0 32 32" height="32" viewBox="0 0 32 32" width="32" xmlns="http://www.w3.org/2000/svg"><g id="clients_x2C__customers_x2C__customer_type_x2C__people_1_"><g id="XMLID_679_"><g id="XMLID_705_"><g><path d="m3.125 21v-.044c-.002.015-.003.028-.004.044z" fill="#fff"/></g></g><g id="XMLID_704_"><g><path d="m20.5 18.72v5.88l-.63.33c-5.56 2.912-12.194 2.91-17.751-.005-.381-.2-.619-.594-.619-1.023v-5.172c0-1.7 1.07-3.21 2.67-3.78l4.16-1.46c.401-.141.67-.52.67-.945v-2.045h4v2.03c0 .421.265.796.662.938l4.178 1.483c1.59.559 2.66 2.069 2.66 3.769z" fill="#55fb9b"/></g></g><g id="XMLID_696_"><g><path d="m17.496 19.539v6.521c.023-.014.052-.014.078-.022l2.922-1.538v-5.77c0-1.56-1.205-3.259-2.678-3.774l-4.404-1.541h-4.836l.106.337c3.209 0 8.812.998 8.812 5.787z" fill="#43e886"/></g></g><g id="XMLID_693_"><g><path d="m3.121 20v-.044c-.002.015-.003.028-.004.044z" fill="#fff"/></g></g><g id="XMLID_690_"><g><path d="m13.29 13.213c-.177-.182-.29-.421-.29-.683v-2.03h-4v2.05c0 .255-.108.488-.276.669 0 .264.715 1.781 2.27 1.781 1.614 0 2.335-1.565 2.296-1.787z" fill="#eac89b"/></g></g><g id="XMLID_689_"><g><path d="m14.5 6v1c0 3.98-2.31 5-3.5 5s-3.5-1-3.5-5v-1c0-1.933 1.567-3.5 3.5-3.5 1.933 0 3.5 1.567 3.5 3.5z" fill="#ffe0b2"/></g></g><g id="XMLID_687_"><g><path d="m15.125 24v-.044c-.002.015-.003.028-.004.044z" fill="#fff"/></g></g><g id="XMLID_684_"><g><path d="m30.5 21.597v4.775c0 .632-.289 1.235-.8 1.609-3.81 2.788-11.44 2.944-15.4.006-.508-.377-.8-.978-.8-1.61v-4.767c0-1.619.977-3.079 2.474-3.697l3.408-1.407c.374-.155.618-.52.618-.925v-2.081h4v2.062c0 .404.243.769.617.924l3.413 1.414c1.495.62 2.47 2.079 2.47 3.697z" fill="#ff8a80"/></g></g><g id="XMLID_873_"><g><path d="m30.5 21.597c0-1.618-.975-3.078-2.47-3.697l-3.413-1.414c-.103-.042-.192-.103-.272-.173-.146.41-.391.779-.742 1.047 2.121.792 3.894 2.286 3.894 4.979v6.812c.816-.317 1.567-.703 2.204-1.169.511-.374.8-.977.8-1.609v-4.776z" fill="#f27670"/></g></g><g id="XMLID_682_"><g><path d="m15.121 23v-.044c-.002.015-.003.028-.004.044z" fill="#fff"/></g></g><g id="XMLID_681_"><g><path d="m24.29 16.213c-.177-.182-.29-.421-.29-.683v-2.03h-4v2.05c0 .255-.108.488-.276.669 0 .264.715 1.781 2.27 1.781 1.614 0 2.335-1.565 2.296-1.787z" fill="#a5908b"/></g></g><g id="XMLID_680_"><g><path d="m25.5 9v1c0 3.98-2.31 5-3.5 5s-3.5-1-3.5-5v-1c0-1.933 1.567-3.5 3.5-3.5 1.933 0 3.5 1.567 3.5 3.5z" fill="#bcaaa4"/></g></g></g><g id="XMLID_609_"><g id="XMLID_677_"><g><path d="m10.993 15.5c-1.659 0-2.524-1.294-2.75-1.979-.087-.263.056-.545.318-.632.261-.085.544.056.63.316.021.06.464 1.294 1.802 1.294 1.349 0 1.824-1.272 1.845-1.326.094-.259.383-.393.638-.302.259.092.396.375.305.635-.029.081-.72 1.994-2.788 1.994z" fill="#455a64"/></g></g><g id="XMLID_676_"><g><path d="m4.5 26.4c-.276 0-.5-.224-.5-.5v-5.4c0-.276.224-.5.5-.5s.5.224.5.5v5.4c0 .276-.224.5-.5.5z" fill="#455a64"/></g></g><g id="XMLID_675_"><g><path d="m17.84 15.45c-.056 0-.112-.009-.167-.029l-4.17-1.48c-.6-.209-1.003-.777-1.003-1.412v-1.229c0-.276.224-.5.5-.5s.5.224.5.5v1.23c0 .21.135.398.335.468l4.172 1.481c.261.092.396.378.305.638-.074.205-.266.333-.472.333z" fill="#455a64"/></g></g><g id="XMLID_672_"><g><path d="m11 12.5c-.276 0-.5-.224-.5-.5s.224-.5.5-.5c1.038 0 3-.94 3-4.5v-1c0-1.654-1.346-3-3-3s-3 1.346-3 3v1c0 1.724.461 3.043 1.332 3.814.207.183.227.499.043.706s-.5.225-.705.043c-.762-.674-1.67-2.012-1.67-4.563v-1c0-2.206 1.794-4 4-4s4 1.794 4 4v1c0 4.351-2.616 5.5-4 5.5z" fill="#455a64"/></g></g><g id="XMLID_632_"><g><path d="m21.993 18.5c-1.659 0-2.524-1.294-2.75-1.979-.087-.263.056-.545.318-.632.261-.087.544.056.63.316.021.06.464 1.294 1.802 1.294 1.349 0 1.824-1.272 1.845-1.326.093-.259.382-.392.638-.302.259.092.396.375.305.635-.029.081-.72 1.994-2.788 1.994z" fill="#455a64"/></g></g><g id="XMLID_629_"><g><path d="m16.5 29.5c-.276 0-.5-.224-.5-.5v-5.5c0-.276.224-.5.5-.5s.5.224.5.5v5.5c0 .276-.224.5-.5.5z" fill="#455a64"/></g></g><g id="XMLID_624_"><g><path d="m27.5 29.5c-.276 0-.5-.224-.5-.5v-5.5c0-.276.224-.5.5-.5s.5.224.5.5v5.5c0 .276-.224.5-.5.5z" fill="#455a64"/></g></g><g id="XMLID_621_"><g><path d="m22 15.5c-.276 0-.5-.224-.5-.5s.224-.5.5-.5c1.038 0 3-.94 3-4.5v-1c0-1.654-1.346-3-3-3s-3 1.346-3 3v1c0 1.724.461 3.043 1.332 3.814.207.183.227.499.043.706s-.5.225-.705.043c-.762-.674-1.67-2.012-1.67-4.563v-1c0-2.206 1.794-4 4-4s4 1.794 4 4v1c0 4.351-2.616 5.5-4 5.5z" fill="#455a64"/></g></g><g id="XMLID_615_"><g><path d="m21.898 30.554c-1.931 0-3.817-.344-5.582-1.026-.496-.192-1.15-.495-1.946-.901-.845-.433-1.37-1.287-1.37-2.231v-4.786c0-1.829 1.093-3.461 2.783-4.159l3.408-1.408c.188-.077.309-.259.309-.462v-1.281c0-.276.224-.5.5-.5s.5.224.5.5v1.281c0 .609-.364 1.153-.927 1.386l-3.409 1.407c-1.314.543-2.164 1.814-2.164 3.236v4.787c0 .566.316 1.08.825 1.34.754.385 1.395.682 1.853.859 2.701 1.044 5.712 1.24 8.713.565.274-.059.537.109.598.378.061.27-.109.537-.379.598-1.241.278-2.485.417-3.712.417z" fill="#455a64"/></g></g><g id="XMLID_614_"><g><path d="m27.499 29.56c-.212 0-.409-.136-.477-.349-.084-.263.062-.544.325-.628.407-.129 1.048-.421 1.854-.844.493-.257.799-.765.799-1.324v-4.825c0-1.417-.846-2.683-2.154-3.225l-3.42-1.417c-.563-.233-.926-.777-.926-1.386v-1.262c0-.276.224-.5.5-.5s.5.224.5.5v1.262c0 .203.121.384.309.462l3.42 1.417c1.683.698 2.771 2.326 2.771 4.149v4.825c0 .933-.511 1.78-1.333 2.211-.87.456-1.548.762-2.017.911-.05.016-.101.023-.151.023z" fill="#455a64"/></g></g><g id="XMLID_612_"><g><path d="m11.131 27.616c-3.924 0-7.11-1.216-8.688-1.958-.877-.412-1.443-1.302-1.443-2.266v-4.662c0-1.903 1.206-3.611 3.002-4.251l4.167-1.462c.198-.07.331-.257.331-.467v-1.25c0-.276.224-.5.5-.5s.5.224.5.5v1.25c0 .634-.401 1.201-1 1.41l-4.164 1.462c-1.397.497-2.336 1.827-2.336 3.308v4.662c0 .588.333 1.11.868 1.361 1.55.729 4.711 1.93 8.626 1.859.262-.001.504.214.51.49s-.214.504-.49.51c-.128.002-.256.004-.383.004z" fill="#455a64"/></g></g></g></g></svg>