<svg id="Layer_1" viewBox="0 0 512 512" xmlns="http://www.w3.org/2000/svg" data-name="Layer 1"><g fill-rule="evenodd"><path d="m326.579 420.232h-130.926v8.936h16.877c3.035 0 5.496 2.461 5.496 5.496v23.366c0 3.035-2.461 5.496-5.496 5.496h-120.038c-2.681 18.486-18.594 32.473-37.574 32.473-20.968 0-37.969-17.001-37.969-37.969 0-18.979 13.987-34.892 32.473-37.574v-151.15l-26.071-33.655c-1.85-2.395-1.407-5.836.988-7.686l18.472-14.309c2.395-1.85 5.836-1.407 7.686.988l32.124 41.47c.771.998 1.143 2.178 1.142 3.349h.017v54.969h9.377v-220.271c.001-1.406.538-2.813 1.61-3.886l72.616-72.615c.998-1.023 2.392-1.659 3.935-1.659h230.936c3.035 0 5.496 2.461 5.496 5.496v71.675l21.078-27.883c1.826-2.419 5.267-2.899 7.686-1.073l7.055 5.333 11.153-14.753c1.826-2.419 5.267-2.899 7.686-1.073l19.163 14.487c2.419 1.826 2.899 5.267 1.073 7.686l-11.157 14.759 16.631 12.572c7.681 5.806 9.218 16.83 3.411 24.511l-28.351 37.503c-1.826 2.419-5.267 2.899-7.686 1.073s-2.899-5.267-1.073-7.686l28.351-37.503c2.16-2.858 1.595-6.978-1.265-9.139l-5.207-3.936-68.549 90.677v130.382c38.237 3.81 67.785 36.088 67.785 74.971 0 41.611-33.735 75.346-75.346 75.346-35.74 0-66.147-25.026-73.61-59.193z"/><path d="m176.175 157.2c-3.035 0-5.496-2.461-5.496-5.496s2.461-5.496 5.496-5.496h188.497c.909 0 1.766.221 2.522.612l29.564-39.107v-80.72h-219.942v67.169c0 3.035-2.461 5.496-5.496 5.496h-67.169v214.774h86.007c3.035 0 5.496 2.461 5.496 5.496v89.311h129.365c-2.865-42.377 29.671-78.542 71.739-80.428v-115.544c-2.816 3.725-24.003 32.06-25.148 33.062-.513.455-1.097.801-1.719 1.031l.002.004-46.192 17.318c-3.782 1.413-7.692-1.678-7.369-5.581h-.017s.87-10.132.87-10.132h-141.009c-3.035 0-5.496-2.461-5.496-5.496s2.461-5.496 5.496-5.496h141.953l2.405-28.028c.096-1.169.552-2.222 1.249-3.06l2.876-3.805h-148.484c-3.035 0-5.496-2.461-5.496-5.496s2.461-5.496 5.496-5.496h156.794l26.377-34.893h-183.171zm-31.856 129.833c3.035 0 5.496 2.461 5.496 5.496s-2.461 5.496-5.496 5.496h-2.009c-3.035 0-5.496-2.461-5.496-5.496s2.461-5.496 5.496-5.496zm0-140.825c3.035 0 5.496 2.461 5.496 5.496s-2.461 5.496-5.496 5.496h-2.009c-3.035 0-5.496-2.461-5.496-5.496s2.461-5.496 5.496-5.496zm0 45.885c3.035 0 5.496 2.461 5.496 5.496s-2.461 5.496-5.496 5.496h-2.009c-3.035 0-5.496-2.461-5.496-5.496s2.461-5.496 5.496-5.496zm0 45.885c3.035 0 5.496 2.461 5.496 5.496s-2.461 5.496-5.496 5.496h-2.009c-3.035 0-5.496-2.461-5.496-5.496s2.461-5.496 5.496-5.496zm69.054 109.103c-3.035 0-5.496-2.461-5.496-5.496s2.461-5.496 5.496-5.496h114.836c3.035 0 5.496 2.461 5.496 5.496s-2.461 5.496-5.496 5.496zm-37.198-49.055c-3.035 0-5.496-2.461-5.496-5.496s2.461-5.496 5.496-5.496h188.497c3.035 0 5.496 2.461 5.496 5.496s-2.461 5.496-5.496 5.496z" fill="#e6e6e6"/><path d="m176.175 157.2c-3.035 0-5.496-2.461-5.496-5.496s2.461-5.496 5.496-5.496h188.497c.909 0 1.766.221 2.522.612l29.564-39.107v-39.775c-14.75-15.906-31.723-29.719-50.427-40.944h-169.515v67.169c0 3.035-2.461 5.496-5.496 5.496h-67.169v214.774h86.007c3.035 0 5.496 2.461 5.496 5.496v89.311h129.365c-2.865-42.377 29.671-78.542 71.739-80.428v-115.544c-2.816 3.725-24.003 32.06-25.148 33.062-.513.455-1.097.801-1.719 1.031l.002.004-46.192 17.318c-3.782 1.413-7.692-1.678-7.369-5.581h-.017s.87-10.132.87-10.132h-141.009c-3.035 0-5.496-2.461-5.496-5.496s2.461-5.496 5.496-5.496h141.953l2.405-28.028c.096-1.169.552-2.222 1.249-3.06l2.876-3.805h-148.484c-3.035 0-5.496-2.461-5.496-5.496s2.461-5.496 5.496-5.496h156.794l26.377-34.893zm-31.856 129.833c3.035 0 5.496 2.461 5.496 5.496s-2.461 5.496-5.496 5.496h-2.009c-3.035 0-5.496-2.461-5.496-5.496s2.461-5.496 5.496-5.496zm0-140.825c3.035 0 5.496 2.461 5.496 5.496s-2.461 5.496-5.496 5.496h-2.009c-3.035 0-5.496-2.461-5.496-5.496s2.461-5.496 5.496-5.496zm0 45.885c3.035 0 5.496 2.461 5.496 5.496s-2.461 5.496-5.496 5.496h-2.009c-3.035 0-5.496-2.461-5.496-5.496s2.461-5.496 5.496-5.496zm0 45.885c3.035 0 5.496 2.461 5.496 5.496s-2.461 5.496-5.496 5.496h-2.009c-3.035 0-5.496-2.461-5.496-5.496s2.461-5.496 5.496-5.496zm69.054 109.103c-3.035 0-5.496-2.461-5.496-5.496s2.461-5.496 5.496-5.496h114.836c3.035 0 5.496 2.461 5.496 5.496s-2.461 5.496-5.496 5.496zm-37.198-49.055c-3.035 0-5.496-2.461-5.496-5.496s2.461-5.496 5.496-5.496h188.497c3.035 0 5.496 2.461 5.496 5.496s-2.461 5.496-5.496 5.496z" fill="#fff"/><path d="m340.26 200.648-6.566 8.685 33.268 25.149 44.778-59.234-33.267-25.148z" fill="#6db2e3"/><path d="m328.658 243.755-.654 7.619 28.76-10.782-26.133-19.817z" fill="#ccc"/><path d="m111.92 88.665h53.903v-53.902z" fill="#b3b3b3"/><path d="m184.66 414.756v-89.332h-32.402v31.013c0 4.43-5.147 7.309-9.042 4.199l-8.997-6.781-9.236 6.962c-3.655 2.757-8.798.019-8.794-4.38h-.009v-31.013h-32.402v103.744h100.88v-14.412z" fill="#997854"/><path d="m184.66 414.756v-89.332h-32.402v31.013c0 4.43-5.147 7.309-9.042 4.199l-8.997-6.781-9.236 6.962c-3.655 2.757-8.798.019-8.794-4.38h-.009v-31.013h-32.402v76.883c12.772 10.37 26.679 19.394 41.506 26.861h59.374v-14.412z" fill="#b58e63"/><path d="m406.822 112.598c-.116.172-.241.338-.374.495l-21.357 28.251 33.267 25.149 49.185-65.063-33.267-25.149-27.454 36.316z" fill="#5494c2"/><path d="m406.822 112.598c-.116.172-.241.338-.374.495l-21.357 28.251 33.267 25.149 22.454-29.703c-5.872-14.29-13.137-27.86-21.638-40.533l-12.352 16.34z" fill="#6db2e3"/><path d="m61.034 420.552c4.115.667 8.082 2.007 11.754 3.97v-163.207l-27.604-35.634-9.808 7.598 23.612 30.481c.887.976 1.427 2.272 1.427 3.694v153.003z" fill="#b3b3b3"/><path d="m72.788 392.792v-131.477l-27.604-35.634-9.808 7.598 23.612 30.481c.887.976 1.427 2.272 1.427 3.694v113.026c3.969 4.258 8.095 8.366 12.373 12.312z" fill="#ccc"/><path d="m88.428 440.164c2.115 3.958 3.38 7.928 4.064 12.37h114.542v-12.373h-118.607l.002.003z" fill="#b3b3b3"/><path d="m206.493 452.534h.54v-12.373h-56.132c17.633 6.321 36.262 10.545 55.591 12.373z" fill="#ccc"/><path d="m54.918 431.053c-14.901 0-26.977 12.077-26.977 26.977s12.076 26.977 26.977 26.977c20.253 0 32.717-21.069 24.317-38.673l-2.317-3.921-2.472-2.996-.452-.463-.23-.227-.233-.225-.236-.222-.238-.219-.484-.43-.246-.211-.5-.412-.51-.4-1.048-.765-.268-.183-.27-.18-.547-.351-5.613-2.658c-2.791-.944-5.706-1.417-8.653-1.417zm0 12.31c13.019 0 19.591 15.817 10.371 25.038-9.22 9.22-25.038 2.649-25.038-10.371 0-8.099 6.568-14.667 14.667-14.667z" fill="#999"/><path d="m57.517 455.431c-3.423-3.423-8.621 1.775-5.198 5.198s8.621-1.776 5.198-5.198z" fill="#ccc"/><path d="m127.175 325.424v19.998l3.658-2.757c1.911-1.501 4.663-1.594 6.694-.061l3.739 2.819v-19.998h-14.091z" fill="#f0bc5e"/><path d="m445.694 358.573c-25.131-25.131-65.88-25.131-91.011 0-14.115 14.115-21.341 34.626-18.107 55.306 4.887 31.243 31.614 54.553 63.612 54.553 35.543 0 64.353-28.81 64.353-64.353 0-17.771-7.203-33.86-18.848-45.505zm-77.671 48.814c-2.217-2.063-2.342-5.533-.279-7.75s5.533-2.342 7.75-.279l16.768 15.625 32.428-33.298c2.11-2.17 5.581-2.218 7.75-.108 2.17 2.11 2.218 5.581.108 7.75l-36.088 37.058c-2.063 2.217-5.533 2.342-7.75.279l-20.687-19.278z" fill="#76a676"/><path d="m423.969 344.266c-23.15-9.19-50.555-4.424-69.285 14.307-14.115 14.115-21.341 34.626-18.107 55.306.601 3.843 1.534 7.565 2.765 11.139 9.815-5.43 19.19-11.558 28.059-18.315-1.597-2.085-1.506-5.078.343-7.065 2.063-2.217 5.533-2.342 7.75-.279l.5.466c18.8-15.799 35.031-34.556 47.974-55.558z" fill="#87b187"/></g><path d="m454.946 68.388h13.011v13.047h-13.011z" fill="#e6e6e6" transform="matrix(.603 -.798 .798 .603 123.418 397.841)"/></svg>