<svg id="Layer_1" enable-background="new 0 0 512 512" viewBox="0 0 512 512" xmlns="http://www.w3.org/2000/svg"><path d="m488.32 294.822h-329.758c-12.786 0-23.18 10.395-23.18 23.18v75.534c0 12.806 10.395 23.211 23.18 23.211h37.197c3.971 0 7.183 3.222 7.183 7.193v39.486l46.083-44.647c1.334-1.303 3.13-2.032 4.997-2.032h234.298c12.786 0 23.18-10.405 23.18-23.211v-75.534c0-12.785-10.395-23.18-23.18-23.18zm-229.423 70.885c3.437 1.98 4.607 6.383 2.627 9.81-1.334 2.309-3.745 3.602-6.229 3.602-1.221 0-2.453-.318-3.581-.965l-17.208-9.943v19.886c0 3.971-3.212 7.193-7.183 7.193s-7.183-3.222-7.183-7.193v-19.886l-17.208 9.943c-1.129.646-2.37.965-3.581.965-2.483 0-4.905-1.293-6.229-3.602-1.991-3.427-.811-7.829 2.627-9.81l17.208-9.933-17.208-9.943c-3.438-1.98-4.618-6.372-2.627-9.81 1.98-3.438 6.372-4.618 9.81-2.627l17.208 9.933v-19.856c0-3.971 3.212-7.183 7.183-7.183s7.183 3.212 7.183 7.183v19.856l17.208-9.933c3.437-1.991 7.829-.811 9.81 2.627 1.98 3.438.811 7.829-2.627 9.81l-17.208 9.943zm96.108 0c3.438 1.991 4.607 6.383 2.627 9.82-1.334 2.299-3.745 3.591-6.229 3.591-1.221 0-2.452-.318-3.591-.965l-17.198-9.943v19.886c0 3.971-3.222 7.193-7.183 7.193-3.971 0-7.193-3.222-7.193-7.193v-19.866l-17.167 9.923c-1.139.646-2.37.965-3.591.965-2.483 0-4.895-1.293-6.229-3.591-1.98-3.438-.811-7.829 2.627-9.82l17.198-9.933-17.198-9.943c-3.438-1.98-4.607-6.372-2.627-9.81 1.991-3.438 6.383-4.618 9.82-2.627l17.167 9.912v-19.835c0-3.971 3.222-7.183 7.193-7.183 3.961 0 7.183 3.212 7.183 7.183v19.856l17.198-9.933c3.438-1.991 7.829-.811 9.82 2.627 1.98 3.438.811 7.829-2.627 9.81l-17.198 9.943zm96.128 0c3.438 1.98 4.618 6.383 2.627 9.81-1.324 2.309-3.745 3.602-6.229 3.602-1.221 0-2.452-.318-3.581-.965l-17.208-9.943v19.886c0 3.971-3.212 7.193-7.183 7.193s-7.183-3.222-7.183-7.193v-19.886l-17.208 9.943c-1.129.646-2.36.965-3.581.965-2.483 0-4.905-1.293-6.229-3.602-1.991-3.427-.811-7.829 2.627-9.81l17.208-9.933-17.208-9.943c-3.438-1.98-4.618-6.372-2.627-9.81 1.98-3.438 6.372-4.618 9.81-2.627l17.208 9.933v-19.856c0-3.971 3.212-7.183 7.183-7.183s7.183 3.212 7.183 7.183v19.856l17.208-9.933c3.438-1.991 7.83-.811 9.81 2.627 1.991 3.438.811 7.829-2.627 9.81l-17.208 9.943zm-250.366 119.852c-1.375 1.324-3.171 2.021-5.007 2.021-.944 0-1.898-.185-2.801-.575-2.658-1.118-4.382-3.725-4.382-6.608v-49.275h-30.014c-20.707 0-37.557-16.859-37.557-37.587v-75.534c0-20.707 16.849-37.556 37.557-37.556h214.123c-4.782-20.728-23.386-36.038-45.304-36.038h-21.005v-73.563c0-49.377-40.173-89.551-89.551-89.551-49.408 0-89.592 40.173-89.592 89.551v73.563h-21.005c-25.622 0-46.484 20.872-46.484 46.515v167.865c0 25.622 20.861 46.473 46.484 46.473h221.152c25.633 0 46.484-20.851 46.484-46.473v-27.665h-116.928zm-31.359-314.714c0-26.125 21.272-47.377 47.418-47.377 26.125 0 47.376 21.251 47.376 47.377v73.563h-94.794zm-154.539 52.186c0 3.968-3.217 7.184-7.184 7.184s-7.185-3.216-7.185-7.184c0-119.264 97.028-216.292 216.292-216.292 101.135 0 188.924 70.523 210.998 168.528h41.187c2.801 0 5.356 1.631 6.526 4.186 1.17 2.545.759 5.541-1.067 7.676l-44.473 51.943c-1.365 1.601-3.355 2.514-5.459 2.514-2.093 0-4.094-.913-5.459-2.504l-44.503-51.953c-1.827-2.134-2.237-5.131-1.067-7.676 1.17-2.555 3.725-4.186 6.526-4.186h33.041c-21.76-89.84-102.92-154.16-196.25-154.16-111.34.001-201.923 90.584-201.923 201.924z"/></svg>