<svg id="Layer_1" viewBox="0 0 512 512" xmlns="http://www.w3.org/2000/svg" data-name="Layer 1"><path d="m74.883 134.241h362.209v240.017h-362.209z" fill="#e9e9ff"/><path d="m74.883 134.241h9.288v240.017h-9.288z" fill="#d1d1f0"/><g fill-rule="evenodd"><path d="m214.523 223.751c0 6.983-5.714 12.697-12.697 12.697h-46.752c-6.983 0-12.697-5.713-12.697-12.697v-24.998c0-34.944-36.073-44.76-36.073-91.722 0-43.088 36.073-64.631 72.147-64.631s72.146 21.544 72.146 64.631c0 46.961-36.073 56.778-36.073 91.722v24.998z" fill="#fcdb35"/><path d="m214.523 223.751c0 6.983-5.714 12.697-12.697 12.697h-32.414c-6.983 0-12.697-5.713-12.697-12.697v-28.276c0-34.944-36.073-44.761-36.073-91.722 0-32.174 20.115-52.333 45.324-60.482 4.124-.579 8.304-.872 12.484-.872 36.073 0 72.147 21.544 72.147 64.631 0 46.961-36.074 56.778-36.074 91.722v24.998z" fill="#ffeb87"/><path d="m159.155 218.188h38.591v25.32c0 5.344-4.374 9.717-9.717 9.717h-19.156c-5.344 0-9.717-4.373-9.717-9.717v-25.32z" fill="#495586"/><path d="m173.493 218.188h24.253v25.32c0 5.344-4.374 9.717-9.717 9.717h-8.307c-3.633-1.41-6.228-4.949-6.228-9.065v-25.972z" fill="#5d689e"/><path d="m214.523 223.751c0 6.983-5.713 12.697-12.697 12.697h-46.753c-6.983 0-12.697-5.713-12.697-12.697v-23.825h72.147z" fill="#5d689e"/><path d="m214.523 223.751c0 6.977-5.705 12.688-12.681 12.697h-32.43c-6.983 0-12.697-5.713-12.697-12.697v-23.825h57.808z" fill="#7986bf"/></g><path d="m142.376 199.927h72.147v18.261h-72.147z" fill="#7986bf"/><path d="m156.715 199.927h57.808v18.261h-57.808z" fill="#909cd1"/><path d="m440.299 421.512 30.721 64.859-23.966-7.456-11.644 22.234-24.231-67.552z" fill="#e8333c" fill-rule="evenodd"/><path d="m440.299 421.512 27.095 57.205-17.401-5.414-10.424 19.903-22.289-62.141z" fill="#fb545c" fill-rule="evenodd"/><path d="m406.191 433.632-24.14 67.585-11.674-22.219-23.956 7.489 30.634-64.901z" fill="#e8333c" fill-rule="evenodd"/><path d="m406.191 433.632-21.047 58.926-8.202-15.612-21.874 6.838 28.154-59.648z" fill="#fb545c" fill-rule="evenodd"/><path d="m423.879 324.303c4.089 5.757 10.685 8.489 17.647 7.31 6.473-1.097 11.885.086 16.649 4.849 4.765 4.764 5.945 10.174 4.85 16.649-1.18 6.962 1.552 13.558 7.309 17.647 5.353 3.802 8.344 8.464 8.344 15.201s-2.991 11.399-8.344 15.201c-5.757 4.089-8.489 10.685-7.31 17.647 1.097 6.473-.086 11.885-4.849 16.648-4.765 4.765-10.174 5.945-16.649 4.849-6.962-1.18-13.558 1.552-17.647 7.309-3.802 5.353-8.464 8.344-15.201 8.344s-11.399-2.991-15.201-8.344c-4.089-5.757-10.685-8.489-17.647-7.31-6.473 1.097-11.885-.086-16.649-4.849-4.765-4.764-5.945-10.174-4.849-16.649 1.18-6.962-1.552-13.558-7.309-17.647-5.353-3.802-8.344-8.464-8.344-15.201s2.991-11.399 8.344-15.201c5.757-4.089 8.489-10.685 7.31-17.647-1.098-6.473.086-11.885 4.849-16.648 4.764-4.765 10.174-5.945 16.649-4.85 6.962 1.18 13.558-1.552 17.647-7.309 3.802-5.353 8.464-8.344 15.201-8.344s11.399 2.991 15.201 8.344z" fill="#f9ac00" fill-rule="evenodd"/><path d="m423.879 324.303c4.089 5.757 10.685 8.49 17.647 7.31 6.473-1.098 11.885.086 16.649 4.849 4.765 4.764 5.945 10.174 4.849 16.649-1.18 6.962 1.552 13.558 7.31 17.647 5.353 3.802 8.344 8.464 8.344 15.201s-2.991 11.399-8.344 15.201c-5.757 4.089-8.489 10.685-7.31 17.647 1.098 6.473-.086 11.885-4.849 16.648-4.765 4.765-10.174 5.945-16.649 4.849-6.962-1.179-13.558 1.553-17.647 7.31-3.014 4.243-6.569 7.002-11.269 7.964-4.7-.962-8.255-3.72-11.269-7.964-4.089-5.757-10.685-8.489-17.647-7.31-.299.05-.595.096-.889.137-2.224-.486-4.578-.543-6.976-.137l-.091.015c-3.15-.649-6.023-2.194-8.693-4.864-4.765-4.764-5.945-10.174-4.85-16.649 1.18-6.962-1.552-13.558-7.309-17.647-5.353-3.802-8.344-8.464-8.344-15.201s2.991-11.399 8.344-15.201c5.757-4.089 8.489-10.685 7.31-17.647-1.097-6.473.086-11.885 4.849-16.648 2.671-2.671 5.544-4.215 8.694-4.864l.09.015c2.397.406 4.752.348 6.975-.137.294.041.591.086.89.137 6.962 1.18 13.558-1.552 17.647-7.31 3.014-4.243 6.569-7.002 11.269-7.964 4.7.962 8.255 3.721 11.269 7.964z" fill="#fdc72e" fill-rule="evenodd"/><circle cx="414.502" cy="386.022" fill="#f9ac00" r="33.5" transform="matrix(.985 -.174 .174 .985 -60.821 77.976)"/><circle cx="408.678" cy="385.96" fill="#f3f3ff" r="33.5" transform="matrix(.499 -.867 .867 .499 -129.697 547.623)"/><path d="m134.974 412.321c-22.665-2.778-40.286 10.111-73.007 10.545l-14.512.085-.093 70.827 14.604.062c34.196-9.238 70.069 1.882 100.185 5.23 16.783 1.865 23.94 2.438 45.343-6.744l102.902-44.677c8.075-3.781 17.295-8.804 21.153-11.797 6.058-13.94-5.668-27.481-40.532-14.464-23.013 8.592-51.848 17.111-64.95 19.533 1.003-2.248 1.478-4.835 1.31-7.81-.483-8.547-7.243-14.483-22.39-14.887-24.117-.642-45.773-2.932-70.014-5.901z" fill="#f2c496" fill-rule="evenodd"/><path d="m134.974 412.321c-22.665-2.777-40.286 10.111-73.007 10.545l-14.512.085-.076 58.533 14.588.045c34.196-9.237 70.069 1.882 100.185 5.23 16.783 1.865 23.94 2.438 45.342-6.744l102.902-44.677c6.902-3.232 14.641-7.372 19.153-10.375.363-.242 1.276-.85 2.196-1.471-3.967-7.513-16.976-10.973-40.728-2.105-23.013 8.592-51.848 17.111-64.95 19.533 1.003-2.248 1.478-4.836 1.31-7.81-.483-8.547-7.243-14.484-22.391-14.887-24.117-.642-45.774-2.932-70.014-5.902z" fill="#fdd7ad" fill-rule="evenodd"/><path d="m237.06 438.427c-2.956.714-8.808 2.09-10.991 2.493l.002-.004c-4.465 7.606-17.218 10.3-30.494 11.051-10.673.603-21.759-.068-29.667-.547-1.331-.08-2.571-.156-3.745-.22-6.108-.331-7.092 8.622-.274 8.989 1.251.068 2.714.156 4.299.252 8.058.488 19.353 1.172 30.41.547 17.851-1.009 36.075-5.799 40.458-22.562z" fill="#f2c496" fill-rule="evenodd"/><rect fill="#2a93fc" height="83.914" rx="5.577" width="28.894" x="33.073" y="417.131"/><path d="m49.128 417.131h7.263c3.078 0 5.577 2.499 5.577 5.577v72.761c0 3.078-2.499 5.577-5.577 5.577h-7.263c-3.078 0-5.576-2.499-5.576-5.576v-72.761c0-3.078 2.499-5.577 5.577-5.577z" fill="#4eb1fc"/><path d="m326.177 424.507c-3.689-3.895-14.438-5.521-33.525 1.607-21.042 7.853-48.594 16.211-63.355 19.278-.828 1.318-1.818 2.572-2.988 3.733-8.838 8.809-25.387 11.028-43.137 11.028-7.064 0-14.31-.348-21.341-.774-2.469-.152-4.615-.279-6.31-.348-2.763-.108-4.914-2.43-4.811-5.188.108-2.758 2.43-4.904 5.188-4.806 1.813.073 4.003.206 6.54.357 15.119.916 46.6 2.822 56.82-7.358 2.303-2.293 3.283-5.031 3.082-8.612-.362-6.442-6.251-9.857-17.509-10.156-23.413-.622-44.303-2.734-70.41-5.928-10.582-1.298-20.253 1.205-31.452 4.101-10.146 2.626-21.571 5.575-35.862 6.305v59.749c24.594-4.963 49.702-.745 72.071 3.023 8.27 1.391 16.079 2.704 23.55 3.537 15.702 1.744 22.193 2.464 42.774-6.364l102.695-44.587c7.451-3.493 15.241-7.76 19.062-10.401.789-2.337 1.278-5.707-1.083-8.196zm-269.069-1.759c0-.304-.27-.568-.568-.568h-17.72c-.309 0-.568.265-.568.568v72.678c0 .304.26.573.568.573h17.72c.299 0 .568-.269.568-.573zm276.329-5.124c4.865 5.134 5.811 12.699 2.533 20.248-.328.769-.862 1.44-1.519 1.955-4.532 3.513-14.624 8.872-22.071 12.36-.054.024-.093.044-.132.063l-102.788 44.626c-14.751 6.33-23.251 8.255-32.501 8.255-4.63 0-9.441-.485-15.329-1.137-7.76-.862-15.702-2.2-24.113-3.616-23.266-3.919-47.296-7.956-70.679-2.596-1.078 4.698-5.276 8.216-10.298 8.216h-17.72c-5.83 0-10.572-4.742-10.572-10.572v-72.678c0-5.825 4.742-10.567 10.572-10.567h17.72c4.042 0 7.549 2.273 9.328 5.609 13.644-.617 24.74-3.483 34.593-6.031 11.679-3.023 22.707-5.879 35.18-4.345 25.808 3.16 46.439 5.247 69.46 5.859 23.609.627 26.901 13.904 27.219 19.582.03.549.02 1.073.02 1.607 14.972-3.586 38.38-10.837 56.81-17.715 27.92-10.425 39.732-3.924 44.288.877zm103.974-31.383c0-15.844-12.895-28.729-28.733-28.729s-28.728 12.885-28.728 28.729 12.889 28.728 28.728 28.728 28.733-12.89 28.733-28.728zm9.999 0c0 21.355-17.372 38.727-38.732 38.727s-38.728-17.372-38.728-38.727 17.377-38.733 38.728-38.733 38.732 17.377 38.732 38.733zm26.347 0c0 4.693-1.911 8.025-6.271 11.136-7.349 5.227-10.876 13.668-9.357 22.57.931 5.296-.147 8.97-3.429 12.292-3.332 3.322-7.011 4.355-12.312 3.459-8.911-1.509-17.338 1.984-22.57 9.347-3.111 4.38-6.438 6.246-11.141 6.246s-8.03-1.867-11.141-6.242c-4.419-6.236-11.145-9.695-18.509-9.695-1.338 0-2.69.113-4.061.343-5.286.901-8.97-.137-12.287-3.459-3.321-3.321-4.35-6.996-3.464-12.292 1.514-8.902-1.974-17.343-9.347-22.57-4.37-3.111-6.241-6.442-6.241-11.136s1.871-8.03 6.241-11.141c7.373-5.227 10.862-13.664 9.347-22.57-.887-5.296.142-8.97 3.464-12.292s7.001-4.351 12.287-3.459c8.902 1.509 17.353-1.984 22.57-9.347 3.111-4.38 6.452-6.246 11.141-6.246s8.03 1.867 11.141 6.246c5.232 7.363 13.659 10.856 22.57 9.347 5.291-.897 8.98.142 12.312 3.459 3.282 3.321 4.36 6.996 3.429 12.292-1.519 8.902 2.009 17.343 9.357 22.57 4.36 3.111 6.271 6.442 6.271 11.141zm-27.269 59.744c-1.832.049-3.748-.088-5.771-.426-5.11-.867-9.749 1.058-12.747 5.276-1.141 1.607-2.362 3.018-3.64 4.252l11.988 33.427 6.349-12.13c1.122-2.136 3.61-3.174 5.923-2.449l13.066 4.066zm-53.317 9.24c-1.333-1.264-2.592-2.724-3.782-4.389-2.988-4.218-7.642-6.139-12.752-5.276-1.94.328-3.797.465-5.58.426l-15.148 32.114 13.061-4.081c2.307-.72 4.796.308 5.918 2.445l6.369 12.12 11.915-33.358zm-313.282-85.965v-230.013h27.939c4.052 9.279 9.431 16.799 14.482 23.834 8.098 11.307 15.089 21.066 15.089 35.631v24.985c0 9.441 7.452 17.157 16.77 17.642v2.102c0 8.113 6.599 14.707 14.712 14.707h19.151c8.108 0 14.707-6.594 14.707-14.707v-2.102c9.323-.485 16.76-8.201 16.76-17.642v-24.985c0-14.565 7.001-24.324 15.099-35.631 5.051-7.035 10.43-14.555 14.482-23.834h183.021v186.215c-1.582-.916-2.984-2.2-4.13-3.821-5.002-7.035-11.312-10.455-19.293-10.455s-14.291 3.42-19.288 10.455c-2.998 4.218-7.652 6.144-12.752 5.281-8.118-1.376-14.761.436-20.258 5.517h-242.222c-2.758 0-4.997 2.239-4.997 5.002s2.239 5.002 4.997 5.002h235.731c-1.088 3.532-1.259 7.432-.529 11.758.872 5.105-1.058 9.749-5.281 12.753-1.039.735-1.989 1.509-2.881 2.307h-261.309zm67.632-262.994c-.529-.211-.941-.289-1.264-.289-.627 0-.916.304-1.068.46-1.538 1.641-2.317 7.349 1.881 16.353 2.92 6.256 7.809 11.219 13.928 14.442-2.219-20.801-9.382-29.341-13.477-30.967zm62.317 16.525c4.203-9.005 3.425-14.712 1.871-16.353-.137-.157-.431-.46-1.058-.46-.328 0-.74.078-1.274.289-4.086 1.627-11.248 10.166-13.478 30.967 6.119-3.224 11.018-8.186 13.938-14.442zm-24.618 28.16c-4.409.598-9.122.598-13.541 0v43.935h13.541zm24.28 53.939h-62.101v8.245h62.101zm0 18.808v-.558h-62.101v.558c0 4.238 3.449 7.687 7.692 7.687h46.728c4.243 0 7.682-3.449 7.682-7.687zm-45.332 19.744c0 2.596 2.111 4.708 4.713 4.708h19.151c2.587 0 4.708-2.112 4.708-4.708v-2.058h-28.572zm-52.817-136.392c0 23.589 9.7 37.121 19.077 50.206 7.731 10.783 15.692 21.914 16.823 37.63h14.428v-44.028c0-.813 0-1.607-.01-2.391-10.479-3.875-18.97-11.386-23.663-21.448-5.379-11.537-5.418-21.796-.088-27.445 3.39-3.591 8.363-4.561 13.301-2.601 8.848 3.517 18.239 16.868 20.13 43.798 4.581.838 9.627.838 14.208 0 1.881-26.93 11.283-40.28 20.13-43.798 4.943-1.96 9.911-.99 13.301 2.601 5.33 5.649 5.291 15.907-.088 27.445-4.693 10.063-13.184 17.573-23.663 21.448-.01.784-.02 1.577-.02 2.391v44.028h14.428c1.142-15.716 9.103-26.847 16.834-37.63 9.377-13.085 19.072-26.617 19.072-50.206 0-40.942-34.784-59.588-67.103-59.588s-67.098 18.646-67.098 59.588zm356.626 311.226c1.47 8.51-.588 15.388-6.222 21.037-1.715 1.685-3.478 3.047-5.438 4.091l19.254 40.618c.833 1.793.539 3.919-.735 5.418-1.323 1.494-3.381 2.082-5.242 1.494l-19.993-6.212-9.71 18.528c-.862 1.656-2.582 2.68-4.429 2.68-.112 0-.23-.005-.343-.015-1.979-.137-3.689-1.431-4.36-3.297l-15.178-42.304c-2.151.652-4.439.975-6.903.975-2.391 0-4.62-.308-6.717-.931l-15.123 42.318c-.666 1.871-2.381 3.17-4.355 3.307-.123.01-.23.015-.353.015-1.852 0-3.562-1.024-4.419-2.675l-9.73-18.518-19.969 6.241c-1.901.598-3.963.005-5.262-1.489-1.298-1.494-1.602-3.62-.749-5.418l19.175-40.643c-1.974-1.058-3.826-2.45-5.565-4.184-5.639-5.649-7.692-12.527-6.251-21.032.872-5.11-1.058-9.754-5.281-12.752-7.03-4.997-10.45-11.307-10.45-19.288 0-2.484.333-4.806.999-6.981h-259.741c-2.758 0-4.997-2.239-4.997-4.997v-240.017c0-2.763 2.239-5.002 4.997-5.002h29.375c-1.812-6.482-2.91-13.781-2.91-22.193 0-21.532 8.446-39.634 24.417-52.352 13.962-11.116 32.672-17.235 52.68-17.235s38.733 6.119 52.69 17.235c15.971 12.718 24.412 30.82 24.412 52.352 0 8.412-1.092 15.711-2.9 22.193h184.447c2.763 0 5.002 2.239 5.002 5.002v192.476c7.848-1.004 14.315 1.107 19.655 6.447 5.634 5.644 7.692 12.522 6.222 21.032-.833 5.105 1.078 9.749 5.291 12.753 7.055 4.997 10.484 11.302 10.484 19.288s-3.43 14.291-10.484 19.288c-4.213 2.998-6.124 7.642-5.291 12.747zm-353.819-109.109h283.659c2.763 0 5.002-2.239 5.002-5.002s-2.239-4.997-5.002-4.997h-283.659c-2.758 0-4.997 2.234-4.997 4.997s2.239 5.002 4.997 5.002zm125.741-66.549h157.918c2.763 0 5.002-2.239 5.002-5.002s-2.239-5.002-5.002-5.002h-157.918c-2.758 0-4.997 2.239-4.997 5.002s2.239 5.002 4.997 5.002zm-125.741 33.275h283.659c2.763 0 5.002-2.239 5.002-5.002s-2.239-5.002-5.002-5.002h-283.659c-2.758 0-4.997 2.239-4.997 5.002s2.239 5.002 4.997 5.002zm140.742-99.829h142.917c2.763 0 5.002-2.234 5.002-4.997s-2.239-5.002-5.002-5.002h-142.917c-2.763 0-5.002 2.239-5.002 5.002s2.239 4.997 5.002 4.997zm-13.639 33.275h156.556c2.763 0 5.002-2.239 5.002-4.997s-2.239-5.002-5.002-5.002h-156.556c-2.763 0-5.002 2.244-5.002 5.002s2.239 4.997 5.002 4.997zm-4.022-161.955c1.372 0 2.729-.558 3.719-1.646l8.554-9.465c1.847-2.048 1.69-5.213-.362-7.06-2.048-1.857-5.208-1.69-7.06.353l-8.549 9.465c-1.852 2.048-1.7 5.208.348 7.06.96.867 2.161 1.293 3.351 1.293zm-121.552-1.646c.98 1.088 2.342 1.646 3.714 1.646 1.19 0 2.391-.426 3.351-1.293 2.048-1.852 2.21-5.012.358-7.06l-8.549-9.465c-1.862-2.048-5.022-2.209-7.069-.353-2.053 1.847-2.21 5.012-.353 7.06l8.549 9.465zm151.574 57.849 14.492.024c2.758 0 4.997-2.234 4.997-4.992.01-2.758-2.229-5.002-4.987-5.007l-14.482-.024h-.01c-2.763 0-4.992 2.234-5.002 4.992 0 2.763 2.229 5.002 4.992 5.007zm-192.373.024h.014l14.477-.024c2.758-.005 5.002-2.244 4.992-5.007 0-2.758-2.239-4.992-5.002-4.992h-.01l-14.482.024c-2.758.005-4.997 2.249-4.987 5.007 0 2.758 2.239 4.992 4.997 4.992zm98.432-79.954v-12.659c0-2.758 2.239-4.997 4.997-4.997s5.002 2.239 5.002 4.997v12.659c0 2.763-2.239 5.002-5.002 5.002s-4.997-2.239-4.997-5.002z" fill-rule="evenodd"/></svg>