<svg id="Layer_1" enable-background="new 0 0 512 512" viewBox="0 0 512 512" xmlns="http://www.w3.org/2000/svg"><path d="m221 272.4v64.4h-42.2v-64.4zm-107.9 100.1c6.4.6 43.3 3.7 50.5 4.3 9.5.8 17.3 7.6 17.4 17 .1 12.2-11.7 22.5-23.9 23.6-11.8 1.9-33.2 1.5-42.3 8.2l63.1 20.1c.6.2 1.2.3 1.8.4 4.2 1 8.7 1.1 12.8-.1 1.5-.3 120.8-25.9 122.3-26.1v-139.6c.1-4.2-3.6-8-7.9-7.9h-74.4v70.2c0 3.2-2.6 5.8-5.8 5.8h-53.7c-3.2 0-5.8-2.6-5.8-5.8v-70.2h-74.4c-4.4-.1-8 3.6-8 7.9v98.1c8.8-4.2 18.4-6.8 28.3-5.9zm203.2 59c-.2.1-120.9 25.8-121.1 25.9-6.9 1.6-14 1.6-20.8-.6 0 0-66.9-21.2-66.9-21.2-6.9-2-9.4-11.3-3.8-16.1 14.2-12.3 34.5-11.6 52.1-13.5 5.1-.6 10.9-3.8 12.9-8.7 1.9-4.5-1.7-8.4-6.1-8.8-.1 0-41.8-3.6-41.8-3.6-6.5-.5-14.8-1.5-21.1.3.4-1.1-50.9 21.4-52.7 21.9v69.1l118.5 31.8c12.3 3.3 25.5 2.5 37-2.3l125.5-52.1c17.7-8.6 4.1-25.6-11.7-22.1zm-282.7-44.7h-30.9c-1 0-1.9.9-1.9 1.9v101.7c0 1.1.9 2 1.9 2h30.9c1 0 1.9-.9 1.9-2v-101.7c0-1.1-.8-1.9-1.9-1.9zm153.5-350.3c1-2.4 3.5-3.7 6.1-3.3 11.8 1.9 23.4-3.5 27.6-12.7 1.3-2.9 4.6-4.2 7.5-3 33.6 14.3 61.7 35.5 88.8 56.2 5.3 1.2 10.6 2.4 15.8 3.3-42.7-32.6-83.8-70.9-140.4-74.4l-24.1 53.1c3.6-.4 7.2-1.2 10.8-1.6zm8.8 8.6-3.6 7.9c32.7-1.3 65 6.4 96.5 14-18.7-13.8-38.5-26.8-60.3-36.7-6.9 9.7-19.3 15.5-32.6 14.8zm313.4-25.5h-30.9c-1 0-1.9.8-1.9 1.9v101.8c0 1 .9 1.9 1.9 1.9h30.9c1 0 1.9-.9 1.9-1.9v-101.8c0-1.1-.8-1.9-1.9-1.9zm-84.4 173c0 2.6-1.7 4.9-4.2 5.6-11.5 3.2-19.9 12.9-19.9 23-.1 6.4-7.2 6-11.9 5.8-34.3 0-67.2-7.5-99-14.8-33.1-7.6-67.4-15.5-102.4-14.5-3.1.1-6.1-2.6-6-5.8-.4-9.4-6.1-16.5-16.8-14.1-3.6 1.2-7.4-1.9-7.3-5.6v-65.7c0-2.6 1.7-4.9 4.2-5.6 11.5-3.2 19.9-12.9 19.9-23 0-3.1 2.5-5.7 5.6-5.8 53.7-1.1 101.8 15.6 153 24.8 2.9.8 5.7.3 8.4-.8 6.4-2.2 13.2-2.7 20-3.1-73.6-3.8-146.8-47-220.2-19.7v142.9c95-34.2 192.9 49.4 285.8 9.7v-95.4l-9.1 3.9v58.2zm-91-84.9c-7.6 11.9.3 26.6 14.5 27.5 10.7.3 55.2 6.4 65 3.4v50c-12.2 4.9-21.3 15.3-23.5 27-68.3.1-128.8-29.8-197.4-29.3-2.1-11.4-12-20.5-23.5-20.4v-55c12.3-4.9 21.3-15.4 23.5-27 48.9-.2 94.1 15.3 141.4 23.8zm-66.2 12.8c-31.2 25.7 14.5 81.9 47 58.3 31.1-26.1-14.7-81.8-47-58.3zm41.8-114.3-33.7 14c9.1 5.8 17.9 12.1 26.6 18.6 3.2 2.3 15.9 15.3 19.4 14.9 5.3-.6 10.7-.1 15.8 1.6l66.8 21.3c3.7 1.1 6.2 4.1 6.7 7.8 1.5 11.5-18.5 17.8-28 18.9l-27 3c-3.9.6-7.6 2.2-10.3 5.1-4.9 4.7-4.3 11.8 3.5 12.4l50.6 4.3c13.5 1.3 25.6-6.6 37.7-11.3l27.4-11.6v-69.4l-118.5-31.8c-12.2-3.3-25.7-2.5-37 2.2zm-19.8 121.1c-10.6-3.3-21.1 3.7-20.7 15.4 0 12.8 10.6 25.9 23.6 29.3 11.2 3 20.9-3.6 20.7-15.4 0-12.8-10.6-26-23.6-29.3z" fill="rgb(0,0,0)"/></svg>