<svg id="Capa_1" enable-background="new 0 0 511.997 511.997" height="512" viewBox="0 0 511.997 511.997" width="512" xmlns="http://www.w3.org/2000/svg"><g id="XMLID_268_"><path id="XMLID_269_" d="m269.673 246.545c-9.342-3.302-19.676-7.292-25.492-11.854-4.397-3.449-2.54-15.32 5.823-17.839 10.74-3.231 18.618 2.615 19.482 3.295 4.242 3.53 10.542 2.955 14.075-1.283 3.536-4.24 2.964-10.547-1.275-14.085-.105-.067-6.314-5.404-16.288-7.777v-11.285c0-5.523-4.478-10-10-10s-10 4.477-10 10v11.496c-25.828 6.638-31.488 39.625-14.16 53.216 6.522 5.115 15.554 9.453 31.169 14.974 10.637 3.76 10.404 12.376 9.811 15.906-1.197 7.125-7.191 14.825-17.52 14.893-10.038.067-13.159-.431-20.878-5.479-4.621-3.025-10.819-1.728-13.843 2.894-3.023 4.622-1.729 10.819 2.894 13.843 8.532 5.582 14.735 7.719 22.527 8.432v10.398c0 5.522 4.478 10 10 10 5.523 0 10-4.478 10-10v-11.608c14.874-4.333 24.395-17.281 26.543-30.057 2.847-16.935-6.342-32.238-22.868-38.08z"/><path id="XMLID_270_" d="m508.642 143.1-90.367-80.325c-6.428-5.718-16.644-1.144-16.644 7.474v30.163h-110.49c-5.522 0-10 4.478-10 10v27.79c-74.64-15.913-145.592 41.068-145.592 117.802 0 19.91 4.86 38.704 13.449 55.266h-38.633v-30.164c0-8.613-10.209-13.195-16.644-7.474l-90.366 80.326c-4.472 3.975-4.474 10.969 0 14.948l90.367 80.325c6.388 5.68 16.644 1.179 16.644-7.474v-30.163h110.49c5.523 0 10-4.478 10-10v-27.79c74.64 15.913 145.592-41.068 145.592-117.802 0-19.91-4.86-38.704-13.449-55.266h38.633v30.164c0 8.633 10.245 13.163 16.644 7.474l90.367-80.327c4.471-3.973 4.473-10.968-.001-14.947zm-297.786 248.495h-110.49c-5.522 0-10 4.478-10 10v17.895l-65.316-58.058 65.315-58.059v17.896c0 5.522 4.478 10 10 10h61.669c12.807 15.956 29.584 28.592 48.821 36.398v23.928zm45.142-35.142c-55.388 0-100.449-45.061-100.449-100.449s45.061-100.449 100.449-100.449 100.449 45.061 100.449 100.449-45.061 100.449-100.449 100.449zm165.633-147.82v-17.896c0-5.522-4.477-10-10-10h-61.669c-12.807-15.956-29.584-28.592-48.821-36.398v-23.929h110.49c5.523 0 10-4.478 10-10v-17.893l65.315 58.058z"/></g></svg>