<svg clip-rule="evenodd" fill-rule="evenodd" height="512" image-rendering="optimizeQuality" shape-rendering="geometricPrecision" text-rendering="geometricPrecision" viewBox="0 0 2.66666 2.66666" width="512" xmlns="http://www.w3.org/2000/svg"><g id="Layer_x0020_1"><circle fill="#f45c51" r=".792" transform="matrix(.436 -1.626 1.626 .436 1.333 1.333)"/><path d="m1.4118 2.18667h-.313886c-.0111102 0-.0194449-.00833465-.0194449-.0194449v-.17361c0-.0111142.00833465-.0194449.0194449-.0194449h.313886c.286106 0 .519441-.233331.519441-.519441 0-.286106-.233331-.519441-.519441-.519441l-.404161.00000394v.22222c0 .00694094-.00416929.0138858-.0111102.0180551-.00694488.00277559-.0152795.00277559-.0208346-.00138976l-.445831-.329161c-.00555512-.00416929-.00833071-.00972441-.00833071-.0166693 0-.00694094.00277559-.0124961.00833071-.0166654l.445831-.327776c.00555512-.00416535.0138898-.00555512.0208346-.00138583.00694094.00277559.0111102.00972047.0111102.0166654v.222217l.404161.00000394c.404161 0 .733327.327772.733327.731933 0 .404165-.329165.733331-.733327.733331z" fill="#fff"/></g></svg>