<svg id="Layer_1" enable-background="new 0 0 512 512" viewBox="0 0 512 512" xmlns="http://www.w3.org/2000/svg" xmlns:xlink="http://www.w3.org/1999/xlink"><linearGradient id="lg1"><stop offset="0" stop-color="#f68c1e"/><stop offset="1" stop-color="#ff4b05"/></linearGradient><linearGradient id="SVGID_1_" gradientTransform="matrix(1 0 0 -1 0 514.28)" gradientUnits="userSpaceOnUse" x1="204.28" x2="204.28" xlink:href="#lg1" y1="509.88" y2="10.46"/><linearGradient id="SVGID_00000095318831128875396080000003597393925757915521_" gradientTransform="matrix(1 0 0 -1 0 514.28)" gradientUnits="userSpaceOnUse" x1="411.68" x2="411.68" xlink:href="#lg1" y1="509.88" y2="10.46"/><g id="Layer_2_00000031900682602422595940000000143499593029532840_"><g id="Layer_1_copy_3"><g id="_114"><path d="m101.2 133.2c0-56.9 46.1-103 103.1-103 56.9 0 103 46.1 103 103.1 0 56.9-46.1 103-103.1 103-56.8-.1-102.9-46.2-103-103.1z" fill="url(#SVGID_1_)"/><path d="m408.6 449.3c0 18-14.5 32.5-32.5 32.5h-343.6c-18 0-32.5-14.6-32.5-32.5 0-100.3 81.6-181.9 181.9-181.9h44.8c100.3.1 181.9 81.7 181.9 181.9z" fill="url(#SVGID_1_)"/><path d="m479.5 191.1h-35.3v-35.3c-.6-17.9-15.7-32-33.6-31.4-17.1.6-30.8 14.3-31.4 31.4v35.3h-35.3c-17.9-.6-33 13.4-33.6 31.4-.6 17.9 13.4 33 31.4 33.6h2.3 35.3v35.3c-.6 17.9 13.4 33 31.4 33.6 17.9.6 33-13.4 33.6-31.4 0-.8 0-1.5 0-2.3v-35.2h35.3c17.9.6 33-13.4 33.6-31.4s-13.4-33-31.4-33.6c-.8.1-1.6.1-2.3 0z" fill="url(#SVGID_00000095318831128875396080000003597393925757915521_)"/></g></g></g></svg>