<svg id="Layer_1" viewBox="0 0 512 512" xmlns="http://www.w3.org/2000/svg" data-name="Layer 1"><g fill-rule="evenodd"><path d="m416.5 496h-232.254a5.5 5.5 0 0 1 -5.5-5.5v-18.548h-141.525a14.752 14.752 0 0 1 -14.721-14.723v-188.212a14.752 14.752 0 0 1 14.721-14.717h188.212a14.751 14.751 0 0 1 14.722 14.722v83.278a72 72 0 0 1 10.733-.8h98.971a72.335 72.335 0 0 1 72.141 72.136v66.864a5.5 5.5 0 0 1 -5.5 5.5z"/><path d="m189.742 485.007h40.158v-29.117a5.5 5.5 0 0 1 10.993 0v29.117h118.958v-29.117a5.5 5.5 0 0 1 10.993 0v29.117h40.156v-61.371a61.337 61.337 0 0 0 -61.145-61.142h-98.967a61.338 61.338 0 0 0 -61.146 61.142z" fill="#35739c"/><path d="m320.4 485.007h39.449v-29.117a5.5 5.5 0 0 1 10.993 0v29.117h40.158v-61.371a61.337 61.337 0 0 0 -61.145-61.142h-98.967a61.4 61.4 0 0 0 -58.543 43.547 270.42 270.42 0 0 0 128.055 78.966z" fill="#2c84c0"/><path d="m178.75 460.959v-37.323a72.4 72.4 0 0 1 50.413-68.773v-85.846a3.755 3.755 0 0 0 -3.73-3.73h-64.053v66.1a5.5 5.5 0 0 1 -8.96 4.267l-21.343-15.506-21.087 15.32a5.51 5.51 0 0 1 -8.708-4.444h-.008v-65.737h-64.053a3.755 3.755 0 0 0 -3.73 3.73v188.212a3.754 3.754 0 0 0 3.73 3.73zm-121.342-52.793a5.5 5.5 0 1 1 0-10.993h41.252a5.5 5.5 0 0 1 0 10.993zm0 25.238a5.5 5.5 0 1 1 0-10.992h41.252a5.5 5.5 0 0 1 0 10.992z" fill="#a68460"/><path d="m184.084 396.5a72.636 72.636 0 0 1 45.079-41.64v-85.843a3.755 3.755 0 0 0 -3.73-3.73h-64.053v66.1a5.5 5.5 0 0 1 -8.96 4.267l-9.216-6.695a270.375 270.375 0 0 0 40.88 67.541z" fill="#c49a6c"/><path d="m301.866 200.128c15.129 0 28.406 5.265 37.763 15.7 8.549 9.535 13.65 23.245 13.65 41.008 0 18.2-5.749 34.76-15.045 46.811-20.729 26.874-54.991 26.874-75.72 0-9.3-12.051-15.045-28.607-15.045-46.811 0-17.6 5.683-31.211 14.768-40.725 10.144-10.623 24.389-15.983 39.629-15.983z"/><path d="m331.471 223.129c-7.157-7.982-17.572-12.008-29.605-12.008-12.323 0-23.722 4.208-31.685 12.548-17.647 18.481-13.917 53.932 1.007 73.281 16.3 21.13 42.074 21.13 58.372 0 7.863-10.194 12.727-24.371 12.727-40.113 0-14.912-4.042-26.153-10.816-33.708z" fill="#2c84c0"/><path d="m112.266 265.287v54.959l15.5-11.258a5.492 5.492 0 0 1 6.536-.069l16.089 11.69v-55.322z" fill="#e6b243"/><path d="m136.169 310.278 14.218 10.331v-55.322h-25.082a268.771 268.771 0 0 0 10.864 44.991z" fill="#ffc447"/><path d="m152.324 48.031a83.206 83.206 0 0 1 21.826 9.059l15.107-10.226a5.492 5.492 0 0 1 7.143.87l16.81 16.489a5.483 5.483 0 0 1 .663 7.029l-10.068 15.509a83.889 83.889 0 0 1 9.049 21.838l17.887 3.447a5.487 5.487 0 0 1 4.448 5.7l.227 23.517a5.476 5.476 0 0 1 -4.339 5.4v.011l-18.232 3.879a83.184 83.184 0 0 1 -9.058 21.826l10.225 15.107a5.491 5.491 0 0 1 -.869 7.143l-16.489 16.81a5.483 5.483 0 0 1 -7.029.663l-15.507-10.072a83.847 83.847 0 0 1 -21.839 9.049l-3.447 17.887a5.486 5.486 0 0 1 -5.7 4.448l-23.516.227a5.477 5.477 0 0 1 -5.4-4.339h-.01l-3.879-18.232a83.2 83.2 0 0 1 -21.841-9.07l-15.086 10.218a5.475 5.475 0 0 1 -6.908-.628h-.005l-17.04-16.714a5.481 5.481 0 0 1 -.663-7.028l10.068-15.51a83.854 83.854 0 0 1 -9.052-21.833l-17.888-3.447a5.487 5.487 0 0 1 -4.447-5.7l-.227-23.517a5.476 5.476 0 0 1 4.339-5.4v-.01l18.232-3.879a83.248 83.248 0 0 1 9.057-21.822l-10.227-15.108a5.491 5.491 0 0 1 .87-7.143l16.491-16.81a5.481 5.481 0 0 1 7.028-.663l15.505 10.066a83.869 83.869 0 0 1 21.842-9.05l3.446-17.885a5.487 5.487 0 0 1 5.7-4.447l23.517-.227a5.475 5.475 0 0 1 5.4 4.339h.011l3.879 18.231zm-21.454 39.5v-.02a42.059 42.059 0 0 0 -41.586 42.458l.021.043h-.02a42.059 42.059 0 0 0 42.457 41.588l.043-.022v.021a42.061 42.061 0 0 0 41.587-42.459l-.022-.043h.021a42.061 42.061 0 0 0 -42.458-41.586z"/><path d="m159.382 61.927a72.581 72.581 0 0 0 -12.6-3.94 5.487 5.487 0 0 1 -4.47-4.276l-3.672-17.256-14.891.144-3.273 16.982a5.483 5.483 0 0 1 -4.269 4.337 72.891 72.891 0 0 0 -24.659 10.174 5.482 5.482 0 0 1 -6.066.063l-14.8-9.608-10.434 10.636 9.707 14.341-.009.006a5.48 5.48 0 0 1 .054 6.048c-4.529 6.951-8.678 16.322-10.237 24.522a5.489 5.489 0 0 1 -4.276 4.47l-17.257 3.666.144 14.892 16.985 3.272a5.483 5.483 0 0 1 4.337 4.27 72.891 72.891 0 0 0 10.174 24.654 5.482 5.482 0 0 1 .063 6.066l-9.61 14.8 10.65 10.445 14.089-9.537a5.482 5.482 0 0 1 6.29-.224c6.951 4.527 16.324 8.676 24.518 10.234a5.489 5.489 0 0 1 4.471 4.276l3.671 17.256 14.888-.14 3.273-16.984a5.483 5.483 0 0 1 4.269-4.337 72.886 72.886 0 0 0 24.658-10.169 5.48 5.48 0 0 1 6.066-.063l14.8 9.61 10.433-10.637-9.699-14.339h.009a5.482 5.482 0 0 1 -.052-6.049c4.528-6.952 8.676-16.322 10.234-24.518a5.489 5.489 0 0 1 4.276-4.47l17.256-3.672-.144-14.892-16.979-3.28a5.486 5.486 0 0 1 -4.337-4.27 72.909 72.909 0 0 0 -10.173-24.654 5.48 5.48 0 0 1 -.063-6.066l9.609-14.8-10.636-10.437-14.339 9.706v-.009a5.482 5.482 0 0 1 -6.049.052 73.045 73.045 0 0 0 -11.92-6.295zm-28.513 14.609v.021a53.02 53.02 0 0 1 53.473 52.536h-.022a53.02 53.02 0 0 1 -52.536 53.474v-.021a53.02 53.02 0 0 1 -53.473-52.536h.021a53.019 53.019 0 0 1 52.537-53.473z" fill="#6295d9"/><path d="m122.4 215.079 1.61 7.569 14.89-.148 3.273-16.984a5.483 5.483 0 0 1 4.269-4.337 72.886 72.886 0 0 0 24.658-10.169 5.48 5.48 0 0 1 6.066-.063l14.8 9.61 10.433-10.637-9.699-14.339h.009a5.482 5.482 0 0 1 -.052-6.049c4.528-6.952 8.676-16.322 10.234-24.518a5.489 5.489 0 0 1 4.276-4.47l17.256-3.672-.144-14.892-16.979-3.28a5.486 5.486 0 0 1 -4.337-4.27 72.909 72.909 0 0 0 -10.173-24.654 5.48 5.48 0 0 1 -.063-6.066l9.609-14.8-10.636-10.437-14.339 9.706v-.009a5.486 5.486 0 0 1 -5.67.277q-5.829 8.247-11.043 16.941a53.082 53.082 0 0 1 23.7 43.7h-.022a53.02 53.02 0 0 1 -52.536 53.474v-.021a53.553 53.553 0 0 1 -6.287-.315 271.645 271.645 0 0 0 -3.103 32.853z" fill="#6babff"/></g><circle cx="406.582" cy="98.92" r="82.92" transform="matrix(.23 -.973 .973 .23 216.895 471.898)"/><path d="m457.443 48.059a71.928 71.928 0 1 0 0 101.722 71.931 71.931 0 0 0 0-101.722zm-86.11 54.094a5.484 5.484 0 0 1 7.472-8.03l19.01 17.716 36.351-37.326a5.481 5.481 0 1 1 7.858 7.643l-40.01 41.085a5.484 5.484 0 0 1 -7.75.279z" fill="#696" fill-rule="evenodd"/></svg>