<svg clip-rule="evenodd" fill-rule="evenodd" height="256" image-rendering="optimizeQuality" shape-rendering="geometricPrecision" text-rendering="geometricPrecision" viewBox="0 0 30669 30669" width="256" xmlns="http://www.w3.org/2000/svg"><g id="Layer_x0020_1"><path d="m4484 28009h1538c1759 0 1759-2659 0-2659h-4166c-1759 0-1759-2659 0-2659h4081c1759 0 1759-2659 0-2659h-1465c-1759 0-1759-2660 0-2660h7301 2597 3959c1759 0 1759 2660 0 2660h-733c-1759 0-1759 2659 0 2659h1999c1759 0 1759 2659 0 2659h-2083c-1760 0-1760 2659 0 2659h640c1759 0 1759 2659 0 2659h-3782-2597-7289c-1759 0-1759-2659 0-2659z" fill="#e4ffff"/><path d="m12441 17372h13694c1759 0 1758 2660 0 2660h-1366c-1859 0-2023 2659 203 2659h3841c1759 0 1758 2659 0 2659h-5532c-1759 0-1759 2659 0 2659h1338c1759 0 1759 2660 0 2660h-12178l-734-1c-1759 0-1759-2659 0-2659h734c1770 0 1844-2659 0-2659h-3132c-1759 0-1759-2659 0-2659h2269c1948 60 2179-2659 0-2659h-1386c-1759 0-1759-2660 0-2660zm15408 10637h-8c-731 0-1329 599-1329 1330 0 731 598 1329 1329 1329h8c732 0 1330-598 1330-1329 0-731-598-1330-1330-1330z" fill="#cbeeff"/><path d="m846 904 285 285m777-285-285 285m-492 491-285 285m777-285 285 285" fill="none" stroke="#001850" stroke-width="479.193"/><circle fill="none" r="685" stroke="#001850" stroke-width="479.193" transform="matrix(.502 -.551 .551 .502 12913.2 1445.82)"/><path d="m4711 3203h-125c-1647 0-2995 1348-2995 2995v2784h6112l2-2785c0-1647-1348-2994-2994-2994z" fill="#fff"/><path d="m4697 3807h-98c-1303 0-2369 1066-2369 2369v2202h4835l1-2203c0-1302-1066-2368-2369-2368z" fill="#007ac2"/><path d="m4711 3203h15737c1647 0 2994 1347 2994 2994v21600h-15747l10-21600c0-1647-1348-2994-2994-2994z" fill="#fff"/><path d="m7702 15894 3-9697c0-1647-1348-2994-2994-2994h15737c1647 0 2994 1347 2994 2994v1048m0 7038v5212m0 4792v3510h-15747l4-3401" fill="none" stroke="#001850" stroke-width="479.193"/><path d="m4711 3203c-1717 0-3120 1241-3120 2995v2784h6112" fill="none" stroke="#001850" stroke-width="479.193"/><circle cx="7786" cy="20109" fill="none" r="3303" stroke="#001850" stroke-width="479.193"/><circle cx="7786" cy="20109" fill="#0cf" r="2618"/><path d="m6767 18488 1019 1621 1225-588" fill="none" stroke="#001850" stroke-linecap="round" stroke-linejoin="round" stroke-width="479.193"/><path d="m28291 18778-1075-1306-6119 5035 1075 1306z" fill="#fff"/><path d="m22103 23870-1362 476-443-538 730-1245z" fill="#fff"/><path d="m20741 24346-1158 502 715-1040z" fill="#fff"/><path d="m0 0h3235v6179h-3235z" fill="#002985" transform="matrix(-.128 -.156 .904 -.744 22107.6 23194.1)"/><path d="m21028 22563-730 1245 443 538 1362-476" fill="none" stroke="#001850" stroke-width="479.193"/><path d="m20741 24346-1158 502 715-1040" fill="none" stroke="#001850" stroke-width="479.193"/><path d="m21541 23654-410-498-452 618 169 205z" fill="#33d6ff"/><path d="m28291 18778-1075-1306-6119 5035 1075 1306z" fill="none" stroke="#001850" stroke-width="479.193"/><path d="m28291 18778-1075-1306 588-484c213-175 511-167 663 18l522 635c153 185 103 479-110 654z" fill="#fff"/><path d="m28291 18778-1075-1306 588-484c213-175 511-167 663 18l522 635c153 185 103 479-110 654z" fill="none" stroke="#001850" stroke-width="479.193"/><path d="m28187 18214-437-531 270-222c97-80 227-84 289-9l212 258c62 75 33 202-65 282z" fill="#002985"/><g stroke="#001850"><path d="m28426 904 285 285m777-285-285 285m-492 491-285 285m777-285 285 285" fill="none" stroke-width="479.193"/><path d="m27368 26106 285 285m777-285-285 285m-492 491-285 285m777-285 285 285" fill="none" stroke-width="479.193"/><path d="m886 28404 284 285m777-285-285 285m-492 492-284 285m776-285 285 285" fill="none" stroke-width="479.193"/><circle fill="none" r="685" stroke-width="479.193" transform="matrix(.502 -.551 .551 .502 27193.8 5973.89)"/><path d="m25818 15094 285 285m776-285-284 285m-492 492-285 285m777-285 284 285" fill="none" stroke-width="479.193"/><circle fill="none" r="685" stroke-width="479.193" transform="matrix(.502 -.551 .551 .502 1152.64 19883.9)"/><path d="m20546 6513h-2372" fill="none" stroke-width="479.193"/><path d="m18212 24948h-3782" fill="none" stroke-width="479.193"/><path d="m4427 11895 285 284m776-284-285 285m-491 491-285 285m776-285 285 285" fill="none" stroke-width="479.193"/><path d="m19347 10212h-8683" fill="none" stroke-width="479.193"/><path d="m19542 11770h-8878" fill="none" stroke-width="479.193"/><path d="m20081 13327h-9417" fill="none" stroke-width="479.193"/><path d="m21596 14885h-10932" fill="none" stroke-width="479.193"/><path d="m21596 16442h-10932" fill="none" stroke-width="479.193"/><path d="m21596 17999h-9494" fill="none" stroke-width="479.193"/><path d="m21596 19557h-9090" fill="none" stroke-width="479.193"/><path d="m16594 21114h-4313" fill="none" stroke-width="479.193"/><path d="m15688 6513h-5024" fill="none" stroke-width="479.193"/><path d="m13176 8041h-2512" fill="none" stroke-width="479.193"/></g><circle cx="23442" cy="10616" fill="#00a3e0" r="2149"/><circle cx="23442" cy="10616" fill="none" r="2733" stroke="#001850" stroke-width="479.193"/><g id="_374579584" fill="none" stroke="#fff" stroke-width="479.193"><path d="m22847 11485c138 312 398 415 689 366 563-93 729-924 92-1167l-372-157c-637-244-471-1074 92-1168 291-48 551 54 689 367"/><path d="m23442 8718v635"/><path d="m23442 11844v634"/></g></g><g id="Layer_x0020_2"><path d="m0 0h30669v30669h-30669z" fill="none"/></g></svg>